<svg width="128" height="131" viewBox="0 0 128 131" fill="none" xmlns="http://www.w3.org/2000/svg">
<g filter="url(#filter0_d_184_1713)">
<path d="M94.5 100.041H34C34 100.041 31 99.5408 31 102.041V118.541C31 119.541 31.5 120.541 34 120.541L94.5 121.041C95.5 121.041 96.5 121.041 96.5 118.541V102.041C96.5 102.041 97 100.041 94.5 100.041Z" fill="white" stroke="#A54003" stroke-width="3"/>
<path d="M82.6675 92.5H44.1675C42.8342 93 39.1675 93.5 38.1675 99H89.1675C88.5009 97.5 87.6674 93.5 82.6675 92.5Z" fill="white" stroke="#FEB805" stroke-width="2"/>
<path d="M60.1675 87.5V72.9523C61.1675 73.9523 65.1675 74.4523 67.1675 72.9523V87.5H60.1675Z" fill="white" stroke="#FEB805" stroke-width="2"/>
<path d="M49.6674 92.5C49.3341 91.6667 50.2675 88.7 52.6675 87.5H63.6675H75.1675C76.0008 88 78.484 90.5 78.084 92.5H49.6674Z" fill="white" stroke="#FEB805" stroke-width="2"/>
<path d="M32.4999 117L32.5 108.5H94.9999V118C94.9999 119.5 94.9999 119.5 93.9999 119.5L33.4999 119C32.5001 119 32.4998 119.5 32.4999 117Z" fill="#FEB805"/>
<path d="M122.663 6.5H105.018L103.665 14.0714H114.164C114.164 19.119 109.165 38.3 93.1666 48.9L86.5029 59.5C116.999 47.8905 123.996 7.17302 122.663 6.5Z" fill="white" stroke="#FEB805" stroke-width="2"/>
<path d="M5.1674 6.5H22.8145L24.1673 14H13.6673C13.6673 19 18.6673 38 34.6673 48.5L40.5029 59C10.003 47.5 3.83406 7.16667 5.1674 6.5Z" fill="white" stroke="#FEB805" stroke-width="2"/>
<path d="M63.6675 73C51.4098 73 29.6675 59.5 22.1675 1H105.865C97.6675 58.5 77.6675 73 63.6675 73Z" fill="white" stroke="#FEB805" stroke-width="2"/>
</g>
<defs>
<filter id="filter0_d_184_1713" x="0" y="0" width="127.816" height="130.542" filterUnits="userSpaceOnUse" color-interpolation-filters="sRGB">
<feFlood flood-opacity="0" result="BackgroundImageFix"/>
<feColorMatrix in="SourceAlpha" type="matrix" values="0 0 0 0 0 0 0 0 0 0 0 0 0 0 0 0 0 0 127 0" result="hardAlpha"/>
<feOffset dy="4"/>
<feGaussianBlur stdDeviation="2"/>
<feComposite in2="hardAlpha" operator="out"/>
<feColorMatrix type="matrix" values="0 0 0 0 0 0 0 0 0 0 0 0 0 0 0 0 0 0 0.25 0"/>
<feBlend mode="normal" in2="BackgroundImageFix" result="effect1_dropShadow_184_1713"/>
<feBlend mode="normal" in="SourceGraphic" in2="effect1_dropShadow_184_1713" result="shape"/>
</filter>
</defs>
</svg>
