<svg width="120" height="123" viewBox="0 0 120 123" fill="none" xmlns="http://www.w3.org/2000/svg">
<path d="M90.5 100.041H30C30 100.041 27 99.5408 27 102.041V118.541C27 119.541 27.5 120.541 30 120.541L90.5 121.041C91.5 121.041 92.5 121.041 92.5 118.541V102.041C92.5 102.041 93 100.041 90.5 100.041Z" fill="#FEB805" stroke="#A54003" stroke-width="3"/>
<path d="M78.6675 92.5H40.1675C38.8342 93 35.1675 93.5 34.1675 99H85.1675C84.5009 97.5 83.6674 93.5 78.6675 92.5Z" fill="#FCE60B" stroke="#FEB805" stroke-width="2"/>
<path d="M56.1675 87.5V72.9523C57.1675 73.9523 61.1675 74.4523 63.1675 72.9523V87.5H56.1675Z" fill="white" stroke="#FEB805" stroke-width="2"/>
<path d="M118.663 6.5H101.018L99.6653 14.0714H110.164C110.164 19.119 105.165 38.3 89.1666 48.9L82.5029 59.5C112.999 47.8905 119.996 7.17302 118.663 6.5Z" fill="white" stroke="#FEB805" stroke-width="2"/>
<path d="M45.6674 92.5C45.3341 91.6667 46.2675 88.7 48.6675 87.5H59.6675H71.1675C72.0008 88 74.484 90.5 74.084 92.5H45.6674Z" fill="#FCE60B" stroke="#FEB805" stroke-width="2"/>
<path d="M59.6675 73C47.4098 73 25.6675 59.5 18.1675 1H101.865C93.6675 58.5 73.6675 73 59.6675 73Z" fill="white" stroke="#FEB805" stroke-width="2"/>
<path d="M1.1674 6.5H18.8145L20.1673 14H9.66734C9.66734 19 14.6673 38 30.6673 48.5L36.5029 59C6.00297 47.5 -0.165936 7.16667 1.1674 6.5Z" fill="white" stroke="#FEB805" stroke-width="2"/>
</svg>
