<svg width="121" height="123" viewBox="0 0 121 123" fill="none" xmlns="http://www.w3.org/2000/svg">
<path d="M91.5 100.041H31C31 100.041 28 99.5408 28 102.041V118.541C28 119.541 28.5 120.541 31 120.541L91.5 121.041C92.5 121.041 93.5 121.041 93.5 118.541V102.041C93.5 102.041 94 100.041 91.5 100.041Z" fill="#FEB805" stroke="#A54003" stroke-width="3"/>
<path d="M79.6675 92.5H41.1675C39.8342 93 36.1675 93.5 35.1675 99H86.1675C85.5009 97.5 84.6674 93.5 79.6675 92.5Z" fill="#FCE60B" stroke="#FEB805" stroke-width="2"/>
<path d="M57.1675 87.5V72.9523C58.1675 73.9523 62.1675 74.4523 64.1675 72.9523V87.5H57.1675Z" fill="#FCE60B" stroke="#FEB805" stroke-width="2"/>
<path d="M119.663 6.5H102.018L100.665 14.0714H111.164C111.164 19.119 106.165 38.3 90.1666 48.9L83.5029 59.5C113.999 47.8905 120.996 7.17302 119.663 6.5Z" fill="white" stroke="#FEB805" stroke-width="2"/>
<path d="M46.6674 92.5C46.3341 91.6667 47.2675 88.7 49.6675 87.5H60.6675H72.1675C73.0008 88 75.484 90.5 75.084 92.5H46.6674Z" fill="#FCE60B" stroke="#FEB805" stroke-width="2"/>
<path d="M60.6675 73C48.4098 73 26.6675 59.5 19.1675 1H102.865C94.6675 58.5 74.6675 73 60.6675 73Z" fill="white" stroke="#FEB805" stroke-width="2"/>
<path d="M61 72C48.7423 72 37.5 60 31 44H90.8589C84 59 74.8359 72 61 72Z" fill="#FCE60B"/>
<path d="M1.1674 6H18.8145L20.1673 13.5H9.66734C9.66734 18.5 14.6673 37.5 30.6673 48L36.5029 58.5C6.00297 47 -0.165936 6.66667 1.1674 6Z" fill="white" stroke="#FEB805" stroke-width="2"/>
<path d="M35 57C32 56 23.5 51 18 44H24C25.741 45.5 29.5 48.5135 30.5 49L35 57Z" fill="#FCE60B"/>
<path d="M86 57.5C89 56.5 97.5 51 103 44H97.5C95.759 45.5 92 49.0135 91 49.5L86 57.5Z" fill="#FCE60B"/>
</svg>
