<svg width="121" height="123" viewBox="0 0 121 123" fill="none" xmlns="http://www.w3.org/2000/svg">
<path d="M91.5 100.041H31C31 100.041 28 99.5408 28 102.041V118.541C28 119.541 28.5 120.541 31 120.541L91.5 121.041C92.5 121.041 93.5 121.041 93.5 118.541V102.041C93.5 102.041 94 100.041 91.5 100.041Z" fill="#FEB805" stroke="#A54003" stroke-width="3"/>
<path d="M79.6641 92.5H41.1641C39.8308 93 36.1641 93.5 35.1641 99H86.1641C85.4974 97.5 84.664 93.5 79.6641 92.5Z" fill="#FCE60B" stroke="#FEB805" stroke-width="2"/>
<path d="M57.1641 87.5V72.9523C58.1641 73.9523 62.1641 74.4523 64.1641 72.9523V87.5H57.1641Z" fill="#FCE60B" stroke="#FEB805" stroke-width="2"/>
<path d="M119.66 6.5H102.015L100.662 14.0714H111.161C111.161 19.119 106.161 38.3 90.1635 48.9L83.4998 59.5C113.996 47.8905 120.993 7.17302 119.66 6.5Z" fill="white" stroke="#FEB805" stroke-width="2"/>
<path d="M85.4998 58C102.5 49 109 36.5 113.5 26.5H109.054C106.054 32.5 101.336 42.6 90.9998 49.5L87.4998 54.5L85.4998 58Z" fill="#FCE60B"/>
<path d="M46.664 92.5C46.3306 91.6667 47.2641 88.7 49.6641 87.5H60.6641H72.1641C72.9973 88 75.4805 90.5 75.0805 92.5H46.664Z" fill="#FCE60B" stroke="#FEB805" stroke-width="2"/>
<path d="M60.6641 73C48.4064 73 26.6641 59.5 19.1641 1H102.862C94.6641 58.5 74.6641 73 60.6641 73Z" fill="white" stroke="#FEB805" stroke-width="2"/>
<path d="M61 72C46 72 31.5 54.5 25 26.5H96.7529C89.5 55 76 72 61 72Z" fill="#FCE60B"/>
<path d="M1.15298 6H18.7965L20.149 13.5714H9.65117C9.65117 18.619 14.6501 37.8 30.6468 48.4L37.31 59C6.81634 47.3905 -0.180079 6.67302 1.15298 6Z" fill="white" stroke="#FEB805" stroke-width="2"/>
<path d="M35 57C18 48.1429 11.5 35.8413 7 26H12C14.9999 31.9048 19.1636 41.8444 29.5 48.6349L33 53.5556L35 57Z" fill="#FCE60B"/>
</svg>
