<svg width="129" height="131" viewBox="0 0 129 131" fill="none" xmlns="http://www.w3.org/2000/svg">
<g filter="url(#filter0_d_183_1637)">
<path d="M95.5 100.041H35C35 100.041 32 99.5408 32 102.041V118.541C32 119.541 32.5 120.541 35 120.541L95.5 121.041C96.5 121.041 97.5 121.041 97.5 118.541V102.041C97.5 102.041 98 100.041 95.5 100.041Z" fill="#FEB805" stroke="#A54003" stroke-width="3"/>
<path d="M83.6643 92.5H45.1643C43.831 93 40.1643 93.5 39.1643 99H90.1643C89.4977 97.5 88.6642 93.5 83.6643 92.5Z" fill="#FCE60B" stroke="#FEB805" stroke-width="2"/>
<path d="M61.1643 87.5V72.9523C62.1643 73.9523 66.1643 74.4523 68.1643 72.9523V87.5H61.1643Z" fill="#FCE60B" stroke="#FEB805" stroke-width="2"/>
<path d="M123.66 6.5H106.015L104.662 14.0714H115.161C115.161 19.119 110.162 38.3 94.1636 48.9L87.4999 59.5C117.996 47.8905 124.993 7.17302 123.66 6.5Z" fill="white" stroke="#FEB805" stroke-width="2"/>
<path d="M89.5001 58C106.5 49 113 36.5 117.5 26.5H113.054C110.054 32.5 105.336 42.6 95.0001 49.5L91.5001 54.5L89.5001 58Z" fill="#FCE60B"/>
<path d="M50.6642 92.5C50.3309 91.6667 51.2643 88.7 53.6643 87.5H64.6643H76.1643C76.9976 88 79.4808 90.5 79.0808 92.5H50.6642Z" fill="#FCE60B" stroke="#FEB805" stroke-width="2"/>
<path d="M64.6643 73C52.4067 73 30.6643 59.5 23.1643 1H106.862C98.6643 58.5 78.6643 73 64.6643 73Z" fill="white" stroke="#FEB805" stroke-width="2"/>
<path d="M65 72C50 72 35.5 54.5 29 26.5H100.753C93.5 55 80 72 65 72Z" fill="#FCE60B"/>
<path d="M5.15322 6H22.7967L24.1492 13.5714H13.6514C13.6514 18.619 18.6504 37.8 34.6471 48.4L41.3102 59C10.8166 47.3905 3.82017 6.67302 5.15322 6Z" fill="white" stroke="#FEB805" stroke-width="2"/>
<path d="M39.0002 57C22.0002 48.1429 15.5002 35.8413 11.0002 26H16.0002C19.0001 31.9048 23.1639 41.8444 33.5002 48.6349L37.0002 53.5556L39.0002 57Z" fill="#FCE60B"/>
</g>
<defs>
<filter id="filter0_d_183_1637" x="0.000244141" y="0" width="128.813" height="130.542" filterUnits="userSpaceOnUse" color-interpolation-filters="sRGB">
<feFlood flood-opacity="0" result="BackgroundImageFix"/>
<feColorMatrix in="SourceAlpha" type="matrix" values="0 0 0 0 0 0 0 0 0 0 0 0 0 0 0 0 0 0 127 0" result="hardAlpha"/>
<feOffset dy="4"/>
<feGaussianBlur stdDeviation="2"/>
<feComposite in2="hardAlpha" operator="out"/>
<feColorMatrix type="matrix" values="0 0 0 0 0 0 0 0 0 0 0 0 0 0 0 0 0 0 0.25 0"/>
<feBlend mode="normal" in2="BackgroundImageFix" result="effect1_dropShadow_183_1637"/>
<feBlend mode="normal" in="SourceGraphic" in2="effect1_dropShadow_183_1637" result="shape"/>
</filter>
</defs>
</svg>
