<svg width="120" height="123" viewBox="0 0 120 123" fill="none" xmlns="http://www.w3.org/2000/svg">
<path d="M90.5 100.041H30C30 100.041 27 99.5408 27 102.041V118.541C27 119.541 27.5 120.541 30 120.541L90.5 121.041C91.5 121.041 92.5 121.041 92.5 118.541V102.041C92.5 102.041 93 100.041 90.5 100.041Z" fill="#FEB805" stroke="#A54003" stroke-width="3"/>
<path d="M78.6643 92.5H40.1643C38.831 93 35.1643 93.5 34.1643 99H85.1643C84.4977 97.5 83.6642 93.5 78.6643 92.5Z" fill="#FCE60B" stroke="#FEB805" stroke-width="2"/>
<path d="M56.1643 87.5V72.9523C57.1643 73.9523 61.1643 74.4523 63.1643 72.9523V87.5H56.1643Z" fill="#FCE60B" stroke="#FEB805" stroke-width="2"/>
<path d="M118.66 6.5H101.015L99.6623 14.0714H110.161C110.161 19.119 105.162 38.3 89.1636 48.9L83.1643 59.5C113.661 47.8905 119.993 7.17302 118.66 6.5Z" fill="#FCE60B" stroke="#FEB805" stroke-width="2"/>
<path d="M1.16435 6.5H18.8115L20.1643 14H9.6643C9.6643 19 14.6643 38 30.6643 48.5L36.6643 59C6.16435 47.5 -0.168983 7.16667 1.16435 6.5Z" fill="#FCE60B" stroke="#FEB805" stroke-width="2"/>
<path d="M45.6642 92.5C45.3309 91.6667 46.2643 88.7 48.6643 87.5H59.6643H71.1643C71.9976 88 74.4808 90.5 74.0808 92.5H45.6642Z" fill="#FCE60B" stroke="#FEB805" stroke-width="2"/>
<path d="M59.6643 73C47.4067 73 25.6643 59.5 18.1643 1H101.862C93.6643 58.5 73.6643 73 59.6643 73Z" fill="#FCE60B" stroke="#FEB805" stroke-width="2"/>
</svg>
