<svg width="109" height="44" viewBox="0 0 109 44" fill="none" xmlns="http://www.w3.org/2000/svg">
<path d="M47.1152 21.25L55.2366 1.3247L63.358 21.25H47.1152Z" fill="white" stroke="#EC2B23"/>
<rect x="0.500122" y="21.5" width="108" height="22" rx="11" fill="white" stroke="#EC2B23"/>
<path d="M24.9912 30.968C24.2659 30.0827 23.3699 29.64 22.3032 29.64C21.8339 29.64 21.3965 29.7253 20.9912 29.896C20.5965 30.0667 20.2552 30.3013 19.9672 30.6C19.6792 30.888 19.4499 31.2347 19.2792 31.64C19.1192 32.0453 19.0392 32.4827 19.0392 32.952C19.0392 33.432 19.1192 33.8747 19.2792 34.28C19.4499 34.6853 19.6792 35.0373 19.9672 35.336C20.2659 35.6347 20.6125 35.8693 21.0072 36.04C21.4019 36.2107 21.8285 36.296 22.2872 36.296C23.2899 36.296 24.1912 35.8693 24.9912 35.016V38.728L24.6712 38.84C24.1912 39.0107 23.7432 39.1333 23.3272 39.208C22.9112 39.2933 22.5005 39.336 22.0952 39.336C21.2632 39.336 20.4632 39.1813 19.6952 38.872C18.9379 38.552 18.2659 38.1093 17.6792 37.544C17.1032 36.968 16.6392 36.2907 16.2872 35.512C15.9352 34.7227 15.7592 33.864 15.7592 32.936C15.7592 32.008 15.9299 31.16 16.2712 30.392C16.6232 29.6133 17.0872 28.9467 17.6632 28.392C18.2499 27.8267 18.9272 27.3893 19.6952 27.08C20.4632 26.76 21.2685 26.6 22.1112 26.6C22.5912 26.6 23.0605 26.6533 23.5192 26.76C23.9885 26.856 24.4792 27.0107 24.9912 27.224V30.968ZM29.5991 25.72V39H26.7031V25.72H29.5991ZM34.4741 30.792V39H31.5781V30.792H34.4741ZM31.3861 27.64C31.3861 27.416 31.4287 27.208 31.5141 27.016C31.5994 26.8133 31.7167 26.6373 31.8661 26.488C32.0154 26.3387 32.1861 26.2213 32.3781 26.136C32.5807 26.0507 32.7941 26.008 33.0181 26.008C33.2421 26.008 33.4501 26.0507 33.6421 26.136C33.8447 26.2213 34.0207 26.3387 34.1701 26.488C34.3194 26.6373 34.4367 26.8133 34.5221 27.016C34.6074 27.208 34.6501 27.416 34.6501 27.64C34.6501 27.864 34.6074 28.0773 34.5221 28.28C34.4367 28.472 34.3194 28.6427 34.1701 28.792C34.0207 28.9413 33.8447 29.0587 33.6421 29.144C33.4501 29.2293 33.2421 29.272 33.0181 29.272C32.7941 29.272 32.5807 29.2293 32.3781 29.144C32.1861 29.0587 32.0154 28.9413 31.8661 28.792C31.7167 28.6427 31.5994 28.472 31.5141 28.28C31.4287 28.0773 31.3861 27.864 31.3861 27.64ZM42.6451 33.448C42.1437 33.1067 41.6371 32.936 41.1251 32.936C40.8477 32.936 40.5864 32.984 40.3411 33.08C40.1064 33.176 39.8984 33.3147 39.7171 33.496C39.5357 33.6667 39.3917 33.8747 39.2851 34.12C39.1891 34.3547 39.1411 34.6213 39.1411 34.92C39.1411 35.208 39.1891 35.4747 39.2851 35.72C39.3917 35.9547 39.5304 36.1627 39.7011 36.344C39.8824 36.5147 40.0957 36.648 40.3411 36.744C40.5864 36.84 40.8477 36.888 41.1251 36.888C41.6691 36.888 42.1757 36.7013 42.6451 36.328V38.792C41.9304 39.1013 41.2531 39.256 40.6131 39.256C40.0157 39.256 39.4451 39.1547 38.9011 38.952C38.3677 38.7493 37.8931 38.4613 37.4771 38.088C37.0717 37.704 36.7464 37.2507 36.5011 36.728C36.2557 36.1947 36.1331 35.6027 36.1331 34.952C36.1331 34.3013 36.2504 33.7093 36.4851 33.176C36.7197 32.632 37.0397 32.168 37.4451 31.784C37.8504 31.3893 38.3304 31.0853 38.8851 30.872C39.4504 30.648 40.0531 30.536 40.6931 30.536C41.3971 30.536 42.0477 30.6853 42.6451 30.984V33.448ZM47.5991 25.72V33.752L50.6391 30.792H54.6071L50.4951 34.584L54.8471 39H50.7831L47.5991 35.656V39H44.7031V25.72H47.5991ZM61.0404 39L63.0884 26.936H66.1924L68.6084 33.368L71.0084 26.936H74.1124L76.1604 39H73.0404L72.0004 32.056L69.1524 39H67.9044L65.2004 32.056L64.1604 39H61.0404ZM83.4374 33.704C83.3414 33.2987 83.1441 32.9733 82.8454 32.728C82.5468 32.4827 82.1841 32.36 81.7574 32.36C81.3094 32.36 80.9414 32.4773 80.6534 32.712C80.3761 32.9467 80.2001 33.2773 80.1254 33.704H83.4374ZM80.0454 35.384C80.0454 36.632 80.6321 37.256 81.8054 37.256C82.4348 37.256 82.9094 37 83.2294 36.488H86.0294C85.4641 38.3653 84.0508 39.304 81.7894 39.304C81.0961 39.304 80.4614 39.2027 79.8854 39C79.3094 38.7867 78.8134 38.488 78.3974 38.104C77.9921 37.72 77.6774 37.2613 77.4534 36.728C77.2294 36.1947 77.1174 35.5973 77.1174 34.936C77.1174 34.2533 77.2241 33.64 77.4374 33.096C77.6508 32.5413 77.9548 32.072 78.3494 31.688C78.7441 31.304 79.2188 31.0107 79.7734 30.808C80.3388 30.5947 80.9734 30.488 81.6774 30.488C82.3708 30.488 82.9948 30.5947 83.5494 30.808C84.1041 31.0107 84.5734 31.3093 84.9574 31.704C85.3414 32.0987 85.6348 32.584 85.8374 33.16C86.0401 33.7253 86.1414 34.3653 86.1414 35.08V35.384H80.0454ZM88.3728 34.904V26.936H91.3808V34.904H88.3728ZM88.0048 37.464C88.0048 37.208 88.0528 36.968 88.1488 36.744C88.2448 36.5093 88.3781 36.3067 88.5488 36.136C88.7195 35.9653 88.9168 35.832 89.1408 35.736C89.3755 35.64 89.6208 35.592 89.8768 35.592C90.1328 35.592 90.3728 35.64 90.5968 35.736C90.8315 35.832 91.0341 35.9653 91.2048 36.136C91.3755 36.3067 91.5088 36.5093 91.6048 36.744C91.7008 36.968 91.7488 37.208 91.7488 37.464C91.7488 37.72 91.7008 37.9653 91.6048 38.2C91.5088 38.424 91.3755 38.6213 91.2048 38.792C91.0341 38.9627 90.8315 39.096 90.5968 39.192C90.3728 39.288 90.1328 39.336 89.8768 39.336C89.6208 39.336 89.3755 39.288 89.1408 39.192C88.9168 39.096 88.7195 38.9627 88.5488 38.792C88.3781 38.6213 88.2448 38.424 88.1488 38.2C88.0528 37.9653 88.0048 37.72 88.0048 37.464Z" fill="black"/>
</svg>
