<svg width="34" height="29" viewBox="0 0 34 29" fill="none" xmlns="http://www.w3.org/2000/svg">
<path fill-rule="evenodd" clip-rule="evenodd" d="M21.1584 21.8858C18.9129 23.852 15.9553 25.0463 12.7144 25.0463C5.69245 25.0463 0 19.4395 0 12.5231C0 5.6068 5.69245 0 12.7144 0C19.7364 0 25.4289 5.6068 25.4289 12.5231C25.4289 14.1132 25.128 15.6341 24.5792 17.0336C24.6614 17.0878 24.7416 17.1465 24.8196 17.2097L32.9085 23.7709C34.1858 24.807 34.3685 26.6668 33.3166 27.9249C32.2647 29.183 30.3765 29.363 29.0992 28.3269L21.1584 21.8858ZM21.1487 12.5231C21.1487 17.1112 17.3726 20.8305 12.7144 20.8305C8.0563 20.8305 4.28014 17.1112 4.28014 12.5231C4.28014 7.93509 8.0563 4.21574 12.7144 4.21574C17.3726 4.21574 21.1487 7.93509 21.1487 12.5231Z" fill="#5B5E60"/>
</svg>
