<svg width="62" height="62" viewBox="0 0 62 62" fill="none" xmlns="http://www.w3.org/2000/svg">
<path d="M28.1302 1.12492C45.5959 -0.511261 61.491 14.1514 60.9884 31.8661C60.5172 48.6999 45.4703 62.0095 28.9783 60.9397C14.5911 59.9958 2.43415 48.3223 1.11479 33.7226C-0.330219 17.4867 12.0466 2.63523 28.1302 1.12492Z" fill="#ED1C24" stroke="black" stroke-miterlimit="10"/>
<path d="M51.3128 43C50.9416 43 50.6446 43.445 49.6794 45.8752C47.9718 50.0853 47.9718 50.9068 48.0089 51.386C48.046 51.9336 48.1574 53.3712 49.1597 54.7746C49.6794 55.4934 50.7931 57.0337 52.3894 56.9994C54.097 56.9994 55.3592 55.2196 55.7676 54.0558C56.2873 52.584 55.8047 51.0437 55.5819 50.2222C55.4706 49.8115 55.3221 49.5376 55.2107 49.1954C54.6539 47.8604 54.097 47.1759 53.3546 45.9436C51.8326 43.6503 51.7583 43 51.3128 43Z" fill="#00AEEF" stroke="#2E3192" stroke-miterlimit="10"/>
<path d="M21.5455 18C19.7997 18 18.173 21.2849 18.0143 23.9758C17.8159 27.2607 19.7204 31 21.5455 31C23.331 31 25.0767 27.3656 24.9974 24.2554C24.9577 21.4247 23.331 18 21.5455 18Z" fill="black" stroke="black" stroke-miterlimit="10"/>
<path d="M40.5455 18C38.7997 18 37.173 21.2849 37.0143 23.9758C36.8159 27.2607 38.7204 31 40.5455 31C42.331 31 44.0767 27.3656 43.9974 24.2554C43.9577 21.4247 42.331 18 40.5455 18Z" fill="black" stroke="black" stroke-miterlimit="10"/>
<path d="M4.31284 36C3.94161 36 3.64463 36.445 2.67945 38.8752C0.971805 43.0853 0.971805 43.9068 1.00893 44.386C1.04605 44.9336 1.15742 46.3712 2.15973 47.7746C2.67945 48.4934 3.79312 50.0337 5.38939 49.9994C7.09703 49.9994 8.3592 48.2196 8.76755 47.0558C9.28727 45.584 8.80468 44.0437 8.58194 43.2222C8.47057 42.8115 8.32208 42.5376 8.21071 42.1954C7.65387 40.8604 7.09703 40.1759 6.35458 38.9436C4.83255 36.6503 4.75831 36 4.31284 36Z" fill="#00AEEF" stroke="#2E3192" stroke-miterlimit="10"/>
<path d="M54.3128 4C53.9416 4 53.6446 4.44497 52.6794 6.87519C50.9718 11.0853 50.9718 11.9068 51.0089 12.386C51.046 12.9336 51.1574 14.3712 52.1597 15.7746C52.6794 16.4934 53.7931 18.0337 55.3894 17.9994C57.097 17.9994 58.3592 16.2196 58.7676 15.0558C59.2873 13.584 58.8047 12.0437 58.5819 11.2222C58.4706 10.8115 58.3221 10.5376 58.2107 10.1954C57.6539 8.86044 57.097 8.17587 56.3546 6.94365C54.8326 4.65034 54.7583 4 54.3128 4Z" fill="#00AEEF" stroke="#2E3192" stroke-miterlimit="10"/>
<path d="M15 40C26 55.5 40 50 47 40" stroke="black" stroke-width="2"/>
</svg>
