<svg width="569" height="132" viewBox="0 0 569 132" fill="none" xmlns="http://www.w3.org/2000/svg">
<path d="M472.075 29.8893L473.268 31.4945C473.703 31.1716 473.988 30.6865 474.058 30.1499C474.129 29.6133 473.979 29.071 473.642 28.6469L472.075 29.8893ZM461.015 15.9364L462.582 14.694C461.897 13.8304 460.643 13.6833 459.777 14.3652C458.911 15.047 458.76 16.3008 459.439 17.1688L461.015 15.9364ZM471.986 29.9596L470.411 31.192C470.744 31.6185 471.237 31.8915 471.775 31.9485C472.314 32.0055 472.853 31.8417 473.268 31.4945L471.986 29.9596ZM454.331 52.5031L456.23 53.129C456.4 52.6154 456.354 52.055 456.103 51.5758C455.852 51.0966 455.418 50.7394 454.9 50.5856L454.331 52.5031ZM436.405 47.1864L436.973 45.269C435.916 44.9556 434.805 45.5563 434.489 46.6122C434.172 47.668 434.77 48.7809 435.825 49.1005L436.405 47.1864ZM454.3 52.6077L453.72 54.5218C454.237 54.6786 454.797 54.619 455.27 54.3566C455.743 54.0942 456.089 53.6514 456.23 53.1291L454.3 52.6077ZM454.3 80.3923L456.23 79.871C456.089 79.3487 455.743 78.9058 455.27 78.6434C454.797 78.381 454.237 78.3214 453.72 78.4782L454.3 80.3923ZM436.405 85.8136L435.825 83.8995C434.77 84.2191 434.172 85.332 434.489 86.3878C434.805 87.4437 435.916 88.0444 436.973 87.731L436.405 85.8136ZM454.331 80.4969L454.9 82.4144C455.418 82.2606 455.852 81.9034 456.103 81.4242C456.354 80.945 456.4 80.3847 456.23 79.871L454.331 80.4969ZM471.986 103.04L473.268 101.506C472.853 101.158 472.314 100.994 471.775 101.052C471.237 101.109 470.744 101.381 470.411 101.808L471.986 103.04ZM461.015 117.064L459.439 115.831C458.76 116.699 458.911 117.953 459.777 118.635C460.643 119.317 461.897 119.17 462.582 118.306L461.015 117.064ZM472.075 103.111L473.642 104.353C473.979 103.929 474.129 103.387 474.058 102.85C473.988 102.314 473.703 101.828 473.268 101.506L472.075 103.111ZM500.776 111.768L500.836 109.769C500.294 109.753 499.769 109.957 499.381 110.336C498.993 110.714 498.775 111.233 498.776 111.775L500.776 111.768ZM500.835 129L498.835 129.007C498.838 130.109 499.733 131 500.835 131C501.937 131 502.831 130.109 502.835 129.007L500.835 129ZM500.893 111.768L502.893 111.775C502.895 111.234 502.677 110.715 502.289 110.337C501.902 109.959 501.377 109.754 500.836 109.769L500.893 111.768ZM529.595 103.112L528.404 101.506C527.969 101.828 527.683 102.313 527.612 102.85C527.541 103.387 527.691 103.93 528.028 104.354L529.595 103.112ZM540.655 117.064L539.087 118.306C539.772 119.17 541.026 119.317 541.892 118.635C542.758 117.953 542.909 116.699 542.23 115.831L540.655 117.064ZM529.684 103.042L531.26 101.809C530.926 101.383 530.434 101.11 529.896 101.053C529.358 100.996 528.819 101.159 528.404 101.506L529.684 103.042ZM547.341 80.4976L545.441 79.8711C545.272 80.3848 545.318 80.9452 545.568 81.4246C545.819 81.9039 546.253 82.2612 546.772 82.4151L547.341 80.4976ZM565.265 85.8136L564.696 87.731C565.753 88.0444 566.864 87.4437 567.181 86.3878C567.497 85.332 566.9 84.2191 565.845 83.8995L565.265 85.8136ZM547.372 80.393L547.952 78.4789C547.434 78.3221 546.875 78.3817 546.402 78.6439C545.929 78.9062 545.583 79.3488 545.441 79.8709L547.372 80.393ZM547.372 52.607L545.441 53.1292C545.583 53.6512 545.929 54.0939 546.402 54.3561C546.875 54.6184 547.434 54.6779 547.952 54.5211L547.372 52.607ZM565.265 47.1864L565.845 49.1005C566.9 48.7809 567.497 47.668 567.181 46.6122C566.864 45.5563 565.753 44.9556 564.696 45.269L565.265 47.1864ZM547.341 52.5024L546.772 50.5849C546.253 50.7387 545.819 51.0961 545.568 51.5754C545.318 52.0547 545.272 52.6152 545.441 53.1289L547.341 52.5024ZM529.684 29.9583L528.404 31.4944C528.819 31.841 529.358 32.0043 529.896 31.9471C530.434 31.8899 530.926 31.617 531.26 31.1907L529.684 29.9583ZM540.655 15.9364L542.23 17.1688C542.909 16.3008 542.758 15.047 541.892 14.3652C541.026 13.6833 539.772 13.8304 539.087 14.694L540.655 15.9364ZM529.595 29.8881L528.028 28.6457C527.691 29.0701 527.541 29.6128 527.612 30.1497C527.683 30.6867 527.969 31.1719 528.404 31.4945L529.595 29.8881ZM500.893 21.2316L500.836 23.2308C501.377 23.2462 501.902 23.0415 502.289 22.6635C502.677 22.2854 502.895 21.7663 502.893 21.2248L500.893 21.2316ZM500.835 4L502.835 3.99324C502.831 2.89131 501.937 2 500.835 2C499.733 2 498.838 2.89131 498.835 3.99324L500.835 4ZM500.776 21.2317L498.776 21.2249C498.775 21.7668 498.993 22.2863 499.381 22.6644C499.769 23.0425 500.294 23.2469 500.836 23.2308L500.776 21.2317ZM473.642 28.6469L462.582 14.694L459.447 17.1788L470.508 31.1317L473.642 28.6469ZM459.439 17.1688L470.411 31.192L473.561 28.7272L462.59 14.7041L459.439 17.1688ZM473.268 31.4945L473.268 31.4945L470.882 28.2841C470.821 28.3293 470.762 28.3762 470.704 28.4248L473.268 31.4945ZM454.9 50.5856L436.973 45.269L435.836 49.1039L453.762 54.4205L454.9 50.5856ZM435.825 49.1005L453.72 54.5218L454.879 50.6936L436.984 45.2723L435.825 49.1005ZM456.23 53.1291L456.23 53.129L452.431 51.8771C452.409 51.9462 452.388 52.0159 452.369 52.0863L456.23 53.1291ZM453.72 78.4782L435.825 83.8995L436.984 87.7277L454.879 82.3064L453.72 78.4782ZM436.973 87.731L454.9 82.4144L453.762 78.5795L435.836 83.8961L436.973 87.731ZM456.23 79.871L456.23 79.871L452.369 80.9137C452.388 80.9841 452.409 81.0538 452.431 81.1228L456.23 79.871ZM470.411 101.808L459.439 115.831L462.59 118.296L473.561 104.273L470.411 101.808ZM462.582 118.306L473.642 104.353L470.508 101.868L459.447 115.821L462.582 118.306ZM473.268 101.506L473.268 101.506L470.704 104.575C470.762 104.624 470.821 104.671 470.882 104.716L473.268 101.506ZM498.776 111.775L498.835 129.007L502.835 128.993L502.776 111.762L498.776 111.775ZM502.835 129.007L502.893 111.775L498.893 111.762L498.835 128.993L502.835 129.007ZM500.836 109.769L500.836 109.769L500.717 113.767C500.795 113.77 500.872 113.77 500.95 113.768L500.836 109.769ZM528.028 104.354L539.087 118.306L542.222 115.821L531.162 101.869L528.028 104.354ZM542.23 115.831L531.26 101.809L528.109 104.274L539.079 118.296L542.23 115.831ZM528.404 101.506L528.404 101.506L530.787 104.718C530.847 104.673 530.907 104.626 530.965 104.578L528.404 101.506ZM546.772 82.4151L564.696 87.731L565.833 83.8961L547.909 78.5802L546.772 82.4151ZM565.845 83.8995L547.952 78.4789L546.792 82.3071L564.685 87.7277L565.845 83.8995ZM545.441 79.8709L545.441 79.8711L549.24 81.1242C549.263 81.0552 549.284 80.9855 549.303 80.9152L545.441 79.8709ZM547.952 54.5211L565.845 49.1005L564.685 45.2723L546.792 50.6929L547.952 54.5211ZM564.696 45.269L546.772 50.5849L547.909 54.4198L565.833 49.1039L564.696 45.269ZM545.441 53.1289L545.441 53.1292L549.303 52.0847C549.284 52.0142 549.263 51.9446 549.24 51.8759L545.441 53.1289ZM531.26 31.1907L542.23 17.1688L539.079 14.7041L528.109 28.7259L531.26 31.1907ZM539.087 14.694L528.028 28.6457L531.162 31.1305L542.222 17.1788L539.087 14.694ZM528.404 31.4945L528.404 31.4944L530.965 28.4222C530.907 28.3738 530.847 28.3269 530.786 28.2817L528.404 31.4945ZM502.893 21.2248L502.835 3.99324L498.835 4.00676L498.893 21.2383L502.893 21.2248ZM498.835 3.99324L498.776 21.2249L502.776 21.2384L502.835 4.00676L498.835 3.99324ZM500.836 23.2308L500.836 23.2308L500.95 19.2324C500.872 19.2302 500.794 19.2302 500.717 19.2325L500.836 23.2308Z" fill="#EB5757"/>
<path d="M497.389 38.6867C499.637 38.0129 502.033 38.0129 504.28 38.6867L515.579 42.0735C517.944 42.7825 520.033 44.2039 521.561 46.1438L527.999 54.3195C529.666 56.4355 530.572 59.0505 530.572 61.7439V71.256C530.572 73.9494 529.666 76.5645 527.999 78.6804L521.561 86.8562C520.033 88.7961 517.944 90.2174 515.579 90.9264L504.28 94.3132C502.033 94.987 499.637 94.987 497.389 94.3132L486.091 90.9264C483.725 90.2174 481.636 88.7961 480.109 86.8562L473.67 78.6804C472.004 76.5645 471.098 73.9494 471.098 71.256V61.7439C471.098 59.0505 472.004 56.4355 473.67 54.3195L480.109 46.1438C481.636 44.2039 483.725 42.7825 486.091 42.0735L497.389 38.6867Z" fill="#F2C94C" stroke="#F2C94C" stroke-width="4" stroke-linecap="square" stroke-linejoin="round"/>
<g filter="url(#filter0_d_237_2242)">
<path fill-rule="evenodd" clip-rule="evenodd" d="M79.1864 59.3411C83.7272 61.6805 87.0342 65.5723 88.4292 70.2181L88.6142 70.8339C89.4016 73.4565 89.545 76.2024 89.0728 78.8871C90.7036 79.5765 92.2241 80.5331 93.5669 81.7314L94.2645 82.354C97.2773 85.0424 99 88.8886 99 92.9265C99 96.9644 97.2773 100.81 94.2645 103.499L93.5669 104.122C90.588 106.78 86.7351 108.249 82.7425 108.249H78.1133C78.1004 108.25 78.0874 108.25 78.0743 108.25H31.9279C31.9247 108.25 31.9215 108.25 31.9184 108.25H27.2575C23.2649 108.25 19.412 106.781 16.4331 104.123L15.7355 103.5C12.7227 100.812 11 96.9657 11 92.9278C11 88.8899 12.7227 85.0437 15.7355 82.3553L16.4331 81.7327C18.9907 79.4504 22.1926 78.0447 25.5739 77.6927C25.6562 77.1923 25.7695 76.6955 25.9142 76.2046C26.9055 72.8397 29.2906 70.0186 32.5744 68.3267L33.1758 68.0169C36.4597 66.3251 40.3901 65.8924 44.1513 66.8088C45.2136 67.0675 46.2385 67.4281 47.211 67.8799L48.2314 66.3027C51.2197 61.684 56.0904 58.3069 61.6973 56.9663L62.3875 56.8013C67.5937 55.5564 73.0241 56.1662 77.5649 58.5057L79.1864 59.3411Z" fill="white"/>
<path d="M88.4292 70.2181L88.9081 70.0743L88.9081 70.0743L88.4292 70.2181ZM79.1864 59.3411L79.4154 58.8966L79.4154 58.8966L79.1864 59.3411ZM88.6142 70.8339L88.1353 70.9777L88.1353 70.9777L88.6142 70.8339ZM89.0728 78.8871L88.5804 78.8005L88.5114 79.1926L88.8781 79.3476L89.0728 78.8871ZM93.5669 81.7314L93.234 82.1045L93.234 82.1045L93.5669 81.7314ZM94.2645 82.354L94.5974 81.9809L94.5974 81.9809L94.2645 82.354ZM94.2645 103.499L93.9316 103.126L93.9316 103.126L94.2645 103.499ZM93.5669 104.122L93.8998 104.495L93.8998 104.495L93.5669 104.122ZM78.1133 108.249V107.749H78.0953L78.0774 107.75L78.1133 108.249ZM31.9184 108.25L31.9273 107.75H31.9184V108.25ZM16.4331 104.123L16.766 103.75L16.766 103.75L16.4331 104.123ZM15.7355 103.5L15.4026 103.873L15.4026 103.873L15.7355 103.5ZM15.7355 82.3553L16.0684 82.7283L16.0684 82.7283L15.7355 82.3553ZM16.4331 81.7327L16.1002 81.3597L16.1002 81.3597L16.4331 81.7327ZM25.5739 77.6927L25.6257 78.19L26.0053 78.1505L26.0673 77.7739L25.5739 77.6927ZM25.9142 76.2046L25.4346 76.0633L25.4346 76.0633L25.9142 76.2046ZM32.5744 68.3267L32.3454 67.8823L32.3454 67.8823L32.5744 68.3267ZM33.1758 68.0169L33.4048 68.4614L33.4048 68.4614L33.1758 68.0169ZM44.1513 66.8088L44.033 67.2945L44.033 67.2945L44.1513 66.8088ZM47.211 67.8799L47.0004 68.3333L47.3946 68.5165L47.6308 68.1515L47.211 67.8799ZM48.2314 66.3027L47.8116 66.0311L47.8116 66.0311L48.2314 66.3027ZM61.6973 56.9663L61.5811 56.48L61.5811 56.48L61.6973 56.9663ZM62.3875 56.8013L62.5037 57.2875L62.5037 57.2875L62.3875 56.8013ZM77.5649 58.5057L77.3359 58.9502L77.3359 58.9502L77.5649 58.5057ZM88.9081 70.0743C87.4718 65.291 84.0697 61.2945 79.4154 58.8966L78.9574 59.7856C83.3847 62.0665 86.5967 65.8536 87.9504 70.3619L88.9081 70.0743ZM89.093 70.6901L88.9081 70.0743L87.9504 70.3619L88.1353 70.9777L89.093 70.6901ZM89.5653 78.9737C90.0506 76.2144 89.9035 73.3894 89.093 70.6901L88.1353 70.9777C88.8997 73.5235 89.0394 76.1905 88.5804 78.8005L89.5653 78.9737ZM93.8998 81.3584C92.5157 80.1232 90.9484 79.1371 89.2675 78.4265L88.8781 79.3476C90.4588 80.0158 91.9324 80.943 93.234 82.1045L93.8998 81.3584ZM94.5974 81.9809L93.8998 81.3584L93.234 82.1045L93.9316 82.727L94.5974 81.9809ZM99.5 92.9265C99.5 88.7461 97.7165 84.7642 94.5974 81.9809L93.9316 82.727C96.8381 85.3206 98.5 89.031 98.5 92.9265H99.5ZM94.5974 103.872C97.7165 101.089 99.5 97.1069 99.5 92.9265H98.5C98.5 96.8219 96.8381 100.532 93.9316 103.126L94.5974 103.872ZM93.8998 104.495L94.5974 103.872L93.9316 103.126L93.234 103.748L93.8998 104.495ZM82.7425 108.749C86.8578 108.749 90.8293 107.235 93.8998 104.495L93.234 103.748C90.3467 106.325 86.6123 107.749 82.7425 107.749V108.749ZM78.1133 108.749H82.7425V107.749H78.1133V108.749ZM78.0774 107.75C78.0765 107.75 78.0755 107.75 78.0743 107.75V108.75C78.0993 108.75 78.1243 108.749 78.1492 108.748L78.0774 107.75ZM78.0743 107.75H31.9279V108.75H78.0743V107.75ZM31.9279 107.75L31.9273 107.75L31.9094 108.75C31.9158 108.75 31.922 108.75 31.9279 108.75V107.75ZM27.2575 108.75H31.9184V107.75H27.2575V108.75ZM16.1002 104.496C19.1707 107.236 23.1421 108.75 27.2575 108.75V107.75C23.3877 107.75 19.6533 106.326 16.766 103.75L16.1002 104.496ZM15.4026 103.873L16.1002 104.496L16.766 103.75L16.0684 103.127L15.4026 103.873ZM10.5 92.9278C10.5 97.1082 12.2835 101.09 15.4026 103.873L16.0684 103.127C13.1619 100.534 11.5 96.8232 11.5 92.9278H10.5ZM15.4026 81.9822C12.2835 84.7655 10.5 88.7474 10.5 92.9278H11.5C11.5 89.0323 13.1619 85.3219 16.0684 82.7283L15.4026 81.9822ZM16.1002 81.3597L15.4026 81.9822L16.0684 82.7283L16.766 82.1058L16.1002 81.3597ZM25.5221 77.1954C22.0368 77.5582 18.7365 79.0072 16.1002 81.3597L16.766 82.1058C19.2449 79.8937 22.3483 78.5312 25.6257 78.19L25.5221 77.1954ZM25.4346 76.0633C25.2841 76.5741 25.1662 77.0909 25.0805 77.6115L26.0673 77.7739C26.1463 77.2937 26.255 76.817 26.3938 76.3459L25.4346 76.0633ZM32.3454 67.8823C28.9474 69.633 26.4667 72.5598 25.4346 76.0633L26.3938 76.3459C27.3443 73.1197 29.6338 70.4042 32.8034 68.7712L32.3454 67.8823ZM32.9468 67.5724L32.3454 67.8823L32.8034 68.7712L33.4048 68.4614L32.9468 67.5724ZM44.2697 66.323C40.3976 65.3796 36.3432 65.8226 32.9468 67.5724L33.4048 68.4614C36.5761 66.8275 40.3826 66.4052 44.033 67.2945L44.2697 66.323ZM47.4217 67.4264C46.4196 66.9609 45.3638 66.5895 44.2697 66.323L44.033 67.2945C45.0633 67.5456 46.0574 67.8953 47.0004 68.3333L47.4217 67.4264ZM47.8116 66.0311L46.7912 67.6082L47.6308 68.1515L48.6512 66.5743L47.8116 66.0311ZM61.5811 56.48C55.8557 57.8489 50.8733 61.2989 47.8116 66.0311L48.6512 66.5743C51.5661 62.0691 56.3251 58.7649 61.8136 57.4526L61.5811 56.48ZM62.2712 56.315L61.5811 56.48L61.8136 57.4526L62.5037 57.2875L62.2712 56.315ZM77.7939 58.0612C73.1413 55.6642 67.5877 55.0437 62.2712 56.315L62.5037 57.2875C67.5996 56.0691 72.9069 56.6683 77.3359 58.9502L77.7939 58.0612ZM79.4154 58.8966L77.7939 58.0612L77.3359 58.9502L78.9574 59.7856L79.4154 58.8966Z" fill="black"/>
</g>
<g filter="url(#filter1_d_237_2242)">
<path fill-rule="evenodd" clip-rule="evenodd" d="M189.186 27.3411C193.727 29.6805 197.034 33.5723 198.429 38.2181L198.614 38.8339C199.402 41.4565 199.545 44.2024 199.073 46.8871C200.704 47.5765 202.224 48.5331 203.567 49.7314L204.265 50.354C207.277 53.0424 209 56.8886 209 60.9265C209 64.9644 207.277 68.8105 204.265 71.499L203.567 72.1215C200.588 74.7798 196.735 76.2489 192.743 76.2489H188.113C188.1 76.2498 188.087 76.2503 188.074 76.2503L141.928 76.2503C141.925 76.2503 141.922 76.2503 141.918 76.2502H137.257C133.265 76.2502 129.412 74.7811 126.433 72.1228L125.735 71.5003C122.723 68.8118 121 64.9657 121 60.9278C121 56.8899 122.723 53.0437 125.735 50.3553L126.433 49.7327C128.991 47.4504 132.193 46.0447 135.574 45.6927C135.656 45.1923 135.77 44.6955 135.914 44.2046C136.905 40.8397 139.291 38.0186 142.574 36.3267L143.176 36.0169C146.46 34.3251 150.39 33.8924 154.151 34.8088C155.214 35.0675 156.238 35.4281 157.211 35.8799L158.231 34.3027C161.22 29.684 166.09 26.3069 171.697 24.9663L172.387 24.8013C177.594 23.5564 183.024 24.1662 187.565 26.5057L189.186 27.3411Z" fill="white"/>
<path d="M198.429 38.2181L198.908 38.0743L198.908 38.0743L198.429 38.2181ZM189.186 27.3411L189.415 26.8966L189.415 26.8966L189.186 27.3411ZM198.614 38.8339L198.135 38.9777L198.135 38.9777L198.614 38.8339ZM199.073 46.8871L198.58 46.8005L198.511 47.1926L198.878 47.3476L199.073 46.8871ZM203.567 49.7314L203.234 50.1045L203.234 50.1045L203.567 49.7314ZM204.265 50.354L204.597 49.9809L204.597 49.9809L204.265 50.354ZM204.265 71.499L203.932 71.1259L203.932 71.1259L204.265 71.499ZM203.567 72.1215L203.9 72.4946L203.9 72.4946L203.567 72.1215ZM188.113 76.2489V75.7489H188.095L188.077 75.7502L188.113 76.2489ZM188.074 76.2503V75.7503V76.2503ZM141.928 76.2503V76.7503V76.2503ZM141.918 76.2502L141.927 75.7502H141.918V76.2502ZM126.433 72.1228L126.766 71.7498L126.766 71.7498L126.433 72.1228ZM125.735 71.5003L125.403 71.8733L125.403 71.8733L125.735 71.5003ZM125.735 50.3553L126.068 50.7283L126.068 50.7283L125.735 50.3553ZM126.433 49.7327L126.1 49.3597L126.1 49.3597L126.433 49.7327ZM135.574 45.6927L135.626 46.19L136.005 46.1505L136.067 45.7739L135.574 45.6927ZM135.914 44.2046L135.435 44.0633L135.435 44.0633L135.914 44.2046ZM142.574 36.3267L142.345 35.8823L142.345 35.8823L142.574 36.3267ZM143.176 36.0169L143.405 36.4614L143.405 36.4614L143.176 36.0169ZM154.151 34.8088L154.033 35.2945L154.033 35.2945L154.151 34.8088ZM157.211 35.8799L157 36.3333L157.395 36.5165L157.631 36.1515L157.211 35.8799ZM158.231 34.3027L157.812 34.0311L157.812 34.0311L158.231 34.3027ZM171.697 24.9663L171.581 24.48L171.581 24.48L171.697 24.9663ZM172.387 24.8013L172.504 25.2875L172.504 25.2875L172.387 24.8013ZM187.565 26.5057L187.336 26.9502L187.336 26.9502L187.565 26.5057ZM198.908 38.0743C197.472 33.291 194.07 29.2945 189.415 26.8966L188.957 27.7856C193.385 30.0665 196.597 33.8536 197.95 38.3619L198.908 38.0743ZM199.093 38.6901L198.908 38.0743L197.95 38.3619L198.135 38.9777L199.093 38.6901ZM199.565 46.9737C200.051 44.2144 199.904 41.3894 199.093 38.6901L198.135 38.9777C198.9 41.5235 199.039 44.1905 198.58 46.8005L199.565 46.9737ZM203.9 49.3584C202.516 48.1232 200.948 47.1371 199.267 46.4265L198.878 47.3476C200.459 48.0158 201.932 48.943 203.234 50.1045L203.9 49.3584ZM204.597 49.9809L203.9 49.3584L203.234 50.1045L203.932 50.727L204.597 49.9809ZM209.5 60.9265C209.5 56.7461 207.717 52.7642 204.597 49.9809L203.932 50.727C206.838 53.3206 208.5 57.031 208.5 60.9265H209.5ZM204.597 71.872C207.717 69.0887 209.5 65.1069 209.5 60.9265H208.5C208.5 64.8219 206.838 68.5323 203.932 71.1259L204.597 71.872ZM203.9 72.4946L204.597 71.872L203.932 71.1259L203.234 71.7484L203.9 72.4946ZM192.743 76.7489C196.858 76.7489 200.829 75.2346 203.9 72.4946L203.234 71.7484C200.347 74.3249 196.612 75.7489 192.743 75.7489V76.7489ZM188.113 76.7489H192.743V75.7489H188.113V76.7489ZM188.077 75.7502C188.077 75.7503 188.075 75.7503 188.074 75.7503V76.7503C188.099 76.7503 188.124 76.7494 188.149 76.7476L188.077 75.7502ZM188.074 75.7503L141.928 75.7503V76.7503L188.074 76.7503V75.7503ZM141.928 75.7503L141.927 75.7503L141.909 76.7501C141.916 76.7503 141.922 76.7503 141.928 76.7503V75.7503ZM137.257 76.7502H141.918V75.7502H137.257V76.7502ZM126.1 72.4959C129.171 75.2359 133.142 76.7502 137.257 76.7502V75.7502C133.388 75.7502 129.653 74.3263 126.766 71.7498L126.1 72.4959ZM125.403 71.8733L126.1 72.4959L126.766 71.7498L126.068 71.1272L125.403 71.8733ZM120.5 60.9278C120.5 65.1082 122.283 69.09 125.403 71.8733L126.068 71.1272C123.162 68.5336 121.5 64.8232 121.5 60.9278H120.5ZM125.403 49.9822C122.283 52.7655 120.5 56.7474 120.5 60.9278H121.5C121.5 57.0323 123.162 53.3219 126.068 50.7283L125.403 49.9822ZM126.1 49.3597L125.403 49.9822L126.068 50.7283L126.766 50.1058L126.1 49.3597ZM135.522 45.1954C132.037 45.5582 128.736 47.0072 126.1 49.3597L126.766 50.1058C129.245 47.8937 132.348 46.5312 135.626 46.19L135.522 45.1954ZM135.435 44.0633C135.284 44.5741 135.166 45.0909 135.081 45.6115L136.067 45.7739C136.146 45.2937 136.255 44.817 136.394 44.3459L135.435 44.0633ZM142.345 35.8823C138.947 37.633 136.467 40.5598 135.435 44.0633L136.394 44.3459C137.344 41.1197 139.634 38.4042 142.803 36.7712L142.345 35.8823ZM142.947 35.5724L142.345 35.8823L142.803 36.7712L143.405 36.4614L142.947 35.5724ZM154.27 34.323C150.398 33.3796 146.343 33.8226 142.947 35.5724L143.405 36.4614C146.576 34.8275 150.383 34.4052 154.033 35.2945L154.27 34.323ZM157.422 35.4264C156.42 34.9609 155.364 34.5895 154.27 34.323L154.033 35.2945C155.063 35.5456 156.057 35.8953 157 36.3333L157.422 35.4264ZM157.812 34.0311L156.791 35.6082L157.631 36.1515L158.651 34.5743L157.812 34.0311ZM171.581 24.48C165.856 25.8489 160.873 29.2989 157.812 34.0311L158.651 34.5743C161.566 30.0691 166.325 26.7649 171.814 25.4526L171.581 24.48ZM172.271 24.315L171.581 24.48L171.814 25.4526L172.504 25.2875L172.271 24.315ZM187.794 26.0612C183.141 23.6642 177.588 23.0437 172.271 24.315L172.504 25.2875C177.6 24.0691 182.907 24.6683 187.336 26.9502L187.794 26.0612ZM189.415 26.8966L187.794 26.0612L187.336 26.9502L188.957 27.7856L189.415 26.8966Z" fill="black"/>
</g>
<g filter="url(#filter2_d_237_2242)">
<path fill-rule="evenodd" clip-rule="evenodd" d="M299.186 59.3411C303.727 61.6805 307.034 65.5723 308.429 70.2181L308.614 70.8339C309.402 73.4565 309.545 76.2024 309.073 78.8871C310.704 79.5765 312.224 80.5331 313.567 81.7314L314.265 82.354C317.277 85.0424 319 88.8886 319 92.9265C319 96.9644 317.277 100.81 314.265 103.499L313.567 104.122C310.588 106.78 306.735 108.249 302.743 108.249H298.113C298.1 108.25 298.087 108.25 298.074 108.25H251.928C251.925 108.25 251.922 108.25 251.918 108.25H247.257C243.265 108.25 239.412 106.781 236.433 104.123L235.735 103.5C232.723 100.812 231 96.9657 231 92.9278C231 88.8899 232.723 85.0437 235.735 82.3553L236.433 81.7327C238.991 79.4504 242.193 78.0447 245.574 77.6927C245.656 77.1923 245.77 76.6955 245.914 76.2046C246.905 72.8397 249.291 70.0186 252.574 68.3267L253.176 68.0169C256.46 66.3251 260.39 65.8924 264.151 66.8088C265.214 67.0675 266.238 67.4281 267.211 67.8799L268.231 66.3027C271.22 61.684 276.09 58.3069 281.697 56.9663L282.387 56.8013C287.594 55.5564 293.024 56.1662 297.565 58.5057L299.186 59.3411Z" fill="white"/>
<path d="M308.429 70.2181L308.908 70.0743L308.908 70.0743L308.429 70.2181ZM299.186 59.3411L299.415 58.8966L299.415 58.8966L299.186 59.3411ZM308.614 70.8339L308.135 70.9777L308.135 70.9777L308.614 70.8339ZM309.073 78.8871L308.58 78.8005L308.511 79.1926L308.878 79.3476L309.073 78.8871ZM313.567 81.7314L313.234 82.1045L313.234 82.1045L313.567 81.7314ZM314.265 82.354L314.597 81.9809L314.597 81.9809L314.265 82.354ZM314.265 103.499L313.932 103.126L313.932 103.126L314.265 103.499ZM313.567 104.122L313.9 104.495L313.9 104.495L313.567 104.122ZM298.113 108.249V107.749H298.095L298.077 107.75L298.113 108.249ZM251.918 108.25L251.927 107.75H251.918V108.25ZM236.433 104.123L236.766 103.75L236.766 103.75L236.433 104.123ZM235.735 103.5L235.403 103.873L235.403 103.873L235.735 103.5ZM235.735 82.3553L236.068 82.7283L236.068 82.7283L235.735 82.3553ZM236.433 81.7327L236.1 81.3597L236.1 81.3597L236.433 81.7327ZM245.574 77.6927L245.626 78.19L246.005 78.1505L246.067 77.7739L245.574 77.6927ZM245.914 76.2046L245.435 76.0633L245.435 76.0633L245.914 76.2046ZM252.574 68.3267L252.345 67.8823L252.345 67.8823L252.574 68.3267ZM253.176 68.0169L253.405 68.4614L253.405 68.4614L253.176 68.0169ZM264.151 66.8088L264.033 67.2945L264.033 67.2945L264.151 66.8088ZM267.211 67.8799L267 68.3333L267.395 68.5165L267.631 68.1515L267.211 67.8799ZM268.231 66.3027L267.812 66.0311L267.812 66.0311L268.231 66.3027ZM281.697 56.9663L281.581 56.48L281.581 56.48L281.697 56.9663ZM282.387 56.8013L282.504 57.2875L282.504 57.2875L282.387 56.8013ZM297.565 58.5057L297.336 58.9502L297.336 58.9502L297.565 58.5057ZM308.908 70.0743C307.472 65.291 304.07 61.2945 299.415 58.8966L298.957 59.7856C303.385 62.0665 306.597 65.8536 307.95 70.3619L308.908 70.0743ZM309.093 70.6901L308.908 70.0743L307.95 70.3619L308.135 70.9777L309.093 70.6901ZM309.565 78.9737C310.051 76.2144 309.904 73.3894 309.093 70.6901L308.135 70.9777C308.9 73.5235 309.039 76.1905 308.58 78.8005L309.565 78.9737ZM313.9 81.3584C312.516 80.1232 310.948 79.1371 309.267 78.4265L308.878 79.3476C310.459 80.0158 311.932 80.943 313.234 82.1045L313.9 81.3584ZM314.597 81.9809L313.9 81.3584L313.234 82.1045L313.932 82.727L314.597 81.9809ZM319.5 92.9265C319.5 88.7461 317.717 84.7642 314.597 81.9809L313.932 82.727C316.838 85.3206 318.5 89.031 318.5 92.9265H319.5ZM314.597 103.872C317.717 101.089 319.5 97.1069 319.5 92.9265H318.5C318.5 96.8219 316.838 100.532 313.932 103.126L314.597 103.872ZM313.9 104.495L314.597 103.872L313.932 103.126L313.234 103.748L313.9 104.495ZM302.743 108.749C306.858 108.749 310.829 107.235 313.9 104.495L313.234 103.748C310.347 106.325 306.612 107.749 302.743 107.749V108.749ZM298.113 108.749H302.743V107.749H298.113V108.749ZM298.077 107.75C298.077 107.75 298.075 107.75 298.074 107.75V108.75C298.099 108.75 298.124 108.749 298.149 108.748L298.077 107.75ZM298.074 107.75H251.928V108.75H298.074V107.75ZM251.928 107.75L251.927 107.75L251.909 108.75C251.916 108.75 251.922 108.75 251.928 108.75V107.75ZM247.257 108.75H251.918V107.75H247.257V108.75ZM236.1 104.496C239.171 107.236 243.142 108.75 247.257 108.75V107.75C243.388 107.75 239.653 106.326 236.766 103.75L236.1 104.496ZM235.403 103.873L236.1 104.496L236.766 103.75L236.068 103.127L235.403 103.873ZM230.5 92.9278C230.5 97.1082 232.283 101.09 235.403 103.873L236.068 103.127C233.162 100.534 231.5 96.8232 231.5 92.9278H230.5ZM235.403 81.9822C232.283 84.7655 230.5 88.7474 230.5 92.9278H231.5C231.5 89.0323 233.162 85.3219 236.068 82.7283L235.403 81.9822ZM236.1 81.3597L235.403 81.9822L236.068 82.7283L236.766 82.1058L236.1 81.3597ZM245.522 77.1954C242.037 77.5582 238.736 79.0072 236.1 81.3597L236.766 82.1058C239.245 79.8937 242.348 78.5312 245.626 78.19L245.522 77.1954ZM245.435 76.0633C245.284 76.5741 245.166 77.0909 245.081 77.6115L246.067 77.7739C246.146 77.2937 246.255 76.817 246.394 76.3459L245.435 76.0633ZM252.345 67.8823C248.947 69.633 246.467 72.5598 245.435 76.0633L246.394 76.3459C247.344 73.1197 249.634 70.4042 252.803 68.7712L252.345 67.8823ZM252.947 67.5724L252.345 67.8823L252.803 68.7712L253.405 68.4614L252.947 67.5724ZM264.27 66.323C260.398 65.3796 256.343 65.8226 252.947 67.5724L253.405 68.4614C256.576 66.8275 260.383 66.4052 264.033 67.2945L264.27 66.323ZM267.422 67.4264C266.42 66.9609 265.364 66.5895 264.27 66.323L264.033 67.2945C265.063 67.5456 266.057 67.8953 267 68.3333L267.422 67.4264ZM267.812 66.0311L266.791 67.6082L267.631 68.1515L268.651 66.5743L267.812 66.0311ZM281.581 56.48C275.856 57.8489 270.873 61.2989 267.812 66.0311L268.651 66.5743C271.566 62.0691 276.325 58.7649 281.814 57.4526L281.581 56.48ZM282.271 56.315L281.581 56.48L281.814 57.4526L282.504 57.2875L282.271 56.315ZM297.794 58.0612C293.141 55.6642 287.588 55.0437 282.271 56.315L282.504 57.2875C287.6 56.0691 292.907 56.6683 297.336 58.9502L297.794 58.0612ZM299.415 58.8966L297.794 58.0612L297.336 58.9502L298.957 59.7856L299.415 58.8966Z" fill="black"/>
</g>
<g filter="url(#filter3_d_237_2242)">
<path fill-rule="evenodd" clip-rule="evenodd" d="M398.186 27.3411C402.727 29.6805 406.034 33.5723 407.429 38.2181L407.614 38.8339C408.402 41.4565 408.545 44.2024 408.073 46.8871C409.704 47.5765 411.224 48.5331 412.567 49.7314L413.265 50.354C416.277 53.0424 418 56.8886 418 60.9265C418 64.9644 416.277 68.8105 413.265 71.499L412.567 72.1215C409.588 74.7798 405.735 76.2489 401.743 76.2489H397.113C397.1 76.2498 397.087 76.2503 397.074 76.2503H350.928C350.925 76.2503 350.922 76.2503 350.918 76.2502H346.257C342.265 76.2502 338.412 74.7811 335.433 72.1228L334.735 71.5003C331.723 68.8118 330 64.9657 330 60.9278C330 56.8899 331.723 53.0437 334.735 50.3553L335.433 49.7327C337.991 47.4504 341.193 46.0447 344.574 45.6927C344.656 45.1923 344.77 44.6955 344.914 44.2046C345.905 40.8397 348.291 38.0186 351.574 36.3267L352.176 36.0169C355.46 34.3251 359.39 33.8924 363.151 34.8088C364.214 35.0675 365.238 35.4281 366.211 35.8799L367.231 34.3027C370.22 29.684 375.09 26.3069 380.697 24.9663L381.387 24.8013C386.594 23.5564 392.024 24.1662 396.565 26.5057L398.186 27.3411Z" fill="white"/>
<path d="M407.429 38.2181L407.908 38.0743L407.908 38.0743L407.429 38.2181ZM398.186 27.3411L398.415 26.8966L398.415 26.8966L398.186 27.3411ZM407.614 38.8339L407.135 38.9777L407.135 38.9777L407.614 38.8339ZM408.073 46.8871L407.58 46.8005L407.511 47.1926L407.878 47.3476L408.073 46.8871ZM412.567 49.7314L412.234 50.1045L412.234 50.1045L412.567 49.7314ZM413.265 50.354L413.597 49.9809L413.597 49.9809L413.265 50.354ZM413.265 71.499L412.932 71.1259L412.932 71.1259L413.265 71.499ZM412.567 72.1215L412.9 72.4946L412.9 72.4946L412.567 72.1215ZM397.113 76.2489V75.7489H397.095L397.077 75.7502L397.113 76.2489ZM350.918 76.2502L350.927 75.7502H350.918V76.2502ZM335.433 72.1228L335.766 71.7498L335.766 71.7498L335.433 72.1228ZM334.735 71.5003L334.403 71.8733L334.403 71.8733L334.735 71.5003ZM334.735 50.3553L335.068 50.7283L335.068 50.7283L334.735 50.3553ZM335.433 49.7327L335.1 49.3597L335.1 49.3597L335.433 49.7327ZM344.574 45.6927L344.626 46.19L345.005 46.1505L345.067 45.7739L344.574 45.6927ZM344.914 44.2046L344.435 44.0633L344.435 44.0633L344.914 44.2046ZM351.574 36.3267L351.345 35.8823L351.345 35.8823L351.574 36.3267ZM352.176 36.0169L352.405 36.4614L352.405 36.4614L352.176 36.0169ZM363.151 34.8088L363.033 35.2945L363.033 35.2945L363.151 34.8088ZM366.211 35.8799L366 36.3333L366.395 36.5165L366.631 36.1515L366.211 35.8799ZM367.231 34.3027L366.812 34.0311L366.812 34.0311L367.231 34.3027ZM380.697 24.9663L380.581 24.48L380.581 24.48L380.697 24.9663ZM381.387 24.8013L381.504 25.2875L381.504 25.2875L381.387 24.8013ZM396.565 26.5057L396.336 26.9502L396.336 26.9502L396.565 26.5057ZM407.908 38.0743C406.472 33.291 403.07 29.2945 398.415 26.8966L397.957 27.7856C402.385 30.0665 405.597 33.8536 406.95 38.3619L407.908 38.0743ZM408.093 38.6901L407.908 38.0743L406.95 38.3619L407.135 38.9777L408.093 38.6901ZM408.565 46.9737C409.051 44.2144 408.904 41.3894 408.093 38.6901L407.135 38.9777C407.9 41.5235 408.039 44.1905 407.58 46.8005L408.565 46.9737ZM412.9 49.3584C411.516 48.1232 409.948 47.1371 408.267 46.4265L407.878 47.3476C409.459 48.0158 410.932 48.943 412.234 50.1045L412.9 49.3584ZM413.597 49.9809L412.9 49.3584L412.234 50.1045L412.932 50.727L413.597 49.9809ZM418.5 60.9265C418.5 56.7461 416.717 52.7642 413.597 49.9809L412.932 50.727C415.838 53.3206 417.5 57.031 417.5 60.9265H418.5ZM413.597 71.872C416.717 69.0887 418.5 65.1069 418.5 60.9265H417.5C417.5 64.8219 415.838 68.5323 412.932 71.1259L413.597 71.872ZM412.9 72.4946L413.597 71.872L412.932 71.1259L412.234 71.7484L412.9 72.4946ZM401.743 76.7489C405.858 76.7489 409.829 75.2346 412.9 72.4946L412.234 71.7484C409.347 74.3249 405.612 75.7489 401.743 75.7489V76.7489ZM397.113 76.7489H401.743V75.7489H397.113V76.7489ZM397.077 75.7502C397.077 75.7503 397.075 75.7503 397.074 75.7503V76.7503C397.099 76.7503 397.124 76.7494 397.149 76.7476L397.077 75.7502ZM397.074 75.7503H350.928V76.7503H397.074V75.7503ZM350.928 75.7503L350.927 75.7503L350.909 76.7501C350.916 76.7503 350.922 76.7503 350.928 76.7503V75.7503ZM346.257 76.7502H350.918V75.7502H346.257V76.7502ZM335.1 72.4959C338.171 75.2359 342.142 76.7502 346.257 76.7502V75.7502C342.388 75.7502 338.653 74.3263 335.766 71.7498L335.1 72.4959ZM334.403 71.8733L335.1 72.4959L335.766 71.7498L335.068 71.1272L334.403 71.8733ZM329.5 60.9278C329.5 65.1082 331.283 69.09 334.403 71.8733L335.068 71.1272C332.162 68.5336 330.5 64.8232 330.5 60.9278H329.5ZM334.403 49.9822C331.283 52.7655 329.5 56.7474 329.5 60.9278H330.5C330.5 57.0323 332.162 53.3219 335.068 50.7283L334.403 49.9822ZM335.1 49.3597L334.403 49.9822L335.068 50.7283L335.766 50.1058L335.1 49.3597ZM344.522 45.1954C341.037 45.5582 337.736 47.0072 335.1 49.3597L335.766 50.1058C338.245 47.8937 341.348 46.5312 344.626 46.19L344.522 45.1954ZM344.435 44.0633C344.284 44.5741 344.166 45.0909 344.081 45.6115L345.067 45.7739C345.146 45.2937 345.255 44.817 345.394 44.3459L344.435 44.0633ZM351.345 35.8823C347.947 37.633 345.467 40.5598 344.435 44.0633L345.394 44.3459C346.344 41.1197 348.634 38.4042 351.803 36.7712L351.345 35.8823ZM351.947 35.5724L351.345 35.8823L351.803 36.7712L352.405 36.4614L351.947 35.5724ZM363.27 34.323C359.398 33.3796 355.343 33.8226 351.947 35.5724L352.405 36.4614C355.576 34.8275 359.383 34.4052 363.033 35.2945L363.27 34.323ZM366.422 35.4264C365.42 34.9609 364.364 34.5895 363.27 34.323L363.033 35.2945C364.063 35.5456 365.057 35.8953 366 36.3333L366.422 35.4264ZM366.812 34.0311L365.791 35.6082L366.631 36.1515L367.651 34.5743L366.812 34.0311ZM380.581 24.48C374.856 25.8489 369.873 29.2989 366.812 34.0311L367.651 34.5743C370.566 30.0691 375.325 26.7649 380.814 25.4526L380.581 24.48ZM381.271 24.315L380.581 24.48L380.814 25.4526L381.504 25.2875L381.271 24.315ZM396.794 26.0612C392.141 23.6642 386.588 23.0437 381.271 24.315L381.504 25.2875C386.6 24.0691 391.907 24.6683 396.336 26.9502L396.794 26.0612ZM398.415 26.8966L396.794 26.0612L396.336 26.9502L397.957 27.7856L398.415 26.8966Z" fill="black"/>
</g>
<defs>
<filter id="filter0_d_237_2242" x="-4" y="32" width="118" height="108" filterUnits="userSpaceOnUse" color-interpolation-filters="sRGB">
<feFlood flood-opacity="0" result="BackgroundImageFix"/>
<feColorMatrix in="SourceAlpha" type="matrix" values="0 0 0 0 0 0 0 0 0 0 0 0 0 0 0 0 0 0 127 0" result="hardAlpha"/>
<feOffset dy="4"/>
<feGaussianBlur stdDeviation="2"/>
<feComposite in2="hardAlpha" operator="out"/>
<feColorMatrix type="matrix" values="0 0 0 0 0 0 0 0 0 0 0 0 0 0 0 0 0 0 0.25 0"/>
<feBlend mode="normal" in2="BackgroundImageFix" result="effect1_dropShadow_237_2242"/>
<feBlend mode="normal" in="SourceGraphic" in2="effect1_dropShadow_237_2242" result="shape"/>
</filter>
<filter id="filter1_d_237_2242" x="106" y="0" width="118" height="108" filterUnits="userSpaceOnUse" color-interpolation-filters="sRGB">
<feFlood flood-opacity="0" result="BackgroundImageFix"/>
<feColorMatrix in="SourceAlpha" type="matrix" values="0 0 0 0 0 0 0 0 0 0 0 0 0 0 0 0 0 0 127 0" result="hardAlpha"/>
<feOffset dy="4"/>
<feGaussianBlur stdDeviation="2"/>
<feComposite in2="hardAlpha" operator="out"/>
<feColorMatrix type="matrix" values="0 0 0 0 0 0 0 0 0 0 0 0 0 0 0 0 0 0 0.25 0"/>
<feBlend mode="normal" in2="BackgroundImageFix" result="effect1_dropShadow_237_2242"/>
<feBlend mode="normal" in="SourceGraphic" in2="effect1_dropShadow_237_2242" result="shape"/>
</filter>
<filter id="filter2_d_237_2242" x="216" y="32" width="118" height="108" filterUnits="userSpaceOnUse" color-interpolation-filters="sRGB">
<feFlood flood-opacity="0" result="BackgroundImageFix"/>
<feColorMatrix in="SourceAlpha" type="matrix" values="0 0 0 0 0 0 0 0 0 0 0 0 0 0 0 0 0 0 127 0" result="hardAlpha"/>
<feOffset dy="4"/>
<feGaussianBlur stdDeviation="2"/>
<feComposite in2="hardAlpha" operator="out"/>
<feColorMatrix type="matrix" values="0 0 0 0 0 0 0 0 0 0 0 0 0 0 0 0 0 0 0.25 0"/>
<feBlend mode="normal" in2="BackgroundImageFix" result="effect1_dropShadow_237_2242"/>
<feBlend mode="normal" in="SourceGraphic" in2="effect1_dropShadow_237_2242" result="shape"/>
</filter>
<filter id="filter3_d_237_2242" x="315" y="0" width="118" height="108" filterUnits="userSpaceOnUse" color-interpolation-filters="sRGB">
<feFlood flood-opacity="0" result="BackgroundImageFix"/>
<feColorMatrix in="SourceAlpha" type="matrix" values="0 0 0 0 0 0 0 0 0 0 0 0 0 0 0 0 0 0 127 0" result="hardAlpha"/>
<feOffset dy="4"/>
<feGaussianBlur stdDeviation="2"/>
<feComposite in2="hardAlpha" operator="out"/>
<feColorMatrix type="matrix" values="0 0 0 0 0 0 0 0 0 0 0 0 0 0 0 0 0 0 0.25 0"/>
<feBlend mode="normal" in2="BackgroundImageFix" result="effect1_dropShadow_237_2242"/>
<feBlend mode="normal" in="SourceGraphic" in2="effect1_dropShadow_237_2242" result="shape"/>
</filter>
</defs>
</svg>
