<svg width="899" height="132" viewBox="0 0 899 132" fill="none" xmlns="http://www.w3.org/2000/svg">
<g filter="url(#filter0_d_267_1713)">
<path fill-rule="evenodd" clip-rule="evenodd" d="M79.1864 27.3411C83.7272 29.6805 87.0342 33.5723 88.4292 38.2181L88.6142 38.8339C89.4016 41.4565 89.545 44.2024 89.0728 46.8871C90.7036 47.5765 92.2241 48.5331 93.5669 49.7314L94.2645 50.354C97.2773 53.0424 99 56.8886 99 60.9265C99 64.9644 97.2773 68.8105 94.2645 71.499L93.5669 72.1215C90.588 74.7798 86.7351 76.2489 82.7425 76.2489H78.1133C78.1004 76.2498 78.0874 76.2503 78.0743 76.2503H31.9279C31.9247 76.2503 31.9215 76.2503 31.9184 76.2502H27.2575C23.2649 76.2502 19.412 74.7811 16.4331 72.1228L15.7355 71.5003C12.7227 68.8118 11 64.9657 11 60.9278C11 56.8899 12.7227 53.0437 15.7355 50.3553L16.4331 49.7327C18.9907 47.4504 22.1926 46.0447 25.5739 45.6927C25.6562 45.1923 25.7695 44.6955 25.9142 44.2046C26.9055 40.8397 29.2906 38.0186 32.5744 36.3267L33.1758 36.0169C36.4597 34.3251 40.3901 33.8924 44.1513 34.8088C45.2136 35.0675 46.2385 35.4281 47.211 35.8799L48.2314 34.3027C51.2197 29.684 56.0904 26.3069 61.6973 24.9663L62.3875 24.8013C67.5937 23.5564 73.0241 24.1662 77.5649 26.5057L79.1864 27.3411Z" fill="white"/>
<path d="M88.4292 38.2181L88.9081 38.0743L88.9081 38.0743L88.4292 38.2181ZM79.1864 27.3411L79.4154 26.8966L79.4154 26.8966L79.1864 27.3411ZM88.6142 38.8339L88.1353 38.9777L88.1353 38.9777L88.6142 38.8339ZM89.0728 46.8871L88.5804 46.8005L88.5114 47.1926L88.8781 47.3476L89.0728 46.8871ZM93.5669 49.7314L93.234 50.1045L93.234 50.1045L93.5669 49.7314ZM94.2645 50.354L94.5974 49.9809L94.5974 49.9809L94.2645 50.354ZM94.2645 71.499L93.9316 71.1259L93.9316 71.1259L94.2645 71.499ZM93.5669 72.1215L93.8998 72.4946L93.8998 72.4946L93.5669 72.1215ZM78.1133 76.2489V75.7489H78.0953L78.0774 75.7502L78.1133 76.2489ZM31.9184 76.2502L31.9273 75.7502H31.9184V76.2502ZM16.4331 72.1228L16.766 71.7498L16.766 71.7498L16.4331 72.1228ZM15.7355 71.5003L15.4026 71.8733L15.4026 71.8733L15.7355 71.5003ZM15.7355 50.3553L16.0684 50.7283L16.0684 50.7283L15.7355 50.3553ZM16.4331 49.7327L16.1002 49.3597L16.1002 49.3597L16.4331 49.7327ZM25.5739 45.6927L25.6257 46.19L26.0053 46.1505L26.0673 45.7739L25.5739 45.6927ZM25.9142 44.2046L25.4346 44.0633L25.4346 44.0633L25.9142 44.2046ZM32.5744 36.3267L32.3454 35.8823L32.3454 35.8823L32.5744 36.3267ZM33.1758 36.0169L33.4048 36.4614L33.4048 36.4614L33.1758 36.0169ZM44.1513 34.8088L44.033 35.2945L44.033 35.2945L44.1513 34.8088ZM47.211 35.8799L47.0004 36.3333L47.3946 36.5165L47.6308 36.1515L47.211 35.8799ZM48.2314 34.3027L47.8116 34.0311L47.8116 34.0311L48.2314 34.3027ZM61.6973 24.9663L61.5811 24.48L61.5811 24.48L61.6973 24.9663ZM62.3875 24.8013L62.5037 25.2875L62.5037 25.2875L62.3875 24.8013ZM77.5649 26.5057L77.3359 26.9502L77.3359 26.9502L77.5649 26.5057ZM88.9081 38.0743C87.4718 33.291 84.0697 29.2945 79.4154 26.8966L78.9574 27.7856C83.3847 30.0665 86.5967 33.8536 87.9504 38.3619L88.9081 38.0743ZM89.093 38.6901L88.9081 38.0743L87.9504 38.3619L88.1353 38.9777L89.093 38.6901ZM89.5653 46.9737C90.0506 44.2144 89.9035 41.3894 89.093 38.6901L88.1353 38.9777C88.8997 41.5235 89.0394 44.1905 88.5804 46.8005L89.5653 46.9737ZM93.8998 49.3584C92.5157 48.1232 90.9484 47.1371 89.2675 46.4265L88.8781 47.3476C90.4588 48.0158 91.9324 48.943 93.234 50.1045L93.8998 49.3584ZM94.5974 49.9809L93.8998 49.3584L93.234 50.1045L93.9316 50.727L94.5974 49.9809ZM99.5 60.9265C99.5 56.7461 97.7165 52.7642 94.5974 49.9809L93.9316 50.727C96.8381 53.3206 98.5 57.031 98.5 60.9265H99.5ZM94.5974 71.872C97.7165 69.0887 99.5 65.1069 99.5 60.9265H98.5C98.5 64.8219 96.8381 68.5323 93.9316 71.1259L94.5974 71.872ZM93.8998 72.4946L94.5974 71.872L93.9316 71.1259L93.234 71.7484L93.8998 72.4946ZM82.7425 76.7489C86.8578 76.7489 90.8293 75.2346 93.8998 72.4946L93.234 71.7484C90.3467 74.3249 86.6123 75.7489 82.7425 75.7489V76.7489ZM78.1133 76.7489H82.7425V75.7489H78.1133V76.7489ZM78.0774 75.7502C78.0765 75.7503 78.0755 75.7503 78.0743 75.7503V76.7503C78.0993 76.7503 78.1243 76.7494 78.1492 76.7476L78.0774 75.7502ZM78.0743 75.7503H31.9279V76.7503H78.0743V75.7503ZM31.9279 75.7503L31.9273 75.7503L31.9094 76.7501C31.9158 76.7503 31.922 76.7503 31.9279 76.7503V75.7503ZM27.2575 76.7502H31.9184V75.7502H27.2575V76.7502ZM16.1002 72.4959C19.1707 75.2359 23.1421 76.7502 27.2575 76.7502V75.7502C23.3877 75.7502 19.6533 74.3263 16.766 71.7498L16.1002 72.4959ZM15.4026 71.8733L16.1002 72.4959L16.766 71.7498L16.0684 71.1272L15.4026 71.8733ZM10.5 60.9278C10.5 65.1082 12.2835 69.09 15.4026 71.8733L16.0684 71.1272C13.1619 68.5336 11.5 64.8232 11.5 60.9278H10.5ZM15.4026 49.9822C12.2835 52.7655 10.5 56.7474 10.5 60.9278H11.5C11.5 57.0323 13.1619 53.3219 16.0684 50.7283L15.4026 49.9822ZM16.1002 49.3597L15.4026 49.9822L16.0684 50.7283L16.766 50.1058L16.1002 49.3597ZM25.5221 45.1954C22.0368 45.5582 18.7365 47.0072 16.1002 49.3597L16.766 50.1058C19.2449 47.8937 22.3483 46.5312 25.6257 46.19L25.5221 45.1954ZM25.4346 44.0633C25.2841 44.5741 25.1662 45.0909 25.0805 45.6115L26.0673 45.7739C26.1463 45.2937 26.255 44.817 26.3938 44.3459L25.4346 44.0633ZM32.3454 35.8823C28.9474 37.633 26.4667 40.5598 25.4346 44.0633L26.3938 44.3459C27.3443 41.1197 29.6338 38.4042 32.8034 36.7712L32.3454 35.8823ZM32.9468 35.5724L32.3454 35.8823L32.8034 36.7712L33.4048 36.4614L32.9468 35.5724ZM44.2697 34.323C40.3976 33.3796 36.3432 33.8226 32.9468 35.5724L33.4048 36.4614C36.5761 34.8275 40.3826 34.4052 44.033 35.2945L44.2697 34.323ZM47.4217 35.4264C46.4196 34.9609 45.3638 34.5895 44.2697 34.323L44.033 35.2945C45.0633 35.5456 46.0574 35.8953 47.0004 36.3333L47.4217 35.4264ZM47.8116 34.0311L46.7912 35.6082L47.6308 36.1515L48.6512 34.5743L47.8116 34.0311ZM61.5811 24.48C55.8557 25.8489 50.8733 29.2989 47.8116 34.0311L48.6512 34.5743C51.5661 30.0691 56.3251 26.7649 61.8136 25.4526L61.5811 24.48ZM62.2712 24.315L61.5811 24.48L61.8136 25.4526L62.5037 25.2875L62.2712 24.315ZM77.7939 26.0612C73.1413 23.6642 67.5877 23.0437 62.2712 24.315L62.5037 25.2875C67.5996 24.0691 72.9069 24.6683 77.3359 26.9502L77.7939 26.0612ZM79.4154 26.8966L77.7939 26.0612L77.3359 26.9502L78.9574 27.7856L79.4154 26.8966Z" fill="black"/>
</g>
<path d="M802.075 29.8893L803.268 31.4945C803.703 31.1716 803.988 30.6865 804.058 30.1499C804.129 29.6133 803.979 29.071 803.642 28.6469L802.075 29.8893ZM791.015 15.9364L792.582 14.694C791.897 13.8304 790.643 13.6833 789.777 14.3652C788.911 15.047 788.76 16.3008 789.439 17.1688L791.015 15.9364ZM801.986 29.9596L800.411 31.192C800.744 31.6185 801.237 31.8915 801.775 31.9485C802.314 32.0055 802.853 31.8417 803.268 31.4945L801.986 29.9596ZM784.331 52.5031L786.23 53.129C786.4 52.6154 786.354 52.055 786.103 51.5758C785.852 51.0966 785.418 50.7394 784.9 50.5856L784.331 52.5031ZM766.405 47.1864L766.973 45.269C765.916 44.9556 764.805 45.5563 764.489 46.6122C764.172 47.668 764.77 48.7809 765.825 49.1005L766.405 47.1864ZM784.3 52.6077L783.72 54.5218C784.237 54.6786 784.797 54.619 785.27 54.3566C785.743 54.0942 786.089 53.6514 786.23 53.1291L784.3 52.6077ZM784.3 80.3923L786.23 79.871C786.089 79.3487 785.743 78.9058 785.27 78.6434C784.797 78.381 784.237 78.3214 783.72 78.4782L784.3 80.3923ZM766.405 85.8136L765.825 83.8995C764.77 84.2191 764.172 85.332 764.489 86.3878C764.805 87.4437 765.916 88.0444 766.973 87.731L766.405 85.8136ZM784.331 80.4969L784.9 82.4144C785.418 82.2606 785.852 81.9034 786.103 81.4242C786.354 80.945 786.4 80.3847 786.23 79.871L784.331 80.4969ZM801.986 103.04L803.268 101.506C802.853 101.158 802.314 100.994 801.775 101.052C801.237 101.109 800.744 101.381 800.411 101.808L801.986 103.04ZM791.015 117.064L789.439 115.831C788.76 116.699 788.911 117.953 789.777 118.635C790.643 119.317 791.897 119.17 792.582 118.306L791.015 117.064ZM802.075 103.111L803.642 104.353C803.979 103.929 804.129 103.387 804.058 102.85C803.988 102.314 803.703 101.828 803.268 101.506L802.075 103.111ZM830.776 111.768L830.836 109.769C830.294 109.753 829.769 109.957 829.381 110.336C828.993 110.714 828.775 111.233 828.776 111.775L830.776 111.768ZM830.835 129L828.835 129.007C828.838 130.109 829.733 131 830.835 131C831.937 131 832.831 130.109 832.835 129.007L830.835 129ZM830.893 111.768L832.893 111.775C832.895 111.234 832.677 110.715 832.289 110.337C831.902 109.959 831.377 109.754 830.836 109.769L830.893 111.768ZM859.595 103.112L858.404 101.506C857.969 101.828 857.683 102.313 857.612 102.85C857.541 103.387 857.691 103.93 858.028 104.354L859.595 103.112ZM870.655 117.064L869.087 118.306C869.772 119.17 871.026 119.317 871.892 118.635C872.758 117.953 872.909 116.699 872.23 115.831L870.655 117.064ZM859.684 103.042L861.26 101.809C860.926 101.383 860.434 101.11 859.896 101.053C859.358 100.996 858.819 101.159 858.404 101.506L859.684 103.042ZM877.341 80.4976L875.441 79.8711C875.272 80.3848 875.318 80.9452 875.568 81.4246C875.819 81.9039 876.253 82.2612 876.772 82.4151L877.341 80.4976ZM895.265 85.8136L894.696 87.731C895.753 88.0444 896.864 87.4437 897.181 86.3878C897.497 85.332 896.9 84.2191 895.845 83.8995L895.265 85.8136ZM877.372 80.393L877.952 78.4789C877.434 78.3221 876.875 78.3817 876.402 78.6439C875.929 78.9062 875.583 79.3488 875.441 79.8709L877.372 80.393ZM877.372 52.607L875.441 53.1292C875.583 53.6512 875.929 54.0939 876.402 54.3561C876.875 54.6184 877.434 54.6779 877.952 54.5211L877.372 52.607ZM895.265 47.1864L895.845 49.1005C896.9 48.7809 897.497 47.668 897.181 46.6122C896.864 45.5563 895.753 44.9556 894.696 45.269L895.265 47.1864ZM877.341 52.5024L876.772 50.5849C876.253 50.7387 875.819 51.0961 875.568 51.5754C875.318 52.0547 875.272 52.6152 875.441 53.1289L877.341 52.5024ZM859.684 29.9583L858.404 31.4944C858.819 31.841 859.358 32.0043 859.896 31.9471C860.434 31.8899 860.926 31.617 861.26 31.1907L859.684 29.9583ZM870.655 15.9364L872.23 17.1688C872.909 16.3008 872.758 15.047 871.892 14.3652C871.026 13.6833 869.772 13.8304 869.087 14.694L870.655 15.9364ZM859.595 29.8881L858.028 28.6457C857.691 29.0701 857.541 29.6128 857.612 30.1497C857.683 30.6867 857.969 31.1719 858.404 31.4945L859.595 29.8881ZM830.893 21.2316L830.836 23.2308C831.377 23.2462 831.902 23.0415 832.289 22.6635C832.677 22.2854 832.895 21.7663 832.893 21.2248L830.893 21.2316ZM830.835 4L832.835 3.99324C832.831 2.89131 831.937 2 830.835 2C829.733 2 828.838 2.89131 828.835 3.99324L830.835 4ZM830.776 21.2317L828.776 21.2249C828.775 21.7668 828.993 22.2863 829.381 22.6644C829.769 23.0425 830.294 23.2469 830.836 23.2308L830.776 21.2317ZM803.642 28.6469L792.582 14.694L789.447 17.1788L800.508 31.1317L803.642 28.6469ZM789.439 17.1688L800.411 31.192L803.561 28.7272L792.59 14.7041L789.439 17.1688ZM803.268 31.4945L803.268 31.4945L800.882 28.2841C800.821 28.3293 800.762 28.3762 800.704 28.4248L803.268 31.4945ZM784.9 50.5856L766.973 45.269L765.836 49.1039L783.762 54.4205L784.9 50.5856ZM765.825 49.1005L783.72 54.5218L784.879 50.6936L766.984 45.2723L765.825 49.1005ZM786.23 53.1291L786.23 53.129L782.431 51.8771C782.409 51.9462 782.388 52.0159 782.369 52.0863L786.23 53.1291ZM783.72 78.4782L765.825 83.8995L766.984 87.7277L784.879 82.3064L783.72 78.4782ZM766.973 87.731L784.9 82.4144L783.762 78.5795L765.836 83.8961L766.973 87.731ZM786.23 79.871L786.23 79.871L782.369 80.9137C782.388 80.9841 782.409 81.0538 782.431 81.1228L786.23 79.871ZM800.411 101.808L789.439 115.831L792.59 118.296L803.561 104.273L800.411 101.808ZM792.582 118.306L803.642 104.353L800.508 101.868L789.447 115.821L792.582 118.306ZM803.268 101.506L803.268 101.506L800.704 104.575C800.762 104.624 800.821 104.671 800.882 104.716L803.268 101.506ZM828.776 111.775L828.835 129.007L832.835 128.993L832.776 111.762L828.776 111.775ZM832.835 129.007L832.893 111.775L828.893 111.762L828.835 128.993L832.835 129.007ZM830.836 109.769L830.836 109.769L830.717 113.767C830.795 113.77 830.872 113.77 830.95 113.768L830.836 109.769ZM858.028 104.354L869.087 118.306L872.222 115.821L861.162 101.869L858.028 104.354ZM872.23 115.831L861.26 101.809L858.109 104.274L869.079 118.296L872.23 115.831ZM858.404 101.506L858.404 101.506L860.787 104.718C860.847 104.673 860.907 104.626 860.965 104.578L858.404 101.506ZM876.772 82.4151L894.696 87.731L895.833 83.8961L877.909 78.5802L876.772 82.4151ZM895.845 83.8995L877.952 78.4789L876.792 82.3071L894.685 87.7277L895.845 83.8995ZM875.441 79.8709L875.441 79.8711L879.24 81.1242C879.263 81.0552 879.284 80.9855 879.303 80.9152L875.441 79.8709ZM877.952 54.5211L895.845 49.1005L894.685 45.2723L876.792 50.6929L877.952 54.5211ZM894.696 45.269L876.772 50.5849L877.909 54.4198L895.833 49.1039L894.696 45.269ZM875.441 53.1289L875.441 53.1292L879.303 52.0847C879.284 52.0142 879.263 51.9446 879.24 51.8759L875.441 53.1289ZM861.26 31.1907L872.23 17.1688L869.079 14.7041L858.109 28.7259L861.26 31.1907ZM869.087 14.694L858.028 28.6457L861.162 31.1305L872.222 17.1788L869.087 14.694ZM858.404 31.4945L858.404 31.4944L860.965 28.4222C860.907 28.3738 860.847 28.3269 860.786 28.2817L858.404 31.4945ZM832.893 21.2248L832.835 3.99324L828.835 4.00676L828.893 21.2383L832.893 21.2248ZM828.835 3.99324L828.776 21.2249L832.776 21.2384L832.835 4.00676L828.835 3.99324ZM830.836 23.2308L830.836 23.2308L830.95 19.2324C830.872 19.2302 830.794 19.2302 830.717 19.2325L830.836 23.2308Z" fill="#EB5757"/>
<path d="M827.389 38.6867C829.637 38.0129 832.033 38.0129 834.28 38.6867L845.579 42.0735C847.944 42.7825 850.033 44.2039 851.561 46.1438L857.999 54.3195C859.666 56.4355 860.572 59.0505 860.572 61.7439V71.256C860.572 73.9494 859.666 76.5645 857.999 78.6804L851.561 86.8562C850.033 88.7961 847.944 90.2174 845.579 90.9264L834.28 94.3132C832.033 94.987 829.637 94.987 827.389 94.3132L816.091 90.9264C813.725 90.2174 811.636 88.7961 810.109 86.8562L803.67 78.6804C802.004 76.5645 801.098 73.9494 801.098 71.256V61.7439C801.098 59.0505 802.004 56.4355 803.67 54.3195L810.109 46.1438C811.636 44.2039 813.725 42.7825 816.091 42.0735L827.389 38.6867Z" fill="#F2C94C" stroke="#F2C94C" stroke-width="4" stroke-linecap="square" stroke-linejoin="round"/>
<g filter="url(#filter1_d_267_1713)">
<path fill-rule="evenodd" clip-rule="evenodd" d="M409.186 59.3411C413.727 61.6805 417.034 65.5723 418.429 70.2181L418.614 70.8339C419.402 73.4565 419.545 76.2024 419.073 78.8871C420.704 79.5765 422.224 80.5331 423.567 81.7314L424.265 82.354C427.277 85.0424 429 88.8886 429 92.9265C429 96.9644 427.277 100.81 424.265 103.499L423.567 104.122C420.588 106.78 416.735 108.249 412.743 108.249H408.113C408.1 108.25 408.087 108.25 408.074 108.25H361.928C361.925 108.25 361.922 108.25 361.918 108.25H357.257C353.265 108.25 349.412 106.781 346.433 104.123L345.735 103.5C342.723 100.812 341 96.9657 341 92.9278C341 88.8899 342.723 85.0437 345.735 82.3553L346.433 81.7327C348.991 79.4504 352.193 78.0447 355.574 77.6927C355.656 77.1923 355.77 76.6955 355.914 76.2046C356.905 72.8397 359.291 70.0186 362.574 68.3267L363.176 68.0169C366.46 66.3251 370.39 65.8924 374.151 66.8088C375.214 67.0675 376.238 67.4281 377.211 67.8799L378.231 66.3027C381.22 61.684 386.09 58.3069 391.697 56.9663L392.387 56.8013C397.594 55.5564 403.024 56.1662 407.565 58.5057L409.186 59.3411Z" fill="white"/>
<path d="M418.429 70.2181L418.908 70.0743L418.908 70.0743L418.429 70.2181ZM409.186 59.3411L409.415 58.8966L409.415 58.8966L409.186 59.3411ZM418.614 70.8339L418.135 70.9777L418.135 70.9777L418.614 70.8339ZM419.073 78.8871L418.58 78.8005L418.511 79.1926L418.878 79.3476L419.073 78.8871ZM423.567 81.7314L423.234 82.1045L423.234 82.1045L423.567 81.7314ZM424.265 82.354L424.597 81.9809L424.597 81.9809L424.265 82.354ZM424.265 103.499L423.932 103.126L423.932 103.126L424.265 103.499ZM423.567 104.122L423.9 104.495L423.9 104.495L423.567 104.122ZM408.113 108.249V107.749H408.095L408.077 107.75L408.113 108.249ZM361.918 108.25L361.927 107.75H361.918V108.25ZM346.433 104.123L346.766 103.75L346.766 103.75L346.433 104.123ZM345.735 103.5L345.403 103.873L345.403 103.873L345.735 103.5ZM345.735 82.3553L346.068 82.7283L346.068 82.7283L345.735 82.3553ZM346.433 81.7327L346.1 81.3597L346.1 81.3597L346.433 81.7327ZM355.574 77.6927L355.626 78.19L356.005 78.1505L356.067 77.7739L355.574 77.6927ZM355.914 76.2046L355.435 76.0633L355.435 76.0633L355.914 76.2046ZM362.574 68.3267L362.345 67.8823L362.345 67.8823L362.574 68.3267ZM363.176 68.0169L363.405 68.4614L363.405 68.4614L363.176 68.0169ZM374.151 66.8088L374.033 67.2945L374.033 67.2945L374.151 66.8088ZM377.211 67.8799L377 68.3333L377.395 68.5165L377.631 68.1515L377.211 67.8799ZM378.231 66.3027L377.812 66.0311L377.812 66.0311L378.231 66.3027ZM391.697 56.9663L391.581 56.48L391.581 56.48L391.697 56.9663ZM392.387 56.8013L392.504 57.2875L392.504 57.2875L392.387 56.8013ZM407.565 58.5057L407.336 58.9502L407.336 58.9502L407.565 58.5057ZM418.908 70.0743C417.472 65.291 414.07 61.2945 409.415 58.8966L408.957 59.7856C413.385 62.0665 416.597 65.8536 417.95 70.3619L418.908 70.0743ZM419.093 70.6901L418.908 70.0743L417.95 70.3619L418.135 70.9777L419.093 70.6901ZM419.565 78.9737C420.051 76.2144 419.904 73.3894 419.093 70.6901L418.135 70.9777C418.9 73.5235 419.039 76.1905 418.58 78.8005L419.565 78.9737ZM423.9 81.3584C422.516 80.1232 420.948 79.1371 419.267 78.4265L418.878 79.3476C420.459 80.0158 421.932 80.943 423.234 82.1045L423.9 81.3584ZM424.597 81.9809L423.9 81.3584L423.234 82.1045L423.932 82.727L424.597 81.9809ZM429.5 92.9265C429.5 88.7461 427.717 84.7642 424.597 81.9809L423.932 82.727C426.838 85.3206 428.5 89.031 428.5 92.9265H429.5ZM424.597 103.872C427.717 101.089 429.5 97.1069 429.5 92.9265H428.5C428.5 96.8219 426.838 100.532 423.932 103.126L424.597 103.872ZM423.9 104.495L424.597 103.872L423.932 103.126L423.234 103.748L423.9 104.495ZM412.743 108.749C416.858 108.749 420.829 107.235 423.9 104.495L423.234 103.748C420.347 106.325 416.612 107.749 412.743 107.749V108.749ZM408.113 108.749H412.743V107.749H408.113V108.749ZM408.077 107.75C408.077 107.75 408.075 107.75 408.074 107.75V108.75C408.099 108.75 408.124 108.749 408.149 108.748L408.077 107.75ZM408.074 107.75H361.928V108.75H408.074V107.75ZM361.928 107.75L361.927 107.75L361.909 108.75C361.916 108.75 361.922 108.75 361.928 108.75V107.75ZM357.257 108.75H361.918V107.75H357.257V108.75ZM346.1 104.496C349.171 107.236 353.142 108.75 357.257 108.75V107.75C353.388 107.75 349.653 106.326 346.766 103.75L346.1 104.496ZM345.403 103.873L346.1 104.496L346.766 103.75L346.068 103.127L345.403 103.873ZM340.5 92.9278C340.5 97.1082 342.283 101.09 345.403 103.873L346.068 103.127C343.162 100.534 341.5 96.8232 341.5 92.9278H340.5ZM345.403 81.9822C342.283 84.7655 340.5 88.7474 340.5 92.9278H341.5C341.5 89.0323 343.162 85.3219 346.068 82.7283L345.403 81.9822ZM346.1 81.3597L345.403 81.9822L346.068 82.7283L346.766 82.1058L346.1 81.3597ZM355.522 77.1954C352.037 77.5582 348.736 79.0072 346.1 81.3597L346.766 82.1058C349.245 79.8937 352.348 78.5312 355.626 78.19L355.522 77.1954ZM355.435 76.0633C355.284 76.5741 355.166 77.0909 355.081 77.6115L356.067 77.7739C356.146 77.2937 356.255 76.817 356.394 76.3459L355.435 76.0633ZM362.345 67.8823C358.947 69.633 356.467 72.5598 355.435 76.0633L356.394 76.3459C357.344 73.1197 359.634 70.4042 362.803 68.7712L362.345 67.8823ZM362.947 67.5724L362.345 67.8823L362.803 68.7712L363.405 68.4614L362.947 67.5724ZM374.27 66.323C370.398 65.3796 366.343 65.8226 362.947 67.5724L363.405 68.4614C366.576 66.8275 370.383 66.4052 374.033 67.2945L374.27 66.323ZM377.422 67.4264C376.42 66.9609 375.364 66.5895 374.27 66.323L374.033 67.2945C375.063 67.5456 376.057 67.8953 377 68.3333L377.422 67.4264ZM377.812 66.0311L376.791 67.6082L377.631 68.1515L378.651 66.5743L377.812 66.0311ZM391.581 56.48C385.856 57.8489 380.873 61.2989 377.812 66.0311L378.651 66.5743C381.566 62.0691 386.325 58.7649 391.814 57.4526L391.581 56.48ZM392.271 56.315L391.581 56.48L391.814 57.4526L392.504 57.2875L392.271 56.315ZM407.794 58.0612C403.141 55.6642 397.588 55.0437 392.271 56.315L392.504 57.2875C397.6 56.0691 402.907 56.6683 407.336 58.9502L407.794 58.0612ZM409.415 58.8966L407.794 58.0612L407.336 58.9502L408.957 59.7856L409.415 58.8966Z" fill="black"/>
</g>
<g filter="url(#filter2_d_267_1713)">
<path fill-rule="evenodd" clip-rule="evenodd" d="M299.186 27.3411C303.727 29.6805 307.034 33.5723 308.429 38.2181L308.614 38.8339C309.402 41.4565 309.545 44.2024 309.073 46.8871C310.704 47.5765 312.224 48.5331 313.567 49.7314L314.265 50.354C317.277 53.0424 319 56.8886 319 60.9265C319 64.9644 317.277 68.8105 314.265 71.499L313.567 72.1215C310.588 74.7798 306.735 76.2489 302.743 76.2489H298.113C298.1 76.2498 298.087 76.2503 298.074 76.2503H251.928C251.925 76.2503 251.922 76.2503 251.918 76.2502H247.257C243.265 76.2502 239.412 74.7811 236.433 72.1228L235.735 71.5003C232.723 68.8118 231 64.9657 231 60.9278C231 56.8899 232.723 53.0437 235.735 50.3553L236.433 49.7327C238.991 47.4504 242.193 46.0447 245.574 45.6927C245.656 45.1923 245.77 44.6955 245.914 44.2046C246.905 40.8397 249.291 38.0186 252.574 36.3267L253.176 36.0169C256.46 34.3251 260.39 33.8924 264.151 34.8088C265.214 35.0675 266.238 35.4281 267.211 35.8799L268.231 34.3027C271.22 29.684 276.09 26.3069 281.697 24.9663L282.387 24.8013C287.594 23.5564 293.024 24.1662 297.565 26.5057L299.186 27.3411Z" fill="white"/>
<path d="M308.429 38.2181L308.908 38.0743L308.908 38.0743L308.429 38.2181ZM299.186 27.3411L299.415 26.8966L299.415 26.8966L299.186 27.3411ZM308.614 38.8339L308.135 38.9777L308.135 38.9777L308.614 38.8339ZM309.073 46.8871L308.58 46.8005L308.511 47.1926L308.878 47.3476L309.073 46.8871ZM313.567 49.7314L313.234 50.1045L313.234 50.1045L313.567 49.7314ZM314.265 50.354L314.597 49.9809L314.597 49.9809L314.265 50.354ZM314.265 71.499L313.932 71.1259L313.932 71.1259L314.265 71.499ZM313.567 72.1215L313.9 72.4946L313.9 72.4946L313.567 72.1215ZM298.113 76.2489V75.7489H298.095L298.077 75.7502L298.113 76.2489ZM251.918 76.2502L251.927 75.7502H251.918V76.2502ZM236.433 72.1228L236.766 71.7498L236.766 71.7498L236.433 72.1228ZM235.735 71.5003L235.403 71.8733L235.403 71.8733L235.735 71.5003ZM235.735 50.3553L236.068 50.7283L236.068 50.7283L235.735 50.3553ZM236.433 49.7327L236.1 49.3597L236.1 49.3597L236.433 49.7327ZM245.574 45.6927L245.626 46.19L246.005 46.1505L246.067 45.7739L245.574 45.6927ZM245.914 44.2046L245.435 44.0633L245.435 44.0633L245.914 44.2046ZM252.574 36.3267L252.345 35.8823L252.345 35.8823L252.574 36.3267ZM253.176 36.0169L253.405 36.4614L253.405 36.4614L253.176 36.0169ZM264.151 34.8088L264.033 35.2945L264.033 35.2945L264.151 34.8088ZM267.211 35.8799L267 36.3333L267.395 36.5165L267.631 36.1515L267.211 35.8799ZM268.231 34.3027L267.812 34.0311L267.812 34.0311L268.231 34.3027ZM281.697 24.9663L281.581 24.48L281.581 24.48L281.697 24.9663ZM282.387 24.8013L282.504 25.2875L282.504 25.2875L282.387 24.8013ZM297.565 26.5057L297.336 26.9502L297.336 26.9502L297.565 26.5057ZM308.908 38.0743C307.472 33.291 304.07 29.2945 299.415 26.8966L298.957 27.7856C303.385 30.0665 306.597 33.8536 307.95 38.3619L308.908 38.0743ZM309.093 38.6901L308.908 38.0743L307.95 38.3619L308.135 38.9777L309.093 38.6901ZM309.565 46.9737C310.051 44.2144 309.904 41.3894 309.093 38.6901L308.135 38.9777C308.9 41.5235 309.039 44.1905 308.58 46.8005L309.565 46.9737ZM313.9 49.3584C312.516 48.1232 310.948 47.1371 309.267 46.4265L308.878 47.3476C310.459 48.0158 311.932 48.943 313.234 50.1045L313.9 49.3584ZM314.597 49.9809L313.9 49.3584L313.234 50.1045L313.932 50.727L314.597 49.9809ZM319.5 60.9265C319.5 56.7461 317.717 52.7642 314.597 49.9809L313.932 50.727C316.838 53.3206 318.5 57.031 318.5 60.9265H319.5ZM314.597 71.872C317.717 69.0887 319.5 65.1069 319.5 60.9265H318.5C318.5 64.8219 316.838 68.5323 313.932 71.1259L314.597 71.872ZM313.9 72.4946L314.597 71.872L313.932 71.1259L313.234 71.7484L313.9 72.4946ZM302.743 76.7489C306.858 76.7489 310.829 75.2346 313.9 72.4946L313.234 71.7484C310.347 74.3249 306.612 75.7489 302.743 75.7489V76.7489ZM298.113 76.7489H302.743V75.7489H298.113V76.7489ZM298.077 75.7502C298.077 75.7503 298.075 75.7503 298.074 75.7503V76.7503C298.099 76.7503 298.124 76.7494 298.149 76.7476L298.077 75.7502ZM298.074 75.7503H251.928V76.7503H298.074V75.7503ZM251.928 75.7503L251.927 75.7503L251.909 76.7501C251.916 76.7503 251.922 76.7503 251.928 76.7503V75.7503ZM247.257 76.7502H251.918V75.7502H247.257V76.7502ZM236.1 72.4959C239.171 75.2359 243.142 76.7502 247.257 76.7502V75.7502C243.388 75.7502 239.653 74.3263 236.766 71.7498L236.1 72.4959ZM235.403 71.8733L236.1 72.4959L236.766 71.7498L236.068 71.1272L235.403 71.8733ZM230.5 60.9278C230.5 65.1082 232.283 69.09 235.403 71.8733L236.068 71.1272C233.162 68.5336 231.5 64.8232 231.5 60.9278H230.5ZM235.403 49.9822C232.283 52.7655 230.5 56.7474 230.5 60.9278H231.5C231.5 57.0323 233.162 53.3219 236.068 50.7283L235.403 49.9822ZM236.1 49.3597L235.403 49.9822L236.068 50.7283L236.766 50.1058L236.1 49.3597ZM245.522 45.1954C242.037 45.5582 238.736 47.0072 236.1 49.3597L236.766 50.1058C239.245 47.8937 242.348 46.5312 245.626 46.19L245.522 45.1954ZM245.435 44.0633C245.284 44.5741 245.166 45.0909 245.081 45.6115L246.067 45.7739C246.146 45.2937 246.255 44.817 246.394 44.3459L245.435 44.0633ZM252.345 35.8823C248.947 37.633 246.467 40.5598 245.435 44.0633L246.394 44.3459C247.344 41.1197 249.634 38.4042 252.803 36.7712L252.345 35.8823ZM252.947 35.5724L252.345 35.8823L252.803 36.7712L253.405 36.4614L252.947 35.5724ZM264.27 34.323C260.398 33.3796 256.343 33.8226 252.947 35.5724L253.405 36.4614C256.576 34.8275 260.383 34.4052 264.033 35.2945L264.27 34.323ZM267.422 35.4264C266.42 34.9609 265.364 34.5895 264.27 34.323L264.033 35.2945C265.063 35.5456 266.057 35.8953 267 36.3333L267.422 35.4264ZM267.812 34.0311L266.791 35.6082L267.631 36.1515L268.651 34.5743L267.812 34.0311ZM281.581 24.48C275.856 25.8489 270.873 29.2989 267.812 34.0311L268.651 34.5743C271.566 30.0691 276.325 26.7649 281.814 25.4526L281.581 24.48ZM282.271 24.315L281.581 24.48L281.814 25.4526L282.504 25.2875L282.271 24.315ZM297.794 26.0612C293.141 23.6642 287.588 23.0437 282.271 24.315L282.504 25.2875C287.6 24.0691 292.907 24.6683 297.336 26.9502L297.794 26.0612ZM299.415 26.8966L297.794 26.0612L297.336 26.9502L298.957 27.7856L299.415 26.8966Z" fill="black"/>
</g>
<g filter="url(#filter3_d_267_1713)">
<path fill-rule="evenodd" clip-rule="evenodd" d="M189.186 59.3411C193.727 61.6805 197.034 65.5723 198.429 70.2181L198.614 70.8339C199.402 73.4565 199.545 76.2024 199.073 78.8871C200.704 79.5765 202.224 80.5331 203.567 81.7314L204.265 82.354C207.277 85.0424 209 88.8886 209 92.9265C209 96.9644 207.277 100.81 204.265 103.499L203.567 104.122C200.588 106.78 196.735 108.249 192.743 108.249H188.113C188.1 108.25 188.087 108.25 188.074 108.25H141.928C141.925 108.25 141.922 108.25 141.918 108.25H137.257C133.265 108.25 129.412 106.781 126.433 104.123L125.735 103.5C122.723 100.812 121 96.9657 121 92.9278C121 88.8899 122.723 85.0437 125.735 82.3553L126.433 81.7327C128.991 79.4504 132.193 78.0447 135.574 77.6927C135.656 77.1923 135.77 76.6955 135.914 76.2046C136.905 72.8397 139.291 70.0186 142.574 68.3267L143.176 68.0169C146.46 66.3251 150.39 65.8924 154.151 66.8088C155.214 67.0675 156.238 67.4281 157.211 67.8799L158.231 66.3027C161.22 61.684 166.09 58.3069 171.697 56.9663L172.387 56.8013C177.594 55.5564 183.024 56.1662 187.565 58.5057L189.186 59.3411Z" fill="white"/>
<path d="M198.429 70.2181L198.908 70.0743L198.908 70.0743L198.429 70.2181ZM189.186 59.3411L189.415 58.8966L189.415 58.8966L189.186 59.3411ZM198.614 70.8339L198.135 70.9777L198.135 70.9777L198.614 70.8339ZM199.073 78.8871L198.58 78.8005L198.511 79.1926L198.878 79.3476L199.073 78.8871ZM203.567 81.7314L203.234 82.1045L203.234 82.1045L203.567 81.7314ZM204.265 82.354L204.597 81.9809L204.597 81.9809L204.265 82.354ZM204.265 103.499L203.932 103.126L203.932 103.126L204.265 103.499ZM203.567 104.122L203.9 104.495L203.9 104.495L203.567 104.122ZM188.113 108.249V107.749H188.095L188.077 107.75L188.113 108.249ZM141.918 108.25L141.927 107.75H141.918V108.25ZM126.433 104.123L126.766 103.75L126.766 103.75L126.433 104.123ZM125.735 103.5L125.403 103.873L125.403 103.873L125.735 103.5ZM125.735 82.3553L126.068 82.7283L126.068 82.7283L125.735 82.3553ZM126.433 81.7327L126.1 81.3597L126.1 81.3597L126.433 81.7327ZM135.574 77.6927L135.626 78.19L136.005 78.1505L136.067 77.7739L135.574 77.6927ZM135.914 76.2046L135.435 76.0633L135.435 76.0633L135.914 76.2046ZM142.574 68.3267L142.345 67.8823L142.345 67.8823L142.574 68.3267ZM143.176 68.0169L143.405 68.4614L143.405 68.4614L143.176 68.0169ZM154.151 66.8088L154.033 67.2945L154.033 67.2945L154.151 66.8088ZM157.211 67.8799L157 68.3333L157.395 68.5165L157.631 68.1515L157.211 67.8799ZM158.231 66.3027L157.812 66.0311L157.812 66.0311L158.231 66.3027ZM171.697 56.9663L171.581 56.48L171.581 56.48L171.697 56.9663ZM172.387 56.8013L172.504 57.2875L172.504 57.2875L172.387 56.8013ZM187.565 58.5057L187.336 58.9502L187.336 58.9502L187.565 58.5057ZM198.908 70.0743C197.472 65.291 194.07 61.2945 189.415 58.8966L188.957 59.7856C193.385 62.0665 196.597 65.8536 197.95 70.3619L198.908 70.0743ZM199.093 70.6901L198.908 70.0743L197.95 70.3619L198.135 70.9777L199.093 70.6901ZM199.565 78.9737C200.051 76.2144 199.904 73.3894 199.093 70.6901L198.135 70.9777C198.9 73.5235 199.039 76.1905 198.58 78.8005L199.565 78.9737ZM203.9 81.3584C202.516 80.1232 200.948 79.1371 199.267 78.4265L198.878 79.3476C200.459 80.0158 201.932 80.943 203.234 82.1045L203.9 81.3584ZM204.597 81.9809L203.9 81.3584L203.234 82.1045L203.932 82.727L204.597 81.9809ZM209.5 92.9265C209.5 88.7461 207.717 84.7642 204.597 81.9809L203.932 82.727C206.838 85.3206 208.5 89.031 208.5 92.9265H209.5ZM204.597 103.872C207.717 101.089 209.5 97.1069 209.5 92.9265H208.5C208.5 96.8219 206.838 100.532 203.932 103.126L204.597 103.872ZM203.9 104.495L204.597 103.872L203.932 103.126L203.234 103.748L203.9 104.495ZM192.743 108.749C196.858 108.749 200.829 107.235 203.9 104.495L203.234 103.748C200.347 106.325 196.612 107.749 192.743 107.749V108.749ZM188.113 108.749H192.743V107.749H188.113V108.749ZM188.077 107.75C188.077 107.75 188.075 107.75 188.074 107.75V108.75C188.099 108.75 188.124 108.749 188.149 108.748L188.077 107.75ZM188.074 107.75H141.928V108.75H188.074V107.75ZM141.928 107.75L141.927 107.75L141.909 108.75C141.916 108.75 141.922 108.75 141.928 108.75V107.75ZM137.257 108.75H141.918V107.75H137.257V108.75ZM126.1 104.496C129.171 107.236 133.142 108.75 137.257 108.75V107.75C133.388 107.75 129.653 106.326 126.766 103.75L126.1 104.496ZM125.403 103.873L126.1 104.496L126.766 103.75L126.068 103.127L125.403 103.873ZM120.5 92.9278C120.5 97.1082 122.283 101.09 125.403 103.873L126.068 103.127C123.162 100.534 121.5 96.8232 121.5 92.9278H120.5ZM125.403 81.9822C122.283 84.7655 120.5 88.7474 120.5 92.9278H121.5C121.5 89.0323 123.162 85.3219 126.068 82.7283L125.403 81.9822ZM126.1 81.3597L125.403 81.9822L126.068 82.7283L126.766 82.1058L126.1 81.3597ZM135.522 77.1954C132.037 77.5582 128.736 79.0072 126.1 81.3597L126.766 82.1058C129.245 79.8937 132.348 78.5312 135.626 78.19L135.522 77.1954ZM135.435 76.0633C135.284 76.5741 135.166 77.0909 135.081 77.6115L136.067 77.7739C136.146 77.2937 136.255 76.817 136.394 76.3459L135.435 76.0633ZM142.345 67.8823C138.947 69.633 136.467 72.5598 135.435 76.0633L136.394 76.3459C137.344 73.1197 139.634 70.4042 142.803 68.7712L142.345 67.8823ZM142.947 67.5724L142.345 67.8823L142.803 68.7712L143.405 68.4614L142.947 67.5724ZM154.27 66.323C150.398 65.3796 146.343 65.8226 142.947 67.5724L143.405 68.4614C146.576 66.8275 150.383 66.4052 154.033 67.2945L154.27 66.323ZM157.422 67.4264C156.42 66.9609 155.364 66.5895 154.27 66.323L154.033 67.2945C155.063 67.5456 156.057 67.8953 157 68.3333L157.422 67.4264ZM157.812 66.0311L156.791 67.6082L157.631 68.1515L158.651 66.5743L157.812 66.0311ZM171.581 56.48C165.856 57.8489 160.873 61.2989 157.812 66.0311L158.651 66.5743C161.566 62.0691 166.325 58.7649 171.814 57.4526L171.581 56.48ZM172.271 56.315L171.581 56.48L171.814 57.4526L172.504 57.2875L172.271 56.315ZM187.794 58.0612C183.141 55.6642 177.588 55.0437 172.271 56.315L172.504 57.2875C177.6 56.0691 182.907 56.6683 187.336 58.9502L187.794 58.0612ZM189.415 58.8966L187.794 58.0612L187.336 58.9502L188.957 59.7856L189.415 58.8966Z" fill="black"/>
</g>
<g filter="url(#filter4_d_267_1713)">
<path fill-rule="evenodd" clip-rule="evenodd" d="M519.186 27.3411C523.727 29.6805 527.034 33.5723 528.429 38.2181L528.614 38.8339C529.402 41.4565 529.545 44.2024 529.073 46.8871C530.704 47.5765 532.224 48.5331 533.567 49.7314L534.265 50.354C537.277 53.0424 539 56.8886 539 60.9265C539 64.9644 537.277 68.8105 534.265 71.499L533.567 72.1215C530.588 74.7798 526.735 76.2489 522.743 76.2489H518.113C518.1 76.2498 518.087 76.2503 518.074 76.2503L471.928 76.2503C471.925 76.2503 471.922 76.2503 471.918 76.2502H467.257C463.265 76.2502 459.412 74.7811 456.433 72.1228L455.735 71.5003C452.723 68.8118 451 64.9657 451 60.9278C451 56.8899 452.723 53.0437 455.735 50.3553L456.433 49.7327C458.991 47.4504 462.193 46.0447 465.574 45.6927C465.656 45.1923 465.77 44.6955 465.914 44.2046C466.905 40.8397 469.291 38.0186 472.574 36.3267L473.176 36.0169C476.46 34.3251 480.39 33.8924 484.151 34.8088C485.214 35.0675 486.238 35.4281 487.211 35.8799L488.231 34.3027C491.22 29.684 496.09 26.3069 501.697 24.9663L502.387 24.8013C507.594 23.5564 513.024 24.1662 517.565 26.5057L519.186 27.3411Z" fill="white"/>
<path d="M528.429 38.2181L528.908 38.0743L528.908 38.0743L528.429 38.2181ZM519.186 27.3411L519.415 26.8966L519.415 26.8966L519.186 27.3411ZM528.614 38.8339L528.135 38.9777L528.135 38.9777L528.614 38.8339ZM529.073 46.8871L528.58 46.8005L528.511 47.1926L528.878 47.3476L529.073 46.8871ZM533.567 49.7314L533.234 50.1045L533.234 50.1045L533.567 49.7314ZM534.265 50.354L534.597 49.9809L534.597 49.9809L534.265 50.354ZM534.265 71.499L533.932 71.1259L533.932 71.1259L534.265 71.499ZM533.567 72.1215L533.9 72.4946L533.9 72.4946L533.567 72.1215ZM518.113 76.2489V75.7489H518.095L518.077 75.7502L518.113 76.2489ZM518.074 76.2503V75.7503V76.2503ZM471.928 76.2503V76.7503V76.2503ZM471.918 76.2502L471.927 75.7502H471.918V76.2502ZM456.433 72.1228L456.766 71.7498L456.766 71.7498L456.433 72.1228ZM455.735 71.5003L455.403 71.8733L455.403 71.8733L455.735 71.5003ZM455.735 50.3553L456.068 50.7283L456.068 50.7283L455.735 50.3553ZM456.433 49.7327L456.1 49.3597L456.1 49.3597L456.433 49.7327ZM465.574 45.6927L465.626 46.19L466.005 46.1505L466.067 45.7739L465.574 45.6927ZM465.914 44.2046L465.435 44.0633L465.435 44.0633L465.914 44.2046ZM472.574 36.3267L472.345 35.8823L472.345 35.8823L472.574 36.3267ZM473.176 36.0169L473.405 36.4614L473.405 36.4614L473.176 36.0169ZM484.151 34.8088L484.033 35.2945L484.033 35.2945L484.151 34.8088ZM487.211 35.8799L487 36.3333L487.395 36.5165L487.631 36.1515L487.211 35.8799ZM488.231 34.3027L487.812 34.0311L487.812 34.0311L488.231 34.3027ZM501.697 24.9663L501.581 24.48L501.581 24.48L501.697 24.9663ZM502.387 24.8013L502.504 25.2875L502.504 25.2875L502.387 24.8013ZM517.565 26.5057L517.336 26.9502L517.336 26.9502L517.565 26.5057ZM528.908 38.0743C527.472 33.291 524.07 29.2945 519.415 26.8966L518.957 27.7856C523.385 30.0665 526.597 33.8536 527.95 38.3619L528.908 38.0743ZM529.093 38.6901L528.908 38.0743L527.95 38.3619L528.135 38.9777L529.093 38.6901ZM529.565 46.9737C530.051 44.2144 529.904 41.3894 529.093 38.6901L528.135 38.9777C528.9 41.5235 529.039 44.1905 528.58 46.8005L529.565 46.9737ZM533.9 49.3584C532.516 48.1232 530.948 47.1371 529.267 46.4265L528.878 47.3476C530.459 48.0158 531.932 48.943 533.234 50.1045L533.9 49.3584ZM534.597 49.9809L533.9 49.3584L533.234 50.1045L533.932 50.727L534.597 49.9809ZM539.5 60.9265C539.5 56.7461 537.717 52.7642 534.597 49.9809L533.932 50.727C536.838 53.3206 538.5 57.031 538.5 60.9265H539.5ZM534.597 71.872C537.717 69.0887 539.5 65.1069 539.5 60.9265H538.5C538.5 64.8219 536.838 68.5323 533.932 71.1259L534.597 71.872ZM533.9 72.4946L534.597 71.872L533.932 71.1259L533.234 71.7484L533.9 72.4946ZM522.743 76.7489C526.858 76.7489 530.829 75.2346 533.9 72.4946L533.234 71.7484C530.347 74.3249 526.612 75.7489 522.743 75.7489V76.7489ZM518.113 76.7489H522.743V75.7489H518.113V76.7489ZM518.077 75.7502C518.077 75.7503 518.075 75.7503 518.074 75.7503V76.7503C518.099 76.7503 518.124 76.7494 518.149 76.7476L518.077 75.7502ZM518.074 75.7503L471.928 75.7503V76.7503L518.074 76.7503V75.7503ZM471.928 75.7503L471.927 75.7503L471.909 76.7501C471.916 76.7503 471.922 76.7503 471.928 76.7503V75.7503ZM467.257 76.7502H471.918V75.7502H467.257V76.7502ZM456.1 72.4959C459.171 75.2359 463.142 76.7502 467.257 76.7502V75.7502C463.388 75.7502 459.653 74.3263 456.766 71.7498L456.1 72.4959ZM455.403 71.8733L456.1 72.4959L456.766 71.7498L456.068 71.1272L455.403 71.8733ZM450.5 60.9278C450.5 65.1082 452.283 69.09 455.403 71.8733L456.068 71.1272C453.162 68.5336 451.5 64.8232 451.5 60.9278H450.5ZM455.403 49.9822C452.283 52.7655 450.5 56.7474 450.5 60.9278H451.5C451.5 57.0323 453.162 53.3219 456.068 50.7283L455.403 49.9822ZM456.1 49.3597L455.403 49.9822L456.068 50.7283L456.766 50.1058L456.1 49.3597ZM465.522 45.1954C462.037 45.5582 458.736 47.0072 456.1 49.3597L456.766 50.1058C459.245 47.8937 462.348 46.5312 465.626 46.19L465.522 45.1954ZM465.435 44.0633C465.284 44.5741 465.166 45.0909 465.081 45.6115L466.067 45.7739C466.146 45.2937 466.255 44.817 466.394 44.3459L465.435 44.0633ZM472.345 35.8823C468.947 37.633 466.467 40.5598 465.435 44.0633L466.394 44.3459C467.344 41.1197 469.634 38.4042 472.803 36.7712L472.345 35.8823ZM472.947 35.5724L472.345 35.8823L472.803 36.7712L473.405 36.4614L472.947 35.5724ZM484.27 34.323C480.398 33.3796 476.343 33.8226 472.947 35.5724L473.405 36.4614C476.576 34.8275 480.383 34.4052 484.033 35.2945L484.27 34.323ZM487.422 35.4264C486.42 34.9609 485.364 34.5895 484.27 34.323L484.033 35.2945C485.063 35.5456 486.057 35.8953 487 36.3333L487.422 35.4264ZM487.812 34.0311L486.791 35.6082L487.631 36.1515L488.651 34.5743L487.812 34.0311ZM501.581 24.48C495.856 25.8489 490.873 29.2989 487.812 34.0311L488.651 34.5743C491.566 30.0691 496.325 26.7649 501.814 25.4526L501.581 24.48ZM502.271 24.315L501.581 24.48L501.814 25.4526L502.504 25.2875L502.271 24.315ZM517.794 26.0612C513.141 23.6642 507.588 23.0437 502.271 24.315L502.504 25.2875C507.6 24.0691 512.907 24.6683 517.336 26.9502L517.794 26.0612ZM519.415 26.8966L517.794 26.0612L517.336 26.9502L518.957 27.7856L519.415 26.8966Z" fill="black"/>
</g>
<g filter="url(#filter5_d_267_1713)">
<path fill-rule="evenodd" clip-rule="evenodd" d="M629.186 59.3411C633.727 61.6805 637.034 65.5723 638.429 70.2181L638.614 70.8339C639.402 73.4565 639.545 76.2024 639.073 78.8871C640.704 79.5765 642.224 80.5331 643.567 81.7314L644.265 82.354C647.277 85.0424 649 88.8886 649 92.9265C649 96.9644 647.277 100.81 644.265 103.499L643.567 104.122C640.588 106.78 636.735 108.249 632.743 108.249H628.113C628.1 108.25 628.087 108.25 628.074 108.25H581.928C581.925 108.25 581.922 108.25 581.918 108.25H577.257C573.265 108.25 569.412 106.781 566.433 104.123L565.735 103.5C562.723 100.812 561 96.9657 561 92.9278C561 88.8899 562.723 85.0437 565.735 82.3553L566.433 81.7327C568.991 79.4504 572.193 78.0447 575.574 77.6927C575.656 77.1923 575.77 76.6955 575.914 76.2046C576.905 72.8397 579.291 70.0186 582.574 68.3267L583.176 68.0169C586.46 66.3251 590.39 65.8924 594.151 66.8088C595.214 67.0675 596.238 67.4281 597.211 67.8799L598.231 66.3027C601.22 61.684 606.09 58.3069 611.697 56.9663L612.387 56.8013C617.594 55.5564 623.024 56.1662 627.565 58.5057L629.186 59.3411Z" fill="white"/>
<path d="M638.429 70.2181L638.908 70.0743L638.908 70.0743L638.429 70.2181ZM629.186 59.3411L629.415 58.8966L629.415 58.8966L629.186 59.3411ZM638.614 70.8339L638.135 70.9777L638.135 70.9777L638.614 70.8339ZM639.073 78.8871L638.58 78.8005L638.511 79.1926L638.878 79.3476L639.073 78.8871ZM643.567 81.7314L643.234 82.1045L643.234 82.1045L643.567 81.7314ZM644.265 82.354L644.597 81.9809L644.597 81.9809L644.265 82.354ZM644.265 103.499L643.932 103.126L643.932 103.126L644.265 103.499ZM643.567 104.122L643.9 104.495L643.9 104.495L643.567 104.122ZM628.113 108.249V107.749H628.095L628.077 107.75L628.113 108.249ZM581.918 108.25L581.927 107.75H581.918V108.25ZM566.433 104.123L566.766 103.75L566.766 103.75L566.433 104.123ZM565.735 103.5L565.403 103.873L565.403 103.873L565.735 103.5ZM565.735 82.3553L566.068 82.7283L566.068 82.7283L565.735 82.3553ZM566.433 81.7327L566.1 81.3597L566.1 81.3597L566.433 81.7327ZM575.574 77.6927L575.626 78.19L576.005 78.1505L576.067 77.7739L575.574 77.6927ZM575.914 76.2046L575.435 76.0633L575.435 76.0633L575.914 76.2046ZM582.574 68.3267L582.345 67.8823L582.345 67.8823L582.574 68.3267ZM583.176 68.0169L583.405 68.4614L583.405 68.4614L583.176 68.0169ZM594.151 66.8088L594.033 67.2945L594.033 67.2945L594.151 66.8088ZM597.211 67.8799L597 68.3333L597.395 68.5165L597.631 68.1515L597.211 67.8799ZM598.231 66.3027L597.812 66.0311L597.812 66.0311L598.231 66.3027ZM611.697 56.9663L611.581 56.48L611.581 56.48L611.697 56.9663ZM612.387 56.8013L612.504 57.2875L612.504 57.2875L612.387 56.8013ZM627.565 58.5057L627.336 58.9502L627.336 58.9502L627.565 58.5057ZM638.908 70.0743C637.472 65.291 634.07 61.2945 629.415 58.8966L628.957 59.7856C633.385 62.0665 636.597 65.8536 637.95 70.3619L638.908 70.0743ZM639.093 70.6901L638.908 70.0743L637.95 70.3619L638.135 70.9777L639.093 70.6901ZM639.565 78.9737C640.051 76.2144 639.904 73.3894 639.093 70.6901L638.135 70.9777C638.9 73.5235 639.039 76.1905 638.58 78.8005L639.565 78.9737ZM643.9 81.3584C642.516 80.1232 640.948 79.1371 639.267 78.4265L638.878 79.3476C640.459 80.0158 641.932 80.943 643.234 82.1045L643.9 81.3584ZM644.597 81.9809L643.9 81.3584L643.234 82.1045L643.932 82.727L644.597 81.9809ZM649.5 92.9265C649.5 88.7461 647.717 84.7642 644.597 81.9809L643.932 82.727C646.838 85.3206 648.5 89.031 648.5 92.9265H649.5ZM644.597 103.872C647.717 101.089 649.5 97.1069 649.5 92.9265H648.5C648.5 96.8219 646.838 100.532 643.932 103.126L644.597 103.872ZM643.9 104.495L644.597 103.872L643.932 103.126L643.234 103.748L643.9 104.495ZM632.743 108.749C636.858 108.749 640.829 107.235 643.9 104.495L643.234 103.748C640.347 106.325 636.612 107.749 632.743 107.749V108.749ZM628.113 108.749H632.743V107.749H628.113V108.749ZM628.077 107.75C628.077 107.75 628.075 107.75 628.074 107.75V108.75C628.099 108.75 628.124 108.749 628.149 108.748L628.077 107.75ZM628.074 107.75H581.928V108.75H628.074V107.75ZM581.928 107.75L581.927 107.75L581.909 108.75C581.916 108.75 581.922 108.75 581.928 108.75V107.75ZM577.257 108.75H581.918V107.75H577.257V108.75ZM566.1 104.496C569.171 107.236 573.142 108.75 577.257 108.75V107.75C573.388 107.75 569.653 106.326 566.766 103.75L566.1 104.496ZM565.403 103.873L566.1 104.496L566.766 103.75L566.068 103.127L565.403 103.873ZM560.5 92.9278C560.5 97.1082 562.283 101.09 565.403 103.873L566.068 103.127C563.162 100.534 561.5 96.8232 561.5 92.9278H560.5ZM565.403 81.9822C562.283 84.7655 560.5 88.7474 560.5 92.9278H561.5C561.5 89.0323 563.162 85.3219 566.068 82.7283L565.403 81.9822ZM566.1 81.3597L565.403 81.9822L566.068 82.7283L566.766 82.1058L566.1 81.3597ZM575.522 77.1954C572.037 77.5582 568.736 79.0072 566.1 81.3597L566.766 82.1058C569.245 79.8937 572.348 78.5312 575.626 78.19L575.522 77.1954ZM575.435 76.0633C575.284 76.5741 575.166 77.0909 575.081 77.6115L576.067 77.7739C576.146 77.2937 576.255 76.817 576.394 76.3459L575.435 76.0633ZM582.345 67.8823C578.947 69.633 576.467 72.5598 575.435 76.0633L576.394 76.3459C577.344 73.1197 579.634 70.4042 582.803 68.7712L582.345 67.8823ZM582.947 67.5724L582.345 67.8823L582.803 68.7712L583.405 68.4614L582.947 67.5724ZM594.27 66.323C590.398 65.3796 586.343 65.8226 582.947 67.5724L583.405 68.4614C586.576 66.8275 590.383 66.4052 594.033 67.2945L594.27 66.323ZM597.422 67.4264C596.42 66.9609 595.364 66.5895 594.27 66.323L594.033 67.2945C595.063 67.5456 596.057 67.8953 597 68.3333L597.422 67.4264ZM597.812 66.0311L596.791 67.6082L597.631 68.1515L598.651 66.5743L597.812 66.0311ZM611.581 56.48C605.856 57.8489 600.873 61.2989 597.812 66.0311L598.651 66.5743C601.566 62.0691 606.325 58.7649 611.814 57.4526L611.581 56.48ZM612.271 56.315L611.581 56.48L611.814 57.4526L612.504 57.2875L612.271 56.315ZM627.794 58.0612C623.141 55.6642 617.588 55.0437 612.271 56.315L612.504 57.2875C617.6 56.0691 622.907 56.6683 627.336 58.9502L627.794 58.0612ZM629.415 58.8966L627.794 58.0612L627.336 58.9502L628.957 59.7856L629.415 58.8966Z" fill="black"/>
</g>
<g filter="url(#filter6_d_267_1713)">
<path fill-rule="evenodd" clip-rule="evenodd" d="M728.186 27.3411C732.727 29.6805 736.034 33.5723 737.429 38.2181L737.614 38.8339C738.402 41.4565 738.545 44.2024 738.073 46.8871C739.704 47.5765 741.224 48.5331 742.567 49.7314L743.265 50.354C746.277 53.0424 748 56.8886 748 60.9265C748 64.9644 746.277 68.8105 743.265 71.499L742.567 72.1215C739.588 74.7798 735.735 76.2489 731.743 76.2489H727.113C727.1 76.2498 727.087 76.2503 727.074 76.2503H680.928C680.925 76.2503 680.922 76.2503 680.918 76.2502H676.257C672.265 76.2502 668.412 74.7811 665.433 72.1228L664.735 71.5003C661.723 68.8118 660 64.9657 660 60.9278C660 56.8899 661.723 53.0437 664.735 50.3553L665.433 49.7327C667.991 47.4504 671.193 46.0447 674.574 45.6927C674.656 45.1923 674.77 44.6955 674.914 44.2046C675.905 40.8397 678.291 38.0186 681.574 36.3267L682.176 36.0169C685.46 34.3251 689.39 33.8924 693.151 34.8088C694.214 35.0675 695.238 35.4281 696.211 35.8799L697.231 34.3027C700.22 29.684 705.09 26.3069 710.697 24.9663L711.387 24.8013C716.594 23.5564 722.024 24.1662 726.565 26.5057L728.186 27.3411Z" fill="white"/>
<path d="M737.429 38.2181L737.908 38.0743L737.908 38.0743L737.429 38.2181ZM728.186 27.3411L728.415 26.8966L728.415 26.8966L728.186 27.3411ZM737.614 38.8339L737.135 38.9777L737.135 38.9777L737.614 38.8339ZM738.073 46.8871L737.58 46.8005L737.511 47.1926L737.878 47.3476L738.073 46.8871ZM742.567 49.7314L742.234 50.1045L742.234 50.1045L742.567 49.7314ZM743.265 50.354L743.597 49.9809L743.597 49.9809L743.265 50.354ZM743.265 71.499L742.932 71.1259L742.932 71.1259L743.265 71.499ZM742.567 72.1215L742.9 72.4946L742.9 72.4946L742.567 72.1215ZM727.113 76.2489V75.7489H727.095L727.077 75.7502L727.113 76.2489ZM680.918 76.2502L680.927 75.7502H680.918V76.2502ZM665.433 72.1228L665.766 71.7498L665.766 71.7498L665.433 72.1228ZM664.735 71.5003L664.403 71.8733L664.403 71.8733L664.735 71.5003ZM664.735 50.3553L665.068 50.7283L665.068 50.7283L664.735 50.3553ZM665.433 49.7327L665.1 49.3597L665.1 49.3597L665.433 49.7327ZM674.574 45.6927L674.626 46.19L675.005 46.1505L675.067 45.7739L674.574 45.6927ZM674.914 44.2046L674.435 44.0633L674.435 44.0633L674.914 44.2046ZM681.574 36.3267L681.345 35.8823L681.345 35.8823L681.574 36.3267ZM682.176 36.0169L682.405 36.4614L682.405 36.4614L682.176 36.0169ZM693.151 34.8088L693.033 35.2945L693.033 35.2945L693.151 34.8088ZM696.211 35.8799L696 36.3333L696.395 36.5165L696.631 36.1515L696.211 35.8799ZM697.231 34.3027L696.812 34.0311L696.812 34.0311L697.231 34.3027ZM710.697 24.9663L710.581 24.48L710.581 24.48L710.697 24.9663ZM711.387 24.8013L711.504 25.2875L711.504 25.2875L711.387 24.8013ZM726.565 26.5057L726.336 26.9502L726.336 26.9502L726.565 26.5057ZM737.908 38.0743C736.472 33.291 733.07 29.2945 728.415 26.8966L727.957 27.7856C732.385 30.0665 735.597 33.8536 736.95 38.3619L737.908 38.0743ZM738.093 38.6901L737.908 38.0743L736.95 38.3619L737.135 38.9777L738.093 38.6901ZM738.565 46.9737C739.051 44.2144 738.904 41.3894 738.093 38.6901L737.135 38.9777C737.9 41.5235 738.039 44.1905 737.58 46.8005L738.565 46.9737ZM742.9 49.3584C741.516 48.1232 739.948 47.1371 738.267 46.4265L737.878 47.3476C739.459 48.0158 740.932 48.943 742.234 50.1045L742.9 49.3584ZM743.597 49.9809L742.9 49.3584L742.234 50.1045L742.932 50.727L743.597 49.9809ZM748.5 60.9265C748.5 56.7461 746.717 52.7642 743.597 49.9809L742.932 50.727C745.838 53.3206 747.5 57.031 747.5 60.9265H748.5ZM743.597 71.872C746.717 69.0887 748.5 65.1069 748.5 60.9265H747.5C747.5 64.8219 745.838 68.5323 742.932 71.1259L743.597 71.872ZM742.9 72.4946L743.597 71.872L742.932 71.1259L742.234 71.7484L742.9 72.4946ZM731.743 76.7489C735.858 76.7489 739.829 75.2346 742.9 72.4946L742.234 71.7484C739.347 74.3249 735.612 75.7489 731.743 75.7489V76.7489ZM727.113 76.7489H731.743V75.7489H727.113V76.7489ZM727.077 75.7502C727.077 75.7503 727.075 75.7503 727.074 75.7503V76.7503C727.099 76.7503 727.124 76.7494 727.149 76.7476L727.077 75.7502ZM727.074 75.7503H680.928V76.7503H727.074V75.7503ZM680.928 75.7503L680.927 75.7503L680.909 76.7501C680.916 76.7503 680.922 76.7503 680.928 76.7503V75.7503ZM676.257 76.7502H680.918V75.7502H676.257V76.7502ZM665.1 72.4959C668.171 75.2359 672.142 76.7502 676.257 76.7502V75.7502C672.388 75.7502 668.653 74.3263 665.766 71.7498L665.1 72.4959ZM664.403 71.8733L665.1 72.4959L665.766 71.7498L665.068 71.1272L664.403 71.8733ZM659.5 60.9278C659.5 65.1082 661.283 69.09 664.403 71.8733L665.068 71.1272C662.162 68.5336 660.5 64.8232 660.5 60.9278H659.5ZM664.403 49.9822C661.283 52.7655 659.5 56.7474 659.5 60.9278H660.5C660.5 57.0323 662.162 53.3219 665.068 50.7283L664.403 49.9822ZM665.1 49.3597L664.403 49.9822L665.068 50.7283L665.766 50.1058L665.1 49.3597ZM674.522 45.1954C671.037 45.5582 667.736 47.0072 665.1 49.3597L665.766 50.1058C668.245 47.8937 671.348 46.5312 674.626 46.19L674.522 45.1954ZM674.435 44.0633C674.284 44.5741 674.166 45.0909 674.081 45.6115L675.067 45.7739C675.146 45.2937 675.255 44.817 675.394 44.3459L674.435 44.0633ZM681.345 35.8823C677.947 37.633 675.467 40.5598 674.435 44.0633L675.394 44.3459C676.344 41.1197 678.634 38.4042 681.803 36.7712L681.345 35.8823ZM681.947 35.5724L681.345 35.8823L681.803 36.7712L682.405 36.4614L681.947 35.5724ZM693.27 34.323C689.398 33.3796 685.343 33.8226 681.947 35.5724L682.405 36.4614C685.576 34.8275 689.383 34.4052 693.033 35.2945L693.27 34.323ZM696.422 35.4264C695.42 34.9609 694.364 34.5895 693.27 34.323L693.033 35.2945C694.063 35.5456 695.057 35.8953 696 36.3333L696.422 35.4264ZM696.812 34.0311L695.791 35.6082L696.631 36.1515L697.651 34.5743L696.812 34.0311ZM710.581 24.48C704.856 25.8489 699.873 29.2989 696.812 34.0311L697.651 34.5743C700.566 30.0691 705.325 26.7649 710.814 25.4526L710.581 24.48ZM711.271 24.315L710.581 24.48L710.814 25.4526L711.504 25.2875L711.271 24.315ZM726.794 26.0612C722.141 23.6642 716.588 23.0437 711.271 24.315L711.504 25.2875C716.6 24.0691 721.907 24.6683 726.336 26.9502L726.794 26.0612ZM728.415 26.8966L726.794 26.0612L726.336 26.9502L727.957 27.7856L728.415 26.8966Z" fill="black"/>
</g>
<defs>
<filter id="filter0_d_267_1713" x="-4" y="0" width="118" height="108" filterUnits="userSpaceOnUse" color-interpolation-filters="sRGB">
<feFlood flood-opacity="0" result="BackgroundImageFix"/>
<feColorMatrix in="SourceAlpha" type="matrix" values="0 0 0 0 0 0 0 0 0 0 0 0 0 0 0 0 0 0 127 0" result="hardAlpha"/>
<feOffset dy="4"/>
<feGaussianBlur stdDeviation="2"/>
<feComposite in2="hardAlpha" operator="out"/>
<feColorMatrix type="matrix" values="0 0 0 0 0 0 0 0 0 0 0 0 0 0 0 0 0 0 0.25 0"/>
<feBlend mode="normal" in2="BackgroundImageFix" result="effect1_dropShadow_267_1713"/>
<feBlend mode="normal" in="SourceGraphic" in2="effect1_dropShadow_267_1713" result="shape"/>
</filter>
<filter id="filter1_d_267_1713" x="326" y="32" width="118" height="108" filterUnits="userSpaceOnUse" color-interpolation-filters="sRGB">
<feFlood flood-opacity="0" result="BackgroundImageFix"/>
<feColorMatrix in="SourceAlpha" type="matrix" values="0 0 0 0 0 0 0 0 0 0 0 0 0 0 0 0 0 0 127 0" result="hardAlpha"/>
<feOffset dy="4"/>
<feGaussianBlur stdDeviation="2"/>
<feComposite in2="hardAlpha" operator="out"/>
<feColorMatrix type="matrix" values="0 0 0 0 0 0 0 0 0 0 0 0 0 0 0 0 0 0 0.25 0"/>
<feBlend mode="normal" in2="BackgroundImageFix" result="effect1_dropShadow_267_1713"/>
<feBlend mode="normal" in="SourceGraphic" in2="effect1_dropShadow_267_1713" result="shape"/>
</filter>
<filter id="filter2_d_267_1713" x="216" y="0" width="118" height="108" filterUnits="userSpaceOnUse" color-interpolation-filters="sRGB">
<feFlood flood-opacity="0" result="BackgroundImageFix"/>
<feColorMatrix in="SourceAlpha" type="matrix" values="0 0 0 0 0 0 0 0 0 0 0 0 0 0 0 0 0 0 127 0" result="hardAlpha"/>
<feOffset dy="4"/>
<feGaussianBlur stdDeviation="2"/>
<feComposite in2="hardAlpha" operator="out"/>
<feColorMatrix type="matrix" values="0 0 0 0 0 0 0 0 0 0 0 0 0 0 0 0 0 0 0.25 0"/>
<feBlend mode="normal" in2="BackgroundImageFix" result="effect1_dropShadow_267_1713"/>
<feBlend mode="normal" in="SourceGraphic" in2="effect1_dropShadow_267_1713" result="shape"/>
</filter>
<filter id="filter3_d_267_1713" x="106" y="32" width="118" height="108" filterUnits="userSpaceOnUse" color-interpolation-filters="sRGB">
<feFlood flood-opacity="0" result="BackgroundImageFix"/>
<feColorMatrix in="SourceAlpha" type="matrix" values="0 0 0 0 0 0 0 0 0 0 0 0 0 0 0 0 0 0 127 0" result="hardAlpha"/>
<feOffset dy="4"/>
<feGaussianBlur stdDeviation="2"/>
<feComposite in2="hardAlpha" operator="out"/>
<feColorMatrix type="matrix" values="0 0 0 0 0 0 0 0 0 0 0 0 0 0 0 0 0 0 0.25 0"/>
<feBlend mode="normal" in2="BackgroundImageFix" result="effect1_dropShadow_267_1713"/>
<feBlend mode="normal" in="SourceGraphic" in2="effect1_dropShadow_267_1713" result="shape"/>
</filter>
<filter id="filter4_d_267_1713" x="436" y="0" width="118" height="108" filterUnits="userSpaceOnUse" color-interpolation-filters="sRGB">
<feFlood flood-opacity="0" result="BackgroundImageFix"/>
<feColorMatrix in="SourceAlpha" type="matrix" values="0 0 0 0 0 0 0 0 0 0 0 0 0 0 0 0 0 0 127 0" result="hardAlpha"/>
<feOffset dy="4"/>
<feGaussianBlur stdDeviation="2"/>
<feComposite in2="hardAlpha" operator="out"/>
<feColorMatrix type="matrix" values="0 0 0 0 0 0 0 0 0 0 0 0 0 0 0 0 0 0 0.25 0"/>
<feBlend mode="normal" in2="BackgroundImageFix" result="effect1_dropShadow_267_1713"/>
<feBlend mode="normal" in="SourceGraphic" in2="effect1_dropShadow_267_1713" result="shape"/>
</filter>
<filter id="filter5_d_267_1713" x="546" y="32" width="118" height="108" filterUnits="userSpaceOnUse" color-interpolation-filters="sRGB">
<feFlood flood-opacity="0" result="BackgroundImageFix"/>
<feColorMatrix in="SourceAlpha" type="matrix" values="0 0 0 0 0 0 0 0 0 0 0 0 0 0 0 0 0 0 127 0" result="hardAlpha"/>
<feOffset dy="4"/>
<feGaussianBlur stdDeviation="2"/>
<feComposite in2="hardAlpha" operator="out"/>
<feColorMatrix type="matrix" values="0 0 0 0 0 0 0 0 0 0 0 0 0 0 0 0 0 0 0.25 0"/>
<feBlend mode="normal" in2="BackgroundImageFix" result="effect1_dropShadow_267_1713"/>
<feBlend mode="normal" in="SourceGraphic" in2="effect1_dropShadow_267_1713" result="shape"/>
</filter>
<filter id="filter6_d_267_1713" x="645" y="0" width="118" height="108" filterUnits="userSpaceOnUse" color-interpolation-filters="sRGB">
<feFlood flood-opacity="0" result="BackgroundImageFix"/>
<feColorMatrix in="SourceAlpha" type="matrix" values="0 0 0 0 0 0 0 0 0 0 0 0 0 0 0 0 0 0 127 0" result="hardAlpha"/>
<feOffset dy="4"/>
<feGaussianBlur stdDeviation="2"/>
<feComposite in2="hardAlpha" operator="out"/>
<feColorMatrix type="matrix" values="0 0 0 0 0 0 0 0 0 0 0 0 0 0 0 0 0 0 0.25 0"/>
<feBlend mode="normal" in2="BackgroundImageFix" result="effect1_dropShadow_267_1713"/>
<feBlend mode="normal" in="SourceGraphic" in2="effect1_dropShadow_267_1713" result="shape"/>
</filter>
</defs>
</svg>
