<svg width="834" height="198" viewBox="0 0 834 198" fill="none" xmlns="http://www.w3.org/2000/svg">
<g filter="url(#filter0_d_155_1498)">
<path fill-rule="evenodd" clip-rule="evenodd" d="M455.815 33.6312C460.342 35.9121 463.639 39.7134 465.037 44.2665L466.247 48.2078C467.063 50.865 467.196 53.6566 466.677 56.385C468.502 57.1847 470.21 58.2622 471.735 59.593L472.761 60.4885C476.408 63.67 478.5 68.2727 478.5 73.1118C478.5 77.9509 476.408 82.5537 472.761 85.7351L471.735 86.6306C468.138 89.7694 463.525 91.4988 458.751 91.4988L453.427 91.4988H452.866C452.85 91.4999 452.834 91.5004 452.818 91.5004L396.184 91.5004C396.18 91.5004 396.176 91.5004 396.172 91.5003H395.573L390.249 91.5003C385.475 91.5003 380.862 89.7709 377.265 86.6322L376.239 85.7367C372.592 82.5552 370.5 77.9525 370.5 73.1134C370.5 68.2743 372.592 63.6715 376.239 60.49L377.265 59.5946C380.394 56.8641 384.292 55.2002 388.396 54.8135C388.498 54.2015 388.638 53.5942 388.819 52.9946C390.027 48.9871 392.915 45.6386 396.894 43.6342L397.799 43.1782C401.778 41.1739 406.546 40.6653 411.127 41.7567C412.448 42.0714 413.724 42.5119 414.935 43.0651L417.147 39.7224C420.204 35.1025 425.176 31.7233 430.878 30.3902L435.395 29.3341C440.613 28.1141 446.034 28.7042 450.562 30.9851L455.815 33.6312Z" fill="white"/>
<path d="M465.037 44.2665L465.515 44.1197V44.1197L465.037 44.2665ZM455.815 33.6312L456.04 33.1847L455.815 33.6312ZM466.247 48.2078L465.769 48.3546V48.3546L466.247 48.2078ZM466.677 56.385L466.185 56.2915L466.111 56.683L466.476 56.8429L466.677 56.385ZM471.735 59.593L471.406 59.9698L471.735 59.593ZM472.761 60.4885L472.433 60.8652L472.761 60.4885ZM472.761 85.7351L472.433 85.3584L472.761 85.7351ZM471.735 86.6306L472.064 87.0074V87.0074L471.735 86.6306ZM458.751 91.4988V91.9988V91.4988ZM453.427 91.4988V90.9988V91.4988ZM452.866 91.4988V90.9988H452.848L452.83 91L452.866 91.4988ZM396.172 91.5003L396.181 91.0003H396.172V91.5003ZM395.573 91.5003V91.0003V91.5003ZM390.249 91.5003V92.0003V91.5003ZM377.265 86.6322L376.936 87.0089H376.936L377.265 86.6322ZM376.239 85.7367L376.567 85.36H376.567L376.239 85.7367ZM376.239 60.49L375.91 60.1133L376.239 60.49ZM377.265 59.5946L377.594 59.9713L377.265 59.5946ZM388.396 54.8135L388.443 55.3113L388.826 55.2752L388.889 54.8954L388.396 54.8135ZM388.819 52.9946L388.34 52.8503L388.819 52.9946ZM396.894 43.6342L397.119 44.0808L396.894 43.6342ZM397.799 43.1782L397.574 42.7317L397.799 43.1782ZM411.127 41.7567L411.243 41.2703L411.127 41.7567ZM414.935 43.0651L414.727 43.5198L415.116 43.6975L415.352 43.341L414.935 43.0651ZM417.147 39.7224L416.73 39.4465L417.147 39.7224ZM430.878 30.3902L430.764 29.9033L430.878 30.3902ZM435.395 29.3341L435.509 29.821L435.395 29.3341ZM450.562 30.9851L450.787 30.5385V30.5385L450.562 30.9851ZM465.515 44.1197C464.074 39.4273 460.68 35.5224 456.04 33.1847L455.59 34.0778C460.005 36.3017 463.203 39.9995 464.559 44.4133L465.515 44.1197ZM466.725 48.061L465.515 44.1197L464.559 44.4133L465.769 48.3546L466.725 48.061ZM467.168 56.4784C467.702 53.6727 467.566 50.7985 466.725 48.061L465.769 48.3546C466.561 50.9315 466.69 53.6405 466.185 56.2915L467.168 56.4784ZM472.064 59.2163C470.5 57.8517 468.749 56.7469 466.877 55.927L466.476 56.8429C468.255 57.6224 469.92 58.6726 471.406 59.9698L472.064 59.2163ZM473.09 60.1117L472.064 59.2163L471.406 59.9698L472.433 60.8652L473.09 60.1117ZM479 73.1118C479 68.1283 476.845 63.3882 473.09 60.1117L472.433 60.8652C475.97 63.9518 478 68.4171 478 73.1118H479ZM473.09 86.1119C476.845 82.8355 479 78.0954 479 73.1118H478C478 77.8065 475.97 82.2719 472.433 85.3584L473.09 86.1119ZM472.064 87.0074L473.09 86.1119L472.433 85.3584L471.406 86.2539L472.064 87.0074ZM458.751 91.9988C463.646 91.9988 468.375 90.2256 472.064 87.0074L471.406 86.2539C467.9 89.3131 463.404 90.9988 458.751 90.9988V91.9988ZM453.427 91.9988L458.751 91.9988V90.9988L453.427 90.9988V91.9988ZM452.866 91.9988H453.427V90.9988H452.866V91.9988ZM452.83 91C452.826 91.0003 452.823 91.0004 452.818 91.0004V92.0004C452.846 92.0004 452.874 91.9994 452.901 91.9975L452.83 91ZM452.818 91.0004L396.184 91.0004V92.0004L452.818 92.0004V91.0004ZM396.184 91.0004C396.183 91.0004 396.182 91.0004 396.181 91.0004L396.163 92.0002C396.17 92.0004 396.177 92.0004 396.184 92.0004V91.0004ZM395.573 92.0003H396.172V91.0003H395.573V92.0003ZM390.249 92.0003L395.573 92.0003V91.0003L390.249 91.0003V92.0003ZM376.936 87.0089C380.625 90.2271 385.354 92.0003 390.249 92.0003V91.0003C385.596 91.0003 381.1 89.3147 377.594 86.2554L376.936 87.0089ZM375.91 86.1135L376.936 87.0089L377.594 86.2554L376.567 85.36L375.91 86.1135ZM370 73.1134C370 78.0969 372.155 82.837 375.91 86.1135L376.567 85.36C373.03 82.2734 371 77.8081 371 73.1134H370ZM375.91 60.1133C372.155 63.3897 370 68.1298 370 73.1134H371C371 68.4187 373.03 63.9533 376.567 60.8668L375.91 60.1133ZM376.936 59.2178L375.91 60.1133L376.567 60.8668L377.594 59.9713L376.936 59.2178ZM388.349 54.3157C384.141 54.7122 380.145 56.4183 376.936 59.2178L377.594 59.9713C380.644 57.31 384.443 55.6882 388.443 55.3113L388.349 54.3157ZM388.34 52.8503C388.154 53.4705 388.008 54.0986 387.903 54.7316L388.889 54.8954C388.987 54.3044 389.123 53.7179 389.298 53.1388L388.34 52.8503ZM396.669 43.1877C392.577 45.2493 389.59 48.7024 388.34 52.8503L389.298 53.1388C390.463 49.2719 393.254 46.0279 397.119 44.0808L396.669 43.1877ZM397.574 42.7317L396.669 43.1877L397.119 44.0808L398.024 43.6248L397.574 42.7317ZM411.243 41.2703C406.554 40.1533 401.665 40.6711 397.574 42.7317L398.024 43.6248C401.891 41.6767 406.538 41.1774 411.012 42.2431L411.243 41.2703ZM415.142 42.6103C413.902 42.0437 412.596 41.5925 411.243 41.2703L411.012 42.2431C412.301 42.5502 413.546 42.9801 414.727 43.5198L415.142 42.6103ZM416.73 39.4465L414.518 42.7891L415.352 43.341L417.564 39.9983L416.73 39.4465ZM430.764 29.9033C424.945 31.2636 419.861 34.7137 416.73 39.4465L417.564 39.9983C420.546 35.4914 425.406 32.1829 430.991 30.8771L430.764 29.9033ZM435.281 28.8472L430.764 29.9033L430.991 30.8771L435.509 29.821L435.281 28.8472ZM450.787 30.5385C446.148 28.2018 440.606 27.6022 435.281 28.8472L435.509 29.821C440.62 28.626 445.92 29.2067 450.337 31.4316L450.787 30.5385ZM456.04 33.1847L450.787 30.5385L450.337 31.4316L455.59 34.0778L456.04 33.1847Z" fill="black"/>
</g>
<g filter="url(#filter1_d_155_1498)">
<path fill-rule="evenodd" clip-rule="evenodd" d="M277.815 111.631C282.342 113.912 285.639 117.713 287.037 122.267L288.247 126.208C289.063 128.865 289.196 131.657 288.677 134.385C290.502 135.185 292.21 136.262 293.735 137.593L294.761 138.488C298.408 141.67 300.5 146.273 300.5 151.112C300.5 155.951 298.408 160.554 294.761 163.735L293.735 164.631C290.138 167.769 285.525 169.499 280.751 169.499L275.427 169.499H274.866C274.85 169.5 274.834 169.5 274.818 169.5H218.184C218.18 169.5 218.176 169.5 218.172 169.5H217.573L212.249 169.5C207.475 169.5 202.862 167.771 199.265 164.632L198.239 163.737C194.592 160.555 192.5 155.952 192.5 151.113C192.5 146.274 194.592 141.672 198.239 138.49L199.265 137.595C202.394 134.864 206.292 133.2 210.396 132.814C210.498 132.202 210.638 131.594 210.819 130.995C212.027 126.987 214.915 123.639 218.894 121.634L219.799 121.178C223.778 119.174 228.546 118.665 233.127 119.757C234.448 120.071 235.724 120.512 236.935 121.065L239.147 117.722C242.204 113.103 247.176 109.723 252.878 108.39L257.395 107.334C262.613 106.114 268.034 106.704 272.562 108.985L277.815 111.631Z" fill="white"/>
<path d="M287.037 122.267L287.515 122.12V122.12L287.037 122.267ZM277.815 111.631L278.04 111.185L277.815 111.631ZM288.247 126.208L287.769 126.355V126.355L288.247 126.208ZM288.677 134.385L288.185 134.291L288.111 134.683L288.476 134.843L288.677 134.385ZM293.735 137.593L293.406 137.97L293.735 137.593ZM294.761 138.488L294.433 138.865L294.761 138.488ZM294.761 163.735L294.433 163.358L294.761 163.735ZM293.735 164.631L294.064 165.007V165.007L293.735 164.631ZM280.751 169.499V169.999V169.499ZM275.427 169.499V168.999V169.499ZM274.866 169.499V168.999H274.848L274.83 169L274.866 169.499ZM218.172 169.5L218.181 169H218.172V169.5ZM217.573 169.5V169V169.5ZM212.249 169.5V170V169.5ZM199.265 164.632L198.936 165.009H198.936L199.265 164.632ZM198.239 163.737L198.567 163.36H198.567L198.239 163.737ZM198.239 138.49L197.91 138.113L198.239 138.49ZM199.265 137.595L199.594 137.971L199.265 137.595ZM210.396 132.814L210.443 133.311L210.826 133.275L210.889 132.895L210.396 132.814ZM210.819 130.995L210.34 130.85L210.819 130.995ZM218.894 121.634L219.119 122.081L218.894 121.634ZM219.799 121.178L219.574 120.732L219.799 121.178ZM233.127 119.757L233.243 119.27L233.127 119.757ZM236.935 121.065L236.727 121.52L237.116 121.698L237.352 121.341L236.935 121.065ZM239.147 117.722L238.73 117.446L239.147 117.722ZM252.878 108.39L252.764 107.903L252.878 108.39ZM257.395 107.334L257.509 107.821L257.395 107.334ZM272.562 108.985L272.787 108.539V108.539L272.562 108.985ZM287.515 122.12C286.074 117.427 282.68 113.522 278.04 111.185L277.59 112.078C282.005 114.302 285.203 117.999 286.559 122.413L287.515 122.12ZM288.725 126.061L287.515 122.12L286.559 122.413L287.769 126.355L288.725 126.061ZM289.168 134.478C289.702 131.673 289.566 128.798 288.725 126.061L287.769 126.355C288.561 128.931 288.69 131.641 288.185 134.291L289.168 134.478ZM294.064 137.216C292.5 135.852 290.749 134.747 288.877 133.927L288.476 134.843C290.255 135.622 291.92 136.673 293.406 137.97L294.064 137.216ZM295.09 138.112L294.064 137.216L293.406 137.97L294.433 138.865L295.09 138.112ZM301 151.112C301 146.128 298.845 141.388 295.09 138.112L294.433 138.865C297.97 141.952 300 146.417 300 151.112H301ZM295.09 164.112C298.845 160.835 301 156.095 301 151.112H300C300 155.807 297.97 160.272 294.433 163.358L295.09 164.112ZM294.064 165.007L295.09 164.112L294.433 163.358L293.406 164.254L294.064 165.007ZM280.751 169.999C285.646 169.999 290.375 168.226 294.064 165.007L293.406 164.254C289.9 167.313 285.404 168.999 280.751 168.999V169.999ZM275.427 169.999L280.751 169.999V168.999L275.427 168.999V169.999ZM274.866 169.999H275.427V168.999H274.866V169.999ZM274.83 169C274.826 169 274.823 169 274.818 169V170C274.846 170 274.874 169.999 274.901 169.997L274.83 169ZM274.818 169H218.184V170H274.818V169ZM218.184 169C218.183 169 218.182 169 218.181 169L218.163 170C218.17 170 218.177 170 218.184 170V169ZM217.573 170H218.172V169H217.573V170ZM212.249 170L217.573 170V169L212.249 169V170ZM198.936 165.009C202.625 168.227 207.354 170 212.249 170V169C207.596 169 203.1 167.315 199.594 164.255L198.936 165.009ZM197.91 164.113L198.936 165.009L199.594 164.255L198.567 163.36L197.91 164.113ZM192 151.113C192 156.097 194.155 160.837 197.91 164.113L198.567 163.36C195.03 160.273 193 155.808 193 151.113H192ZM197.91 138.113C194.155 141.39 192 146.13 192 151.113H193C193 146.419 195.03 141.953 198.567 138.867L197.91 138.113ZM198.936 137.218L197.91 138.113L198.567 138.867L199.594 137.971L198.936 137.218ZM210.349 132.316C206.141 132.712 202.145 134.418 198.936 137.218L199.594 137.971C202.644 135.31 206.443 133.688 210.443 133.311L210.349 132.316ZM210.34 130.85C210.154 131.471 210.008 132.099 209.903 132.732L210.889 132.895C210.987 132.304 211.123 131.718 211.298 131.139L210.34 130.85ZM218.669 121.188C214.577 123.249 211.59 126.702 210.34 130.85L211.298 131.139C212.463 127.272 215.254 124.028 219.119 122.081L218.669 121.188ZM219.574 120.732L218.669 121.188L219.119 122.081L220.024 121.625L219.574 120.732ZM233.243 119.27C228.554 118.153 223.665 118.671 219.574 120.732L220.024 121.625C223.891 119.677 228.538 119.177 233.012 120.243L233.243 119.27ZM237.142 120.61C235.902 120.044 234.596 119.593 233.243 119.27L233.012 120.243C234.301 120.55 235.546 120.98 236.727 121.52L237.142 120.61ZM238.73 117.446L236.518 120.789L237.352 121.341L239.564 117.998L238.73 117.446ZM252.764 107.903C246.945 109.264 241.861 112.714 238.73 117.446L239.564 117.998C242.546 113.491 247.406 110.183 252.991 108.877L252.764 107.903ZM257.281 106.847L252.764 107.903L252.991 108.877L257.509 107.821L257.281 106.847ZM272.787 108.539C268.148 106.202 262.606 105.602 257.281 106.847L257.509 107.821C262.62 106.626 267.92 107.207 272.337 109.432L272.787 108.539ZM278.04 111.185L272.787 108.539L272.337 109.432L277.59 112.078L278.04 111.185Z" fill="black"/>
</g>
<g filter="url(#filter2_d_155_1498)">
<path fill-rule="evenodd" clip-rule="evenodd" d="M620.815 96.6312C625.342 98.9121 628.639 102.713 630.037 107.267L631.247 111.208C632.063 113.865 632.196 116.657 631.677 119.385C633.502 120.185 635.21 121.262 636.735 122.593L637.761 123.488C641.408 126.67 643.5 131.273 643.5 136.112C643.5 140.951 641.408 145.554 637.761 148.735L636.735 149.631C633.138 152.769 628.525 154.499 623.751 154.499L618.427 154.499H617.866C617.85 154.5 617.834 154.5 617.818 154.5H561.184C561.18 154.5 561.176 154.5 561.172 154.5H560.573L555.249 154.5C550.475 154.5 545.862 152.771 542.265 149.632L541.239 148.737C537.592 145.555 535.5 140.952 535.5 136.113C535.5 131.274 537.592 126.672 541.239 123.49L542.265 122.595C545.394 119.864 549.292 118.2 553.396 117.814C553.498 117.202 553.638 116.594 553.819 115.995C555.027 111.987 557.915 108.639 561.894 106.634L562.799 106.178C566.778 104.174 571.546 103.665 576.127 104.757C577.448 105.071 578.724 105.512 579.935 106.065L582.147 102.722C585.204 98.1025 590.176 94.7233 595.878 93.3902L600.395 92.3341C605.613 91.1141 611.034 91.7042 615.562 93.9851L620.815 96.6312Z" fill="white"/>
<path d="M630.037 107.267L630.515 107.12V107.12L630.037 107.267ZM620.815 96.6312L621.04 96.1847L620.815 96.6312ZM631.247 111.208L630.769 111.355V111.355L631.247 111.208ZM631.677 119.385L631.185 119.291L631.111 119.683L631.476 119.843L631.677 119.385ZM636.735 122.593L636.406 122.97L636.735 122.593ZM637.761 123.488L637.433 123.865L637.761 123.488ZM637.761 148.735L637.433 148.358L637.761 148.735ZM636.735 149.631L637.064 150.007V150.007L636.735 149.631ZM623.751 154.499V154.999V154.499ZM618.427 154.499V153.999V154.499ZM617.866 154.499V153.999H617.848L617.83 154L617.866 154.499ZM617.818 154.5V154V154.5ZM561.184 154.5V155V154.5ZM561.172 154.5L561.181 154H561.172V154.5ZM560.573 154.5V154V154.5ZM555.249 154.5V155V154.5ZM542.265 149.632L541.936 150.009H541.936L542.265 149.632ZM541.239 148.737L541.567 148.36H541.567L541.239 148.737ZM541.239 123.49L540.91 123.113L541.239 123.49ZM542.265 122.595L542.594 122.971L542.265 122.595ZM553.396 117.814L553.443 118.311L553.826 118.275L553.889 117.895L553.396 117.814ZM553.819 115.995L553.34 115.85L553.819 115.995ZM561.894 106.634L562.119 107.081L561.894 106.634ZM562.799 106.178L562.574 105.732L562.799 106.178ZM576.127 104.757L576.243 104.27L576.127 104.757ZM579.935 106.065L579.727 106.52L580.116 106.698L580.352 106.341L579.935 106.065ZM582.147 102.722L581.73 102.446L582.147 102.722ZM595.878 93.3902L595.764 92.9033L595.878 93.3902ZM600.395 92.3341L600.509 92.821L600.395 92.3341ZM615.562 93.9851L615.787 93.5385V93.5385L615.562 93.9851ZM630.515 107.12C629.074 102.427 625.68 98.5224 621.04 96.1847L620.59 97.0778C625.005 99.3017 628.203 102.999 629.559 107.413L630.515 107.12ZM631.725 111.061L630.515 107.12L629.559 107.413L630.769 111.355L631.725 111.061ZM632.168 119.478C632.702 116.673 632.566 113.798 631.725 111.061L630.769 111.355C631.561 113.931 631.69 116.641 631.185 119.291L632.168 119.478ZM637.064 122.216C635.5 120.852 633.749 119.747 631.877 118.927L631.476 119.843C633.255 120.622 634.92 121.673 636.406 122.97L637.064 122.216ZM638.09 123.112L637.064 122.216L636.406 122.97L637.433 123.865L638.09 123.112ZM644 136.112C644 131.128 641.845 126.388 638.09 123.112L637.433 123.865C640.97 126.952 643 131.417 643 136.112H644ZM638.09 149.112C641.845 145.835 644 141.095 644 136.112H643C643 140.807 640.97 145.272 637.433 148.358L638.09 149.112ZM637.064 150.007L638.09 149.112L637.433 148.358L636.406 149.254L637.064 150.007ZM623.751 154.999C628.646 154.999 633.375 153.226 637.064 150.007L636.406 149.254C632.9 152.313 628.404 153.999 623.751 153.999V154.999ZM618.427 154.999L623.751 154.999V153.999L618.427 153.999V154.999ZM617.866 154.999H618.427V153.999H617.866V154.999ZM617.83 154C617.826 154 617.823 154 617.818 154V155C617.846 155 617.874 154.999 617.901 154.997L617.83 154ZM617.818 154H561.184V155H617.818V154ZM561.184 154C561.183 154 561.182 154 561.181 154L561.163 155C561.17 155 561.177 155 561.184 155V154ZM560.573 155H561.172V154H560.573V155ZM555.249 155L560.573 155V154L555.249 154V155ZM541.936 150.009C545.625 153.227 550.354 155 555.249 155V154C550.596 154 546.1 152.315 542.594 149.255L541.936 150.009ZM540.91 149.113L541.936 150.009L542.594 149.255L541.567 148.36L540.91 149.113ZM535 136.113C535 141.097 537.155 145.837 540.91 149.113L541.567 148.36C538.03 145.273 536 140.808 536 136.113H535ZM540.91 123.113C537.155 126.39 535 131.13 535 136.113H536C536 131.419 538.03 126.953 541.567 123.867L540.91 123.113ZM541.936 122.218L540.91 123.113L541.567 123.867L542.594 122.971L541.936 122.218ZM553.349 117.316C549.141 117.712 545.145 119.418 541.936 122.218L542.594 122.971C545.644 120.31 549.443 118.688 553.443 118.311L553.349 117.316ZM553.34 115.85C553.154 116.471 553.008 117.099 552.903 117.732L553.889 117.895C553.987 117.304 554.123 116.718 554.298 116.139L553.34 115.85ZM561.669 106.188C557.577 108.249 554.59 111.702 553.34 115.85L554.298 116.139C555.463 112.272 558.254 109.028 562.119 107.081L561.669 106.188ZM562.574 105.732L561.669 106.188L562.119 107.081L563.024 106.625L562.574 105.732ZM576.243 104.27C571.554 103.153 566.665 103.671 562.574 105.732L563.024 106.625C566.891 104.677 571.538 104.177 576.012 105.243L576.243 104.27ZM580.142 105.61C578.902 105.044 577.596 104.593 576.243 104.27L576.012 105.243C577.301 105.55 578.546 105.98 579.727 106.52L580.142 105.61ZM581.73 102.446L579.518 105.789L580.352 106.341L582.564 102.998L581.73 102.446ZM595.764 92.9033C589.945 94.2636 584.861 97.7137 581.73 102.446L582.564 102.998C585.546 98.4914 590.406 95.1829 595.991 93.8771L595.764 92.9033ZM600.281 91.8472L595.764 92.9033L595.991 93.8771L600.509 92.821L600.281 91.8472ZM615.787 93.5385C611.148 91.2018 605.606 90.6022 600.281 91.8472L600.509 92.821C605.62 91.626 610.92 92.2067 615.337 94.4316L615.787 93.5385ZM621.04 96.1847L615.787 93.5385L615.337 94.4316L620.59 97.0778L621.04 96.1847Z" fill="black"/>
</g>
<g filter="url(#filter3_d_155_1498)">
<path fill-rule="evenodd" clip-rule="evenodd" d="M98.8147 64.6312C103.342 66.9121 106.639 70.7134 108.037 75.2665L109.247 79.2078C110.063 81.865 110.196 84.6566 109.677 87.385C111.502 88.1847 113.21 89.2622 114.735 90.593L115.761 91.4885C119.408 94.67 121.5 99.2727 121.5 104.112C121.5 108.951 119.408 113.554 115.761 116.735L114.735 117.631C111.138 120.769 106.525 122.499 101.751 122.499L96.4268 122.499H95.8658C95.8501 122.5 95.8344 122.5 95.8185 122.5L39.1843 122.5C39.1803 122.5 39.1763 122.5 39.1723 122.5H38.5732L33.249 122.5C28.4748 122.5 23.8623 120.771 20.265 117.632L19.2387 116.737C15.5925 113.555 13.5 108.952 13.5 104.113C13.5 99.2743 15.5925 94.6715 19.2387 91.49L20.265 90.5946C23.3944 87.8641 27.292 86.2002 31.3959 85.8135C31.4975 85.2015 31.6385 84.5942 31.8191 83.9946C33.0266 79.9871 35.9153 76.6386 39.8941 74.6342L40.7993 74.1782C44.7781 72.1739 49.5461 71.6653 54.1274 72.7567C55.4485 73.0714 56.7241 73.5119 57.9347 74.0651L60.1465 70.7224C63.2035 66.1025 68.1756 62.7233 73.8776 61.3902L78.3947 60.3341C83.613 59.1141 89.0342 59.7042 93.5619 61.9851L98.8147 64.6312Z" fill="white"/>
<path d="M108.037 75.2665L108.515 75.1197V75.1197L108.037 75.2665ZM98.8147 64.6312L99.0397 64.1847L98.8147 64.6312ZM109.247 79.2078L108.769 79.3546V79.3546L109.247 79.2078ZM109.677 87.385L109.185 87.2915L109.111 87.683L109.476 87.8429L109.677 87.385ZM114.735 90.593L114.406 90.9698L114.735 90.593ZM115.761 91.4885L115.433 91.8652L115.761 91.4885ZM115.761 116.735L115.433 116.358L115.761 116.735ZM114.735 117.631L115.064 118.007V118.007L114.735 117.631ZM101.751 122.499V122.999V122.499ZM96.4268 122.499V121.999V122.499ZM95.8658 122.499V121.999H95.848L95.8304 122L95.8658 122.499ZM39.1723 122.5L39.1814 122H39.1723V122.5ZM38.5732 122.5V122V122.5ZM33.249 122.5V123V122.5ZM20.265 117.632L19.9363 118.009H19.9363L20.265 117.632ZM19.2387 116.737L19.5675 116.36H19.5675L19.2387 116.737ZM19.2387 91.49L18.91 91.1133L19.2387 91.49ZM20.265 90.5946L20.5938 90.9713L20.265 90.5946ZM31.3959 85.8135L31.4428 86.3113L31.8261 86.2752L31.8892 85.8954L31.3959 85.8135ZM31.8191 83.9946L31.3404 83.8503L31.8191 83.9946ZM39.8941 74.6342L40.1191 75.0808L39.8941 74.6342ZM40.7993 74.1782L40.5744 73.7317L40.7993 74.1782ZM54.1274 72.7567L54.2433 72.2703L54.1274 72.7567ZM57.9347 74.0651L57.7269 74.5198L58.1158 74.6975L58.3517 74.341L57.9347 74.0651ZM60.1465 70.7224L59.7295 70.4465L60.1465 70.7224ZM73.8776 61.3902L73.7638 60.9033L73.8776 61.3902ZM78.3947 60.3341L78.5086 60.821L78.3947 60.3341ZM93.5619 61.9851L93.7868 61.5385V61.5385L93.5619 61.9851ZM108.515 75.1197C107.074 70.4273 103.68 66.5224 99.0397 64.1847L98.5898 65.0778C103.005 67.3017 106.203 70.9995 107.559 75.4133L108.515 75.1197ZM109.725 79.061L108.515 75.1197L107.559 75.4133L108.769 79.3546L109.725 79.061ZM110.168 87.4784C110.702 84.6727 110.566 81.7985 109.725 79.061L108.769 79.3546C109.561 81.9315 109.69 84.6405 109.185 87.2915L110.168 87.4784ZM115.064 90.2163C113.5 88.8517 111.749 87.7469 109.877 86.927L109.476 87.8429C111.255 88.6224 112.92 89.6726 114.406 90.9698L115.064 90.2163ZM116.09 91.1117L115.064 90.2163L114.406 90.9698L115.433 91.8652L116.09 91.1117ZM122 104.112C122 99.1283 119.845 94.3882 116.09 91.1117L115.433 91.8652C118.97 94.9518 121 99.4171 121 104.112H122ZM116.09 117.112C119.845 113.835 122 109.095 122 104.112H121C121 108.807 118.97 113.272 115.433 116.358L116.09 117.112ZM115.064 118.007L116.09 117.112L115.433 116.358L114.406 117.254L115.064 118.007ZM101.751 122.999C106.646 122.999 111.375 121.226 115.064 118.007L114.406 117.254C110.9 120.313 106.404 121.999 101.751 121.999V122.999ZM96.4268 122.999L101.751 122.999V121.999L96.4268 121.999V122.999ZM95.8658 122.999H96.4268V121.999H95.8658V122.999ZM95.8304 122C95.8265 122 95.8225 122 95.8185 122V123C95.8462 123 95.8738 122.999 95.9012 122.997L95.8304 122ZM95.8185 122L39.1843 122V123L95.8185 123V122ZM39.1843 122C39.1831 122 39.1822 122 39.1814 122L39.1632 123C39.1704 123 39.1774 123 39.1843 123V122ZM38.5732 123H39.1723V122H38.5732V123ZM33.249 123L38.5732 123V122L33.249 122V123ZM19.9363 118.009C23.6247 121.227 28.354 123 33.249 123V122C28.5957 122 24.1 120.315 20.5937 117.255L19.9363 118.009ZM18.91 117.113L19.9363 118.009L20.5937 117.255L19.5675 116.36L18.91 117.113ZM13 104.113C13 109.097 15.1549 113.837 18.91 117.113L19.5675 116.36C16.03 113.273 14 108.808 14 104.113H13ZM18.91 91.1133C15.1549 94.3897 13 99.1298 13 104.113H14C14 99.4187 16.03 94.9533 19.5675 91.8668L18.91 91.1133ZM19.9363 90.2178L18.91 91.1133L19.5675 91.8668L20.5938 90.9713L19.9363 90.2178ZM31.349 85.3157C27.1412 85.7122 23.1449 87.4183 19.9363 90.2178L20.5938 90.9713C23.6439 88.31 27.4428 86.6882 31.4428 86.3113L31.349 85.3157ZM31.3404 83.8503C31.1535 84.4705 31.0078 85.0986 30.9027 85.7316L31.8892 85.8954C31.9873 85.3044 32.1234 84.7179 32.2979 84.1388L31.3404 83.8503ZM39.6692 74.1877C35.5767 76.2493 32.5902 79.7024 31.3404 83.8503L32.2979 84.1388C33.463 80.2719 36.2539 77.0279 40.1191 75.0808L39.6692 74.1877ZM40.5744 73.7317L39.6692 74.1877L40.1191 75.0808L41.0243 74.6248L40.5744 73.7317ZM54.2433 72.2703C49.5543 71.1533 44.6649 71.6711 40.5744 73.7317L41.0243 74.6248C44.8914 72.6767 49.5379 72.1774 54.0115 73.2431L54.2433 72.2703ZM58.1425 73.6103C56.9024 73.0437 55.5961 72.5925 54.2433 72.2703L54.0115 73.2431C55.3009 73.5502 56.5457 73.9801 57.7269 74.5198L58.1425 73.6103ZM59.7295 70.4465L57.5177 73.7891L58.3517 74.341L60.5635 70.9983L59.7295 70.4465ZM73.7638 60.9033C67.9453 62.2636 62.8613 65.7137 59.7295 70.4465L60.5635 70.9983C63.5458 66.4914 68.4059 63.1829 73.9914 61.8771L73.7638 60.9033ZM78.2809 59.8472L73.7638 60.9033L73.9914 61.8771L78.5086 60.821L78.2809 59.8472ZM93.7868 61.5385C89.1481 59.2018 83.6063 58.6022 78.2809 59.8472L78.5086 60.821C83.6197 59.626 88.9202 60.2067 93.3369 62.4316L93.7868 61.5385ZM99.0397 64.1847L93.7868 61.5385L93.3369 62.4316L98.5898 65.0778L99.0397 64.1847Z" fill="black"/>
</g>
<path d="M729.463 54.4629L730.592 56.1135C731.04 55.8072 731.344 55.3322 731.435 54.7974C731.525 54.2626 731.395 53.7139 731.073 53.277L729.463 54.4629ZM717.298 37.9418L718.908 36.7559C718.255 35.8684 717.007 35.6768 716.117 36.3276C715.227 36.9783 715.032 38.226 715.68 39.1175L717.298 37.9418ZM729.359 54.5387L727.741 55.7145C728.061 56.1536 728.544 56.4441 729.082 56.5194C729.62 56.5947 730.165 56.4482 730.592 56.1136L729.359 54.5387ZM710.224 80.7084L712.107 81.3827C712.29 80.872 712.258 80.3088 712.017 79.8224C711.777 79.3361 711.35 78.9682 710.833 78.8032L710.224 80.7084ZM690.597 74.4418L691.206 72.5365C690.156 72.2013 689.033 72.7786 688.694 73.8275C688.356 74.8764 688.929 76.0014 689.977 76.3432L690.597 74.4418ZM710.185 80.8301L709.565 82.7315C710.081 82.8998 710.643 82.8512 711.123 82.5968C711.602 82.3425 711.957 81.9043 712.107 81.3827L710.185 80.8301ZM710.185 113.17L712.107 112.617C711.957 112.096 711.602 111.658 711.123 111.403C710.643 111.149 710.081 111.1 709.565 111.268L710.185 113.17ZM690.597 119.558L689.977 117.657C688.929 117.999 688.356 119.124 688.694 120.172C689.033 121.221 690.156 121.799 691.206 121.463L690.597 119.558ZM710.224 113.292L710.833 115.197C711.35 115.032 711.777 114.664 712.017 114.178C712.258 113.691 712.29 113.128 712.107 112.617L710.224 113.292ZM729.359 139.461L730.592 137.886C730.165 137.552 729.62 137.405 729.082 137.481C728.545 137.556 728.061 137.846 727.741 138.286L729.359 139.461ZM717.298 156.058L715.68 154.882C715.032 155.774 715.227 157.022 716.117 157.672C717.007 158.323 718.255 158.132 718.908 157.244L717.298 156.058ZM729.463 139.537L731.073 140.723C731.395 140.286 731.525 139.737 731.435 139.203C731.344 138.668 731.04 138.193 730.592 137.887L729.463 139.537ZM760.436 149.537L760.501 147.538C759.959 147.521 759.432 147.724 759.043 148.102C758.653 148.481 758.434 149.001 758.436 149.544L760.436 149.537ZM760.5 170L758.5 170.006C758.504 171.108 759.398 172 760.5 172C761.602 172 762.497 171.108 762.5 170.006L760.5 170ZM760.564 149.537L762.564 149.544C762.566 149.001 762.347 148.481 761.958 148.103C761.569 147.725 761.044 147.521 760.501 147.538L760.564 149.537ZM791.538 139.538L790.411 137.886C789.962 138.192 789.658 138.668 789.567 139.203C789.475 139.738 789.606 140.287 789.928 140.724L791.538 139.538ZM803.702 156.058L802.092 157.244C802.745 158.132 803.994 158.323 804.883 157.672C805.773 157.022 805.968 155.774 805.32 154.882L803.702 156.058ZM791.642 139.463L793.26 138.287C792.941 137.848 792.457 137.558 791.92 137.482C791.383 137.407 790.838 137.553 790.411 137.887L791.642 139.463ZM810.778 113.292L808.896 112.617C808.712 113.128 808.745 113.691 808.985 114.178C809.225 114.664 809.653 115.033 810.17 115.198L810.778 113.292ZM830.403 119.558L829.794 121.463C830.844 121.799 831.968 121.221 832.306 120.172C832.645 119.124 832.071 117.999 831.023 117.657L830.403 119.558ZM810.817 113.171L811.438 111.269C810.922 111.101 810.36 111.15 809.881 111.404C809.401 111.658 809.046 112.096 808.896 112.617L810.817 113.171ZM810.817 80.8293L808.896 81.3827C809.046 81.9041 809.401 82.342 809.881 82.5962C810.36 82.8504 810.922 82.8989 811.438 82.7307L810.817 80.8293ZM830.403 74.4418L831.023 76.3432C832.071 76.0014 832.645 74.8764 832.306 73.8275C831.968 72.7786 830.844 72.2013 829.794 72.5365L830.403 74.4418ZM810.778 80.7076L810.17 78.8024C809.653 78.9674 809.225 79.3355 808.985 79.8221C808.745 80.3087 808.712 80.872 808.896 81.3828L810.778 80.7076ZM791.642 54.5373L790.411 56.1135C790.838 56.4474 791.383 56.5934 791.92 56.5179C792.457 56.4424 792.941 56.1519 793.26 55.7131L791.642 54.5373ZM803.702 37.9418L805.32 39.1175C805.968 38.226 805.773 36.9783 804.883 36.3276C803.994 35.6768 802.745 35.8684 802.092 36.7559L803.702 37.9418ZM791.538 54.4617L789.928 53.2758C789.606 53.7129 789.475 54.2621 789.567 54.7972C789.658 55.3324 789.962 55.8075 790.411 56.1135L791.538 54.4617ZM760.564 44.4625L760.501 46.4615C761.044 46.4786 761.569 46.2747 761.958 45.8966C762.347 45.5185 762.566 44.9987 762.564 44.4562L760.564 44.4625ZM760.5 24L762.5 23.9937C762.497 22.8916 761.602 22 760.5 22C759.398 22 758.504 22.8916 758.5 23.9937L760.5 24ZM760.436 44.4626L758.436 44.4563C758.434 44.9992 758.653 45.5195 759.043 45.8977C759.432 46.2758 759.959 46.4794 760.501 46.4615L760.436 44.4626ZM731.073 53.277L718.908 36.7559L715.687 39.1276L727.852 55.6488L731.073 53.277ZM715.68 39.1175L727.741 55.7145L730.977 53.3629L718.916 36.766L715.68 39.1175ZM730.592 56.1136L730.592 56.1135L728.334 52.8123C728.263 52.8606 728.194 52.9112 728.127 52.9638L730.592 56.1136ZM710.833 78.8032L691.206 72.5365L689.989 76.347L709.616 82.6137L710.833 78.8032ZM689.977 76.3432L709.565 82.7315L710.805 78.9287L691.218 72.5403L689.977 76.3432ZM712.107 81.3827L712.107 81.3827L708.342 80.0341C708.313 80.1143 708.287 80.1954 708.263 80.2774L712.107 81.3827ZM709.565 111.268L689.977 117.657L691.218 121.46L710.805 115.071L709.565 111.268ZM691.206 121.463L710.833 115.197L709.616 111.386L689.989 117.653L691.206 121.463ZM712.107 112.617L712.107 112.617L708.263 113.723C708.287 113.805 708.313 113.886 708.342 113.966L712.107 112.617ZM727.741 138.286L715.68 154.882L718.916 157.234L730.977 140.637L727.741 138.286ZM718.908 157.244L731.073 140.723L727.852 138.351L715.687 154.872L718.908 157.244ZM730.592 137.887L730.592 137.886L728.126 141.036C728.194 141.089 728.263 141.139 728.333 141.188L730.592 137.887ZM758.436 149.544L758.5 170.006L762.5 169.994L762.436 149.531L758.436 149.544ZM762.5 170.006L762.564 149.544L758.564 149.531L758.5 169.994L762.5 170.006ZM760.501 147.538H760.501L760.37 151.536C760.456 151.539 760.542 151.539 760.627 151.536L760.501 147.538ZM789.928 140.724L802.092 157.244L805.313 154.872L793.149 138.352L789.928 140.724ZM805.32 154.882L793.26 138.287L790.024 140.638L802.084 157.234L805.32 154.882ZM790.411 137.887L790.411 137.886L792.666 141.19C792.736 141.142 792.806 141.091 792.873 141.039L790.411 137.887ZM810.17 115.198L829.794 121.463L831.011 117.653L811.387 111.387L810.17 115.198ZM831.023 117.657L811.438 111.269L810.197 115.072L829.783 121.46L831.023 117.657ZM808.896 112.617L808.896 112.617L812.661 113.968C812.69 113.887 812.716 113.806 812.739 113.724L808.896 112.617ZM811.438 82.7307L831.023 76.3432L829.783 72.5403L810.197 78.9278L811.438 82.7307ZM829.794 72.5365L810.17 78.8024L811.387 82.6129L831.011 76.347L829.794 72.5365ZM808.896 81.3828L808.896 81.3827L812.739 80.2758C812.716 80.1939 812.69 80.1127 812.661 80.0324L808.896 81.3828ZM793.26 55.7131L805.32 39.1175L802.084 36.766L790.024 53.3616L793.26 55.7131ZM802.092 36.7559L789.928 53.2758L793.149 55.6475L805.313 39.1276L802.092 36.7559ZM790.411 56.1135L790.411 56.1135L792.873 52.9611C792.806 52.9086 792.736 52.8581 792.666 52.8098L790.411 56.1135ZM762.564 44.4562L762.5 23.9937L758.5 24.0063L758.564 44.4688L762.564 44.4562ZM758.5 23.9937L758.436 44.4563L762.436 44.4689L762.5 24.0063L758.5 23.9937ZM760.501 46.4615H760.501L760.627 42.4635C760.542 42.4608 760.456 42.4609 760.37 42.4637L760.501 46.4615Z" fill="#EB5757"/>
<path d="M756.815 64.497C759.211 63.7238 761.789 63.7238 764.185 64.497L776.737 68.5475C779.144 69.3242 781.243 70.8414 782.737 72.8826L790.448 83.4242C791.952 85.4803 792.763 87.9617 792.763 90.5092V103.491C792.763 106.038 791.952 108.52 790.448 110.576L782.737 121.117C781.243 123.159 779.144 124.676 776.737 125.453L764.185 129.503C761.789 130.276 759.211 130.276 756.815 129.503L744.263 125.453C741.856 124.676 739.757 123.159 738.263 121.117L730.552 110.576C729.048 108.52 728.237 106.038 728.237 103.491V90.5092C728.237 87.9617 729.048 85.4803 730.552 83.4242L738.263 72.8826C739.757 70.8414 741.856 69.3242 744.263 68.5475L756.815 64.497Z" fill="#F2C94C" stroke="#F2C94C" stroke-width="4" stroke-linecap="square" stroke-linejoin="round"/>
<defs>
<filter id="filter0_d_155_1498" x="353" y="0" width="143" height="128" filterUnits="userSpaceOnUse" color-interpolation-filters="sRGB">
<feFlood flood-opacity="0" result="BackgroundImageFix"/>
<feColorMatrix in="SourceAlpha" type="matrix" values="0 0 0 0 0 0 0 0 0 0 0 0 0 0 0 0 0 0 127 0" result="hardAlpha"/>
<feOffset dy="4"/>
<feGaussianBlur stdDeviation="2"/>
<feComposite in2="hardAlpha" operator="out"/>
<feColorMatrix type="matrix" values="0 0 0 0 0 0 0 0 0 0 0 0 0 0 0 0 0 0 0.25 0"/>
<feBlend mode="normal" in2="BackgroundImageFix" result="effect1_dropShadow_155_1498"/>
<feBlend mode="normal" in="SourceGraphic" in2="effect1_dropShadow_155_1498" result="shape"/>
</filter>
<filter id="filter1_d_155_1498" x="175" y="78" width="143" height="128" filterUnits="userSpaceOnUse" color-interpolation-filters="sRGB">
<feFlood flood-opacity="0" result="BackgroundImageFix"/>
<feColorMatrix in="SourceAlpha" type="matrix" values="0 0 0 0 0 0 0 0 0 0 0 0 0 0 0 0 0 0 127 0" result="hardAlpha"/>
<feOffset dy="4"/>
<feGaussianBlur stdDeviation="2"/>
<feComposite in2="hardAlpha" operator="out"/>
<feColorMatrix type="matrix" values="0 0 0 0 0 0 0 0 0 0 0 0 0 0 0 0 0 0 0.25 0"/>
<feBlend mode="normal" in2="BackgroundImageFix" result="effect1_dropShadow_155_1498"/>
<feBlend mode="normal" in="SourceGraphic" in2="effect1_dropShadow_155_1498" result="shape"/>
</filter>
<filter id="filter2_d_155_1498" x="518" y="63" width="143" height="128" filterUnits="userSpaceOnUse" color-interpolation-filters="sRGB">
<feFlood flood-opacity="0" result="BackgroundImageFix"/>
<feColorMatrix in="SourceAlpha" type="matrix" values="0 0 0 0 0 0 0 0 0 0 0 0 0 0 0 0 0 0 127 0" result="hardAlpha"/>
<feOffset dy="4"/>
<feGaussianBlur stdDeviation="2"/>
<feComposite in2="hardAlpha" operator="out"/>
<feColorMatrix type="matrix" values="0 0 0 0 0 0 0 0 0 0 0 0 0 0 0 0 0 0 0.25 0"/>
<feBlend mode="normal" in2="BackgroundImageFix" result="effect1_dropShadow_155_1498"/>
<feBlend mode="normal" in="SourceGraphic" in2="effect1_dropShadow_155_1498" result="shape"/>
</filter>
<filter id="filter3_d_155_1498" x="-4" y="31" width="143" height="128" filterUnits="userSpaceOnUse" color-interpolation-filters="sRGB">
<feFlood flood-opacity="0" result="BackgroundImageFix"/>
<feColorMatrix in="SourceAlpha" type="matrix" values="0 0 0 0 0 0 0 0 0 0 0 0 0 0 0 0 0 0 127 0" result="hardAlpha"/>
<feOffset dy="4"/>
<feGaussianBlur stdDeviation="2"/>
<feComposite in2="hardAlpha" operator="out"/>
<feColorMatrix type="matrix" values="0 0 0 0 0 0 0 0 0 0 0 0 0 0 0 0 0 0 0.25 0"/>
<feBlend mode="normal" in2="BackgroundImageFix" result="effect1_dropShadow_155_1498"/>
<feBlend mode="normal" in="SourceGraphic" in2="effect1_dropShadow_155_1498" result="shape"/>
</filter>
</defs>
</svg>
