<svg width="1097" height="132" viewBox="0 0 1097 132" fill="none" xmlns="http://www.w3.org/2000/svg">
<g filter="url(#filter0_d_236_2046)">
<path fill-rule="evenodd" clip-rule="evenodd" d="M277.186 27.3411C281.727 29.6805 285.034 33.5723 286.429 38.2181L286.614 38.8339C287.402 41.4565 287.545 44.2024 287.073 46.8871C288.704 47.5765 290.224 48.5331 291.567 49.7314L292.265 50.354C295.277 53.0424 297 56.8886 297 60.9265C297 64.9644 295.277 68.8105 292.265 71.499L291.567 72.1215C288.588 74.7798 284.735 76.2489 280.743 76.2489H276.113C276.1 76.2498 276.087 76.2503 276.074 76.2503H229.928C229.925 76.2503 229.922 76.2503 229.918 76.2502H225.257C221.265 76.2502 217.412 74.7811 214.433 72.1228L213.735 71.5003C210.723 68.8118 209 64.9657 209 60.9278C209 56.8899 210.723 53.0437 213.735 50.3553L214.433 49.7327C216.991 47.4504 220.193 46.0447 223.574 45.6927C223.656 45.1923 223.77 44.6955 223.914 44.2046C224.905 40.8397 227.291 38.0186 230.574 36.3267L231.176 36.0169C234.46 34.3251 238.39 33.8924 242.151 34.8088C243.214 35.0675 244.238 35.4281 245.211 35.8799L246.231 34.3027C249.22 29.684 254.09 26.3069 259.697 24.9663L260.387 24.8013C265.594 23.5564 271.024 24.1662 275.565 26.5057L277.186 27.3411Z" fill="white"/>
<path d="M286.429 38.2181L286.908 38.0743L286.908 38.0743L286.429 38.2181ZM277.186 27.3411L277.415 26.8966L277.415 26.8966L277.186 27.3411ZM286.614 38.8339L286.135 38.9777L286.135 38.9777L286.614 38.8339ZM287.073 46.8871L286.58 46.8005L286.511 47.1926L286.878 47.3476L287.073 46.8871ZM291.567 49.7314L291.234 50.1045L291.234 50.1045L291.567 49.7314ZM292.265 50.354L292.597 49.9809L292.597 49.9809L292.265 50.354ZM292.265 71.499L291.932 71.1259L291.932 71.1259L292.265 71.499ZM291.567 72.1215L291.9 72.4946L291.9 72.4946L291.567 72.1215ZM276.113 76.2489V75.7489H276.095L276.077 75.7502L276.113 76.2489ZM229.918 76.2502L229.927 75.7502H229.918V76.2502ZM214.433 72.1228L214.766 71.7498L214.766 71.7498L214.433 72.1228ZM213.735 71.5003L213.403 71.8733L213.403 71.8733L213.735 71.5003ZM213.735 50.3553L214.068 50.7283L214.068 50.7283L213.735 50.3553ZM214.433 49.7327L214.1 49.3597L214.1 49.3597L214.433 49.7327ZM223.574 45.6927L223.626 46.19L224.005 46.1505L224.067 45.7739L223.574 45.6927ZM223.914 44.2046L223.435 44.0633L223.435 44.0633L223.914 44.2046ZM230.574 36.3267L230.345 35.8823L230.345 35.8823L230.574 36.3267ZM231.176 36.0169L231.405 36.4614L231.405 36.4614L231.176 36.0169ZM242.151 34.8088L242.033 35.2945L242.033 35.2945L242.151 34.8088ZM245.211 35.8799L245 36.3333L245.395 36.5165L245.631 36.1515L245.211 35.8799ZM246.231 34.3027L245.812 34.0311L245.812 34.0311L246.231 34.3027ZM259.697 24.9663L259.581 24.48L259.581 24.48L259.697 24.9663ZM260.387 24.8013L260.504 25.2875L260.504 25.2875L260.387 24.8013ZM275.565 26.5057L275.336 26.9502L275.336 26.9502L275.565 26.5057ZM286.908 38.0743C285.472 33.291 282.07 29.2945 277.415 26.8966L276.957 27.7856C281.385 30.0665 284.597 33.8536 285.95 38.3619L286.908 38.0743ZM287.093 38.6901L286.908 38.0743L285.95 38.3619L286.135 38.9777L287.093 38.6901ZM287.565 46.9737C288.051 44.2144 287.904 41.3894 287.093 38.6901L286.135 38.9777C286.9 41.5235 287.039 44.1905 286.58 46.8005L287.565 46.9737ZM291.9 49.3584C290.516 48.1232 288.948 47.1371 287.267 46.4265L286.878 47.3476C288.459 48.0158 289.932 48.943 291.234 50.1045L291.9 49.3584ZM292.597 49.9809L291.9 49.3584L291.234 50.1045L291.932 50.727L292.597 49.9809ZM297.5 60.9265C297.5 56.7461 295.717 52.7642 292.597 49.9809L291.932 50.727C294.838 53.3206 296.5 57.031 296.5 60.9265H297.5ZM292.597 71.872C295.717 69.0887 297.5 65.1069 297.5 60.9265H296.5C296.5 64.8219 294.838 68.5323 291.932 71.1259L292.597 71.872ZM291.9 72.4946L292.597 71.872L291.932 71.1259L291.234 71.7484L291.9 72.4946ZM280.743 76.7489C284.858 76.7489 288.829 75.2346 291.9 72.4946L291.234 71.7484C288.347 74.3249 284.612 75.7489 280.743 75.7489V76.7489ZM276.113 76.7489H280.743V75.7489H276.113V76.7489ZM276.077 75.7502C276.077 75.7503 276.075 75.7503 276.074 75.7503V76.7503C276.099 76.7503 276.124 76.7494 276.149 76.7476L276.077 75.7502ZM276.074 75.7503H229.928V76.7503H276.074V75.7503ZM229.928 75.7503L229.927 75.7503L229.909 76.7501C229.916 76.7503 229.922 76.7503 229.928 76.7503V75.7503ZM225.257 76.7502H229.918V75.7502H225.257V76.7502ZM214.1 72.4959C217.171 75.2359 221.142 76.7502 225.257 76.7502V75.7502C221.388 75.7502 217.653 74.3263 214.766 71.7498L214.1 72.4959ZM213.403 71.8733L214.1 72.4959L214.766 71.7498L214.068 71.1272L213.403 71.8733ZM208.5 60.9278C208.5 65.1082 210.283 69.09 213.403 71.8733L214.068 71.1272C211.162 68.5336 209.5 64.8232 209.5 60.9278H208.5ZM213.403 49.9822C210.283 52.7655 208.5 56.7474 208.5 60.9278H209.5C209.5 57.0323 211.162 53.3219 214.068 50.7283L213.403 49.9822ZM214.1 49.3597L213.403 49.9822L214.068 50.7283L214.766 50.1058L214.1 49.3597ZM223.522 45.1954C220.037 45.5582 216.736 47.0072 214.1 49.3597L214.766 50.1058C217.245 47.8937 220.348 46.5312 223.626 46.19L223.522 45.1954ZM223.435 44.0633C223.284 44.5741 223.166 45.0909 223.081 45.6115L224.067 45.7739C224.146 45.2937 224.255 44.817 224.394 44.3459L223.435 44.0633ZM230.345 35.8823C226.947 37.633 224.467 40.5598 223.435 44.0633L224.394 44.3459C225.344 41.1197 227.634 38.4042 230.803 36.7712L230.345 35.8823ZM230.947 35.5724L230.345 35.8823L230.803 36.7712L231.405 36.4614L230.947 35.5724ZM242.27 34.323C238.398 33.3796 234.343 33.8226 230.947 35.5724L231.405 36.4614C234.576 34.8275 238.383 34.4052 242.033 35.2945L242.27 34.323ZM245.422 35.4264C244.42 34.9609 243.364 34.5895 242.27 34.323L242.033 35.2945C243.063 35.5456 244.057 35.8953 245 36.3333L245.422 35.4264ZM245.812 34.0311L244.791 35.6082L245.631 36.1515L246.651 34.5743L245.812 34.0311ZM259.581 24.48C253.856 25.8489 248.873 29.2989 245.812 34.0311L246.651 34.5743C249.566 30.0691 254.325 26.7649 259.814 25.4526L259.581 24.48ZM260.271 24.315L259.581 24.48L259.814 25.4526L260.504 25.2875L260.271 24.315ZM275.794 26.0612C271.141 23.6642 265.588 23.0437 260.271 24.315L260.504 25.2875C265.6 24.0691 270.907 24.6683 275.336 26.9502L275.794 26.0612ZM277.415 26.8966L275.794 26.0612L275.336 26.9502L276.957 27.7856L277.415 26.8966Z" fill="black"/>
</g>
<path d="M1000.08 29.8893L1001.27 31.4945C1001.7 31.1716 1001.99 30.6865 1002.06 30.1499C1002.13 29.6133 1001.98 29.071 1001.64 28.6469L1000.08 29.8893ZM989.015 15.9364L990.582 14.694C989.897 13.8304 988.643 13.6833 987.777 14.3652C986.911 15.047 986.76 16.3008 987.439 17.1688L989.015 15.9364ZM999.986 29.9596L998.411 31.192C998.744 31.6185 999.237 31.8915 999.775 31.9485C1000.31 32.0055 1000.85 31.8417 1001.27 31.4945L999.986 29.9596ZM982.331 52.5031L984.23 53.129C984.4 52.6154 984.354 52.055 984.103 51.5758C983.852 51.0966 983.418 50.7394 982.9 50.5856L982.331 52.5031ZM964.405 47.1864L964.973 45.269C963.916 44.9556 962.805 45.5563 962.489 46.6122C962.172 47.668 962.77 48.7809 963.825 49.1005L964.405 47.1864ZM982.3 52.6077L981.72 54.5218C982.237 54.6786 982.797 54.619 983.27 54.3566C983.743 54.0942 984.089 53.6514 984.23 53.1291L982.3 52.6077ZM982.3 80.3923L984.23 79.871C984.089 79.3487 983.743 78.9058 983.27 78.6434C982.797 78.381 982.237 78.3214 981.72 78.4782L982.3 80.3923ZM964.405 85.8136L963.825 83.8995C962.77 84.2191 962.172 85.332 962.489 86.3878C962.805 87.4437 963.916 88.0444 964.973 87.731L964.405 85.8136ZM982.331 80.4969L982.9 82.4144C983.418 82.2606 983.852 81.9034 984.103 81.4242C984.354 80.945 984.4 80.3847 984.23 79.871L982.331 80.4969ZM999.986 103.04L1001.27 101.506C1000.85 101.158 1000.31 100.994 999.775 101.052C999.237 101.109 998.744 101.381 998.411 101.808L999.986 103.04ZM989.015 117.064L987.439 115.831C986.76 116.699 986.911 117.953 987.777 118.635C988.643 119.317 989.897 119.17 990.582 118.306L989.015 117.064ZM1000.08 103.111L1001.64 104.353C1001.98 103.929 1002.13 103.387 1002.06 102.85C1001.99 102.314 1001.7 101.828 1001.27 101.506L1000.08 103.111ZM1028.78 111.768L1028.84 109.769C1028.29 109.753 1027.77 109.957 1027.38 110.336C1026.99 110.714 1026.77 111.233 1026.78 111.775L1028.78 111.768ZM1028.83 129L1026.83 129.007C1026.84 130.109 1027.73 131 1028.83 131C1029.94 131 1030.83 130.109 1030.83 129.007L1028.83 129ZM1028.89 111.768L1030.89 111.775C1030.89 111.234 1030.68 110.715 1030.29 110.337C1029.9 109.959 1029.38 109.754 1028.84 109.769L1028.89 111.768ZM1057.6 103.112L1056.4 101.506C1055.97 101.828 1055.68 102.313 1055.61 102.85C1055.54 103.387 1055.69 103.93 1056.03 104.354L1057.6 103.112ZM1068.65 117.064L1067.09 118.306C1067.77 119.17 1069.03 119.317 1069.89 118.635C1070.76 117.953 1070.91 116.699 1070.23 115.831L1068.65 117.064ZM1057.68 103.042L1059.26 101.809C1058.93 101.383 1058.43 101.11 1057.9 101.053C1057.36 100.996 1056.82 101.159 1056.4 101.506L1057.68 103.042ZM1075.34 80.4976L1073.44 79.8711C1073.27 80.3848 1073.32 80.9452 1073.57 81.4246C1073.82 81.9039 1074.25 82.2612 1074.77 82.4151L1075.34 80.4976ZM1093.26 85.8136L1092.7 87.731C1093.75 88.0444 1094.86 87.4437 1095.18 86.3878C1095.5 85.332 1094.9 84.2191 1093.84 83.8995L1093.26 85.8136ZM1075.37 80.393L1075.95 78.4789C1075.43 78.3221 1074.88 78.3817 1074.4 78.6439C1073.93 78.9062 1073.58 79.3488 1073.44 79.8709L1075.37 80.393ZM1075.37 52.607L1073.44 53.1292C1073.58 53.6512 1073.93 54.0939 1074.4 54.3561C1074.88 54.6184 1075.43 54.6779 1075.95 54.5211L1075.37 52.607ZM1093.26 47.1864L1093.84 49.1005C1094.9 48.7809 1095.5 47.668 1095.18 46.6122C1094.86 45.5563 1093.75 44.9556 1092.7 45.269L1093.26 47.1864ZM1075.34 52.5024L1074.77 50.5849C1074.25 50.7387 1073.82 51.0961 1073.57 51.5754C1073.32 52.0547 1073.27 52.6152 1073.44 53.1289L1075.34 52.5024ZM1057.68 29.9583L1056.4 31.4944C1056.82 31.841 1057.36 32.0043 1057.9 31.9471C1058.43 31.8899 1058.93 31.617 1059.26 31.1907L1057.68 29.9583ZM1068.65 15.9364L1070.23 17.1688C1070.91 16.3008 1070.76 15.047 1069.89 14.3652C1069.03 13.6833 1067.77 13.8304 1067.09 14.694L1068.65 15.9364ZM1057.6 29.8881L1056.03 28.6457C1055.69 29.0701 1055.54 29.6128 1055.61 30.1497C1055.68 30.6867 1055.97 31.1719 1056.4 31.4945L1057.6 29.8881ZM1028.89 21.2316L1028.84 23.2308C1029.38 23.2462 1029.9 23.0415 1030.29 22.6635C1030.68 22.2854 1030.89 21.7663 1030.89 21.2248L1028.89 21.2316ZM1028.83 4L1030.83 3.99324C1030.83 2.89131 1029.94 2 1028.83 2C1027.73 2 1026.84 2.89131 1026.83 3.99324L1028.83 4ZM1028.78 21.2317L1026.78 21.2249C1026.77 21.7668 1026.99 22.2863 1027.38 22.6644C1027.77 23.0425 1028.29 23.2469 1028.84 23.2308L1028.78 21.2317ZM1001.64 28.6469L990.582 14.694L987.447 17.1788L998.508 31.1317L1001.64 28.6469ZM987.439 17.1688L998.411 31.192L1001.56 28.7272L990.59 14.7041L987.439 17.1688ZM1001.27 31.4945L1001.27 31.4945L998.882 28.2841C998.821 28.3293 998.762 28.3762 998.704 28.4248L1001.27 31.4945ZM982.9 50.5856L964.973 45.269L963.836 49.1039L981.762 54.4205L982.9 50.5856ZM963.825 49.1005L981.72 54.5218L982.879 50.6936L964.984 45.2723L963.825 49.1005ZM984.23 53.1291L984.23 53.129L980.431 51.8771C980.409 51.9462 980.388 52.0159 980.369 52.0863L984.23 53.1291ZM981.72 78.4782L963.825 83.8995L964.984 87.7277L982.879 82.3064L981.72 78.4782ZM964.973 87.731L982.9 82.4144L981.762 78.5795L963.836 83.8961L964.973 87.731ZM984.23 79.871L984.23 79.871L980.369 80.9137C980.388 80.9841 980.409 81.0538 980.431 81.1228L984.23 79.871ZM998.411 101.808L987.439 115.831L990.59 118.296L1001.56 104.273L998.411 101.808ZM990.582 118.306L1001.64 104.353L998.508 101.868L987.447 115.821L990.582 118.306ZM1001.27 101.506L1001.27 101.506L998.704 104.575C998.762 104.624 998.821 104.671 998.882 104.716L1001.27 101.506ZM1026.78 111.775L1026.83 129.007L1030.83 128.993L1030.78 111.762L1026.78 111.775ZM1030.83 129.007L1030.89 111.775L1026.89 111.762L1026.83 128.993L1030.83 129.007ZM1028.84 109.769L1028.84 109.769L1028.72 113.767C1028.79 113.77 1028.87 113.77 1028.95 113.768L1028.84 109.769ZM1056.03 104.354L1067.09 118.306L1070.22 115.821L1059.16 101.869L1056.03 104.354ZM1070.23 115.831L1059.26 101.809L1056.11 104.274L1067.08 118.296L1070.23 115.831ZM1056.4 101.506L1056.4 101.506L1058.79 104.718C1058.85 104.673 1058.91 104.626 1058.97 104.578L1056.4 101.506ZM1074.77 82.4151L1092.7 87.731L1093.83 83.8961L1075.91 78.5802L1074.77 82.4151ZM1093.84 83.8995L1075.95 78.4789L1074.79 82.3071L1092.68 87.7277L1093.84 83.8995ZM1073.44 79.8709L1073.44 79.8711L1077.24 81.1242C1077.26 81.0552 1077.28 80.9855 1077.3 80.9152L1073.44 79.8709ZM1075.95 54.5211L1093.84 49.1005L1092.68 45.2723L1074.79 50.6929L1075.95 54.5211ZM1092.7 45.269L1074.77 50.5849L1075.91 54.4198L1093.83 49.1039L1092.7 45.269ZM1073.44 53.1289L1073.44 53.1292L1077.3 52.0847C1077.28 52.0142 1077.26 51.9446 1077.24 51.8759L1073.44 53.1289ZM1059.26 31.1907L1070.23 17.1688L1067.08 14.7041L1056.11 28.7259L1059.26 31.1907ZM1067.09 14.694L1056.03 28.6457L1059.16 31.1305L1070.22 17.1788L1067.09 14.694ZM1056.4 31.4945L1056.4 31.4944L1058.97 28.4222C1058.91 28.3738 1058.85 28.3269 1058.79 28.2817L1056.4 31.4945ZM1030.89 21.2248L1030.83 3.99324L1026.83 4.00676L1026.89 21.2383L1030.89 21.2248ZM1026.83 3.99324L1026.78 21.2249L1030.78 21.2384L1030.83 4.00676L1026.83 3.99324ZM1028.84 23.2308L1028.84 23.2308L1028.95 19.2324C1028.87 19.2302 1028.79 19.2302 1028.72 19.2325L1028.84 23.2308Z" fill="#EB5757"/>
<path d="M1025.39 38.6867C1027.64 38.0129 1030.03 38.0129 1032.28 38.6867L1043.58 42.0735C1045.94 42.7825 1048.03 44.2039 1049.56 46.1438L1056 54.3195C1057.67 56.4355 1058.57 59.0505 1058.57 61.7439V71.256C1058.57 73.9494 1057.67 76.5645 1056 78.6804L1049.56 86.8562C1048.03 88.7961 1045.94 90.2174 1043.58 90.9264L1032.28 94.3132C1030.03 94.987 1027.64 94.987 1025.39 94.3132L1014.09 90.9264C1011.73 90.2174 1009.64 88.7961 1008.11 86.8562L1001.67 78.6804C1000 76.5645 999.098 73.9494 999.098 71.256V61.7439C999.098 59.0505 1000 56.4355 1001.67 54.3195L1008.11 46.1438C1009.64 44.2039 1011.73 42.7825 1014.09 42.0735L1025.39 38.6867Z" fill="#F2C94C" stroke="#F2C94C" stroke-width="4" stroke-linecap="square" stroke-linejoin="round"/>
<g filter="url(#filter1_d_236_2046)">
<path fill-rule="evenodd" clip-rule="evenodd" d="M607.186 59.3411C611.727 61.6805 615.034 65.5723 616.429 70.2181L616.614 70.8339C617.402 73.4565 617.545 76.2024 617.073 78.8871C618.704 79.5765 620.224 80.5331 621.567 81.7314L622.265 82.354C625.277 85.0424 627 88.8886 627 92.9265C627 96.9644 625.277 100.81 622.265 103.499L621.567 104.122C618.588 106.78 614.735 108.249 610.743 108.249H606.113C606.1 108.25 606.087 108.25 606.074 108.25H559.928C559.925 108.25 559.922 108.25 559.918 108.25H555.257C551.265 108.25 547.412 106.781 544.433 104.123L543.735 103.5C540.723 100.812 539 96.9657 539 92.9278C539 88.8899 540.723 85.0437 543.735 82.3553L544.433 81.7327C546.991 79.4504 550.193 78.0447 553.574 77.6927C553.656 77.1923 553.77 76.6955 553.914 76.2046C554.905 72.8397 557.291 70.0186 560.574 68.3267L561.176 68.0169C564.46 66.3251 568.39 65.8924 572.151 66.8088C573.214 67.0675 574.238 67.4281 575.211 67.8799L576.231 66.3027C579.22 61.684 584.09 58.3069 589.697 56.9663L590.387 56.8013C595.594 55.5564 601.024 56.1662 605.565 58.5057L607.186 59.3411Z" fill="white"/>
<path d="M616.429 70.2181L616.908 70.0743L616.908 70.0743L616.429 70.2181ZM607.186 59.3411L607.415 58.8966L607.415 58.8966L607.186 59.3411ZM616.614 70.8339L616.135 70.9777L616.135 70.9777L616.614 70.8339ZM617.073 78.8871L616.58 78.8005L616.511 79.1926L616.878 79.3476L617.073 78.8871ZM621.567 81.7314L621.234 82.1045L621.234 82.1045L621.567 81.7314ZM622.265 82.354L622.597 81.9809L622.597 81.9809L622.265 82.354ZM622.265 103.499L621.932 103.126L621.932 103.126L622.265 103.499ZM621.567 104.122L621.9 104.495L621.9 104.495L621.567 104.122ZM606.113 108.249V107.749H606.095L606.077 107.75L606.113 108.249ZM559.918 108.25L559.927 107.75H559.918V108.25ZM544.433 104.123L544.766 103.75L544.766 103.75L544.433 104.123ZM543.735 103.5L543.403 103.873L543.403 103.873L543.735 103.5ZM543.735 82.3553L543.403 81.9822L543.403 81.9822L543.735 82.3553ZM544.433 81.7327L544.766 82.1058L544.766 82.1058L544.433 81.7327ZM553.574 77.6927L553.626 78.19L554.005 78.1505L554.067 77.7739L553.574 77.6927ZM553.914 76.2046L553.435 76.0633L553.435 76.0633L553.914 76.2046ZM560.574 68.3267L560.345 67.8823L560.345 67.8823L560.574 68.3267ZM561.176 68.0169L561.405 68.4614L561.405 68.4614L561.176 68.0169ZM572.151 66.8088L572.033 67.2945L572.033 67.2945L572.151 66.8088ZM575.211 67.8799L575 68.3333L575.395 68.5165L575.631 68.1515L575.211 67.8799ZM576.231 66.3027L575.812 66.0311L575.812 66.0311L576.231 66.3027ZM589.697 56.9663L589.581 56.48L589.581 56.48L589.697 56.9663ZM590.387 56.8013L590.504 57.2875L590.504 57.2875L590.387 56.8013ZM605.565 58.5057L605.336 58.9502L605.336 58.9502L605.565 58.5057ZM616.908 70.0743C615.472 65.291 612.07 61.2945 607.415 58.8966L606.957 59.7856C611.385 62.0665 614.597 65.8536 615.95 70.3619L616.908 70.0743ZM617.093 70.6901L616.908 70.0743L615.95 70.3619L616.135 70.9777L617.093 70.6901ZM617.565 78.9737C618.051 76.2144 617.904 73.3894 617.093 70.6901L616.135 70.9777C616.9 73.5235 617.039 76.1905 616.58 78.8005L617.565 78.9737ZM621.9 81.3584C620.516 80.1232 618.948 79.1371 617.267 78.4265L616.878 79.3476C618.459 80.0158 619.932 80.943 621.234 82.1045L621.9 81.3584ZM622.597 81.9809L621.9 81.3584L621.234 82.1045L621.932 82.727L622.597 81.9809ZM627.5 92.9265C627.5 88.7461 625.717 84.7642 622.597 81.9809L621.932 82.727C624.838 85.3206 626.5 89.031 626.5 92.9265H627.5ZM622.597 103.872C625.717 101.089 627.5 97.1069 627.5 92.9265H626.5C626.5 96.8219 624.838 100.532 621.932 103.126L622.597 103.872ZM621.9 104.495L622.597 103.872L621.932 103.126L621.234 103.748L621.9 104.495ZM610.743 108.749C614.858 108.749 618.829 107.235 621.9 104.495L621.234 103.748C618.347 106.325 614.612 107.749 610.743 107.749V108.749ZM606.113 108.749H610.743V107.749H606.113V108.749ZM606.077 107.75C606.077 107.75 606.075 107.75 606.074 107.75V108.75C606.099 108.75 606.124 108.749 606.149 108.748L606.077 107.75ZM606.074 107.75H559.928V108.75H606.074V107.75ZM559.928 107.75L559.927 107.75L559.909 108.75C559.916 108.75 559.922 108.75 559.928 108.75V107.75ZM555.257 108.75H559.918V107.75H555.257V108.75ZM544.1 104.496C547.171 107.236 551.142 108.75 555.257 108.75V107.75C551.388 107.75 547.653 106.326 544.766 103.75L544.1 104.496ZM543.403 103.873L544.1 104.496L544.766 103.75L544.068 103.127L543.403 103.873ZM538.5 92.9278C538.5 97.1082 540.283 101.09 543.403 103.873L544.068 103.127C541.162 100.534 539.5 96.8232 539.5 92.9278H538.5ZM543.403 81.9822C540.283 84.7655 538.5 88.7474 538.5 92.9278H539.5C539.5 89.0323 541.162 85.3219 544.068 82.7283L543.403 81.9822ZM544.1 81.3597L543.403 81.9822L544.068 82.7283L544.766 82.1058L544.1 81.3597ZM553.522 77.1954C550.037 77.5582 546.736 79.0072 544.1 81.3597L544.766 82.1058C547.245 79.8937 550.348 78.5312 553.626 78.19L553.522 77.1954ZM553.435 76.0633C553.284 76.5741 553.166 77.0909 553.081 77.6115L554.067 77.7739C554.146 77.2937 554.255 76.817 554.394 76.3459L553.435 76.0633ZM560.345 67.8823C556.947 69.633 554.467 72.5598 553.435 76.0633L554.394 76.3459C555.344 73.1197 557.634 70.4042 560.803 68.7712L560.345 67.8823ZM560.947 67.5724L560.345 67.8823L560.803 68.7712L561.405 68.4614L560.947 67.5724ZM572.27 66.323C568.398 65.3796 564.343 65.8226 560.947 67.5724L561.405 68.4614C564.576 66.8275 568.383 66.4052 572.033 67.2945L572.27 66.323ZM575.422 67.4264C574.42 66.9609 573.364 66.5895 572.27 66.323L572.033 67.2945C573.063 67.5456 574.057 67.8953 575 68.3333L575.422 67.4264ZM575.812 66.0311L574.791 67.6082L575.631 68.1515L576.651 66.5743L575.812 66.0311ZM589.581 56.48C583.856 57.8489 578.873 61.2989 575.812 66.0311L576.651 66.5743C579.566 62.0691 584.325 58.7649 589.814 57.4526L589.581 56.48ZM590.271 56.315L589.581 56.48L589.814 57.4526L590.504 57.2875L590.271 56.315ZM605.794 58.0612C601.141 55.6642 595.588 55.0437 590.271 56.315L590.504 57.2875C595.6 56.0691 600.907 56.6683 605.336 58.9502L605.794 58.0612ZM607.415 58.8966L605.794 58.0612L605.336 58.9502L606.957 59.7856L607.415 58.8966Z" fill="black"/>
</g>
<g filter="url(#filter2_d_236_2046)">
<path fill-rule="evenodd" clip-rule="evenodd" d="M497.186 27.3411C501.727 29.6805 505.034 33.5723 506.429 38.2181L506.614 38.8339C507.402 41.4565 507.545 44.2024 507.073 46.8871C508.704 47.5765 510.224 48.5331 511.567 49.7314L512.265 50.354C515.277 53.0424 517 56.8886 517 60.9265C517 64.9644 515.277 68.8105 512.265 71.499L511.567 72.1215C508.588 74.7798 504.735 76.2489 500.743 76.2489H496.113C496.1 76.2498 496.087 76.2503 496.074 76.2503H449.928C449.925 76.2503 449.922 76.2503 449.918 76.2502H445.257C441.265 76.2502 437.412 74.7811 434.433 72.1228L433.735 71.5003C430.723 68.8118 429 64.9657 429 60.9278C429 56.8899 430.723 53.0437 433.735 50.3553L434.433 49.7327C436.991 47.4504 440.193 46.0447 443.574 45.6927C443.656 45.1923 443.77 44.6955 443.914 44.2046C444.905 40.8397 447.291 38.0186 450.574 36.3267L451.176 36.0169C454.46 34.3251 458.39 33.8924 462.151 34.8088C463.214 35.0675 464.238 35.4281 465.211 35.8799L466.231 34.3027C469.22 29.684 474.09 26.3069 479.697 24.9663L480.387 24.8013C485.594 23.5564 491.024 24.1662 495.565 26.5057L497.186 27.3411Z" fill="white"/>
<path d="M506.429 38.2181L506.908 38.0743L506.908 38.0743L506.429 38.2181ZM497.186 27.3411L497.415 26.8966L497.415 26.8966L497.186 27.3411ZM506.614 38.8339L506.135 38.9777L506.135 38.9777L506.614 38.8339ZM507.073 46.8871L506.58 46.8005L506.511 47.1926L506.878 47.3476L507.073 46.8871ZM511.567 49.7314L511.234 50.1045L511.234 50.1045L511.567 49.7314ZM512.265 50.354L512.597 49.9809L512.597 49.9809L512.265 50.354ZM512.265 71.499L511.932 71.1259L511.932 71.1259L512.265 71.499ZM511.567 72.1215L511.9 72.4946L511.9 72.4946L511.567 72.1215ZM496.113 76.2489V75.7489H496.095L496.077 75.7502L496.113 76.2489ZM449.918 76.2502L449.927 75.7502H449.918V76.2502ZM434.433 72.1228L434.766 71.7498L434.766 71.7498L434.433 72.1228ZM433.735 71.5003L433.403 71.8733L433.403 71.8733L433.735 71.5003ZM433.735 50.3553L434.068 50.7283L434.068 50.7283L433.735 50.3553ZM434.433 49.7327L434.1 49.3597L434.1 49.3597L434.433 49.7327ZM443.574 45.6927L443.626 46.19L444.005 46.1505L444.067 45.7739L443.574 45.6927ZM443.914 44.2046L443.435 44.0633L443.435 44.0633L443.914 44.2046ZM450.574 36.3267L450.345 35.8823L450.345 35.8823L450.574 36.3267ZM451.176 36.0169L451.405 36.4614L451.405 36.4614L451.176 36.0169ZM462.151 34.8088L462.033 35.2945L462.033 35.2945L462.151 34.8088ZM465.211 35.8799L465 36.3333L465.395 36.5165L465.631 36.1515L465.211 35.8799ZM466.231 34.3027L465.812 34.0311L465.812 34.0311L466.231 34.3027ZM479.697 24.9663L479.581 24.48L479.581 24.48L479.697 24.9663ZM480.387 24.8013L480.504 25.2875L480.504 25.2875L480.387 24.8013ZM495.565 26.5057L495.336 26.9502L495.336 26.9502L495.565 26.5057ZM506.908 38.0743C505.472 33.291 502.07 29.2945 497.415 26.8966L496.957 27.7856C501.385 30.0665 504.597 33.8536 505.95 38.3619L506.908 38.0743ZM507.093 38.6901L506.908 38.0743L505.95 38.3619L506.135 38.9777L507.093 38.6901ZM507.565 46.9737C508.051 44.2144 507.904 41.3894 507.093 38.6901L506.135 38.9777C506.9 41.5235 507.039 44.1905 506.58 46.8005L507.565 46.9737ZM511.9 49.3584C510.516 48.1232 508.948 47.1371 507.267 46.4265L506.878 47.3476C508.459 48.0158 509.932 48.943 511.234 50.1045L511.9 49.3584ZM512.597 49.9809L511.9 49.3584L511.234 50.1045L511.932 50.727L512.597 49.9809ZM517.5 60.9265C517.5 56.7461 515.717 52.7642 512.597 49.9809L511.932 50.727C514.838 53.3206 516.5 57.031 516.5 60.9265H517.5ZM512.597 71.872C515.717 69.0887 517.5 65.1069 517.5 60.9265H516.5C516.5 64.8219 514.838 68.5323 511.932 71.1259L512.597 71.872ZM511.9 72.4946L512.597 71.872L511.932 71.1259L511.234 71.7484L511.9 72.4946ZM500.743 76.7489C504.858 76.7489 508.829 75.2346 511.9 72.4946L511.234 71.7484C508.347 74.3249 504.612 75.7489 500.743 75.7489V76.7489ZM496.113 76.7489H500.743V75.7489H496.113V76.7489ZM496.077 75.7502C496.077 75.7503 496.075 75.7503 496.074 75.7503V76.7503C496.099 76.7503 496.124 76.7494 496.149 76.7476L496.077 75.7502ZM496.074 75.7503H449.928V76.7503H496.074V75.7503ZM449.928 75.7503L449.927 75.7503L449.909 76.7501C449.916 76.7503 449.922 76.7503 449.928 76.7503V75.7503ZM445.257 76.7502H449.918V75.7502H445.257V76.7502ZM434.1 72.4959C437.171 75.2359 441.142 76.7502 445.257 76.7502V75.7502C441.388 75.7502 437.653 74.3263 434.766 71.7498L434.1 72.4959ZM433.403 71.8733L434.1 72.4959L434.766 71.7498L434.068 71.1272L433.403 71.8733ZM428.5 60.9278C428.5 65.1082 430.283 69.09 433.403 71.8733L434.068 71.1272C431.162 68.5336 429.5 64.8232 429.5 60.9278H428.5ZM433.403 49.9822C430.283 52.7655 428.5 56.7474 428.5 60.9278H429.5C429.5 57.0323 431.162 53.3219 434.068 50.7283L433.403 49.9822ZM434.1 49.3597L433.403 49.9822L434.068 50.7283L434.766 50.1058L434.1 49.3597ZM443.522 45.1954C440.037 45.5582 436.736 47.0072 434.1 49.3597L434.766 50.1058C437.245 47.8937 440.348 46.5312 443.626 46.19L443.522 45.1954ZM443.435 44.0633C443.284 44.5741 443.166 45.0909 443.081 45.6115L444.067 45.7739C444.146 45.2937 444.255 44.817 444.394 44.3459L443.435 44.0633ZM450.345 35.8823C446.947 37.633 444.467 40.5598 443.435 44.0633L444.394 44.3459C445.344 41.1197 447.634 38.4042 450.803 36.7712L450.345 35.8823ZM450.947 35.5724L450.345 35.8823L450.803 36.7712L451.405 36.4614L450.947 35.5724ZM462.27 34.323C458.398 33.3796 454.343 33.8226 450.947 35.5724L451.405 36.4614C454.576 34.8275 458.383 34.4052 462.033 35.2945L462.27 34.323ZM465.422 35.4264C464.42 34.9609 463.364 34.5895 462.27 34.323L462.033 35.2945C463.063 35.5456 464.057 35.8953 465 36.3333L465.422 35.4264ZM465.812 34.0311L464.791 35.6082L465.631 36.1515L466.651 34.5743L465.812 34.0311ZM479.581 24.48C473.856 25.8489 468.873 29.2989 465.812 34.0311L466.651 34.5743C469.566 30.0691 474.325 26.7649 479.814 25.4526L479.581 24.48ZM480.271 24.315L479.581 24.48L479.814 25.4526L480.504 25.2875L480.271 24.315ZM495.794 26.0612C491.141 23.6642 485.588 23.0437 480.271 24.315L480.504 25.2875C485.6 24.0691 490.907 24.6683 495.336 26.9502L495.794 26.0612ZM497.415 26.8966L495.794 26.0612L495.336 26.9502L496.957 27.7856L497.415 26.8966Z" fill="black"/>
</g>
<g filter="url(#filter3_d_236_2046)">
<path fill-rule="evenodd" clip-rule="evenodd" d="M387.186 59.3411C391.727 61.6805 395.034 65.5723 396.429 70.2181L396.614 70.8339C397.402 73.4565 397.545 76.2024 397.073 78.8871C398.704 79.5765 400.224 80.5331 401.567 81.7314L402.265 82.354C405.277 85.0424 407 88.8886 407 92.9265C407 96.9644 405.277 100.81 402.265 103.499L401.567 104.122C398.588 106.78 394.735 108.249 390.743 108.249H386.113C386.1 108.25 386.087 108.25 386.074 108.25H339.928C339.925 108.25 339.922 108.25 339.918 108.25H335.257C331.265 108.25 327.412 106.781 324.433 104.123L323.735 103.5C320.723 100.812 319 96.9657 319 92.9278C319 88.8899 320.723 85.0437 323.735 82.3553L324.433 81.7327C326.991 79.4504 330.193 78.0447 333.574 77.6927C333.656 77.1923 333.77 76.6955 333.914 76.2046C334.905 72.8397 337.291 70.0186 340.574 68.3267L341.176 68.0169C344.46 66.3251 348.39 65.8924 352.151 66.8088C353.214 67.0675 354.238 67.4281 355.211 67.8799L356.231 66.3027C359.22 61.684 364.09 58.3069 369.697 56.9663L370.387 56.8013C375.594 55.5564 381.024 56.1662 385.565 58.5057L387.186 59.3411Z" fill="white"/>
<path d="M396.429 70.2181L396.908 70.0743L396.908 70.0743L396.429 70.2181ZM387.186 59.3411L387.415 58.8966L387.415 58.8966L387.186 59.3411ZM396.614 70.8339L396.135 70.9777L396.135 70.9777L396.614 70.8339ZM397.073 78.8871L396.58 78.8005L396.511 79.1926L396.878 79.3476L397.073 78.8871ZM401.567 81.7314L401.234 82.1045L401.234 82.1045L401.567 81.7314ZM402.265 82.354L402.597 81.9809L402.597 81.9809L402.265 82.354ZM402.265 103.499L401.932 103.126L401.932 103.126L402.265 103.499ZM401.567 104.122L401.9 104.495L401.9 104.495L401.567 104.122ZM386.113 108.249V107.749H386.095L386.077 107.75L386.113 108.249ZM339.918 108.25L339.927 107.75H339.918V108.25ZM324.433 104.123L324.766 103.75L324.766 103.75L324.433 104.123ZM323.735 103.5L323.403 103.873L323.403 103.873L323.735 103.5ZM323.735 82.3553L323.403 81.9822L323.403 81.9822L323.735 82.3553ZM324.433 81.7327L324.766 82.1058L324.766 82.1058L324.433 81.7327ZM333.574 77.6927L333.626 78.19L334.005 78.1505L334.067 77.7739L333.574 77.6927ZM333.914 76.2046L333.435 76.0633L333.435 76.0633L333.914 76.2046ZM340.574 68.3267L340.345 67.8823L340.345 67.8823L340.574 68.3267ZM341.176 68.0169L341.405 68.4614L341.405 68.4614L341.176 68.0169ZM352.151 66.8088L352.033 67.2945L352.033 67.2945L352.151 66.8088ZM355.211 67.8799L355 68.3333L355.395 68.5165L355.631 68.1515L355.211 67.8799ZM356.231 66.3027L355.812 66.0311L355.812 66.0311L356.231 66.3027ZM369.697 56.9663L369.581 56.48L369.581 56.48L369.697 56.9663ZM370.387 56.8013L370.504 57.2875L370.504 57.2875L370.387 56.8013ZM385.565 58.5057L385.336 58.9502L385.336 58.9502L385.565 58.5057ZM396.908 70.0743C395.472 65.291 392.07 61.2945 387.415 58.8966L386.957 59.7856C391.385 62.0665 394.597 65.8536 395.95 70.3619L396.908 70.0743ZM397.093 70.6901L396.908 70.0743L395.95 70.3619L396.135 70.9777L397.093 70.6901ZM397.565 78.9737C398.051 76.2144 397.904 73.3894 397.093 70.6901L396.135 70.9777C396.9 73.5235 397.039 76.1905 396.58 78.8005L397.565 78.9737ZM401.9 81.3584C400.516 80.1232 398.948 79.1371 397.267 78.4265L396.878 79.3476C398.459 80.0158 399.932 80.943 401.234 82.1045L401.9 81.3584ZM402.597 81.9809L401.9 81.3584L401.234 82.1045L401.932 82.727L402.597 81.9809ZM407.5 92.9265C407.5 88.7461 405.717 84.7642 402.597 81.9809L401.932 82.727C404.838 85.3206 406.5 89.031 406.5 92.9265H407.5ZM402.597 103.872C405.717 101.089 407.5 97.1069 407.5 92.9265H406.5C406.5 96.8219 404.838 100.532 401.932 103.126L402.597 103.872ZM401.9 104.495L402.597 103.872L401.932 103.126L401.234 103.748L401.9 104.495ZM390.743 108.749C394.858 108.749 398.829 107.235 401.9 104.495L401.234 103.748C398.347 106.325 394.612 107.749 390.743 107.749V108.749ZM386.113 108.749H390.743V107.749H386.113V108.749ZM386.077 107.75C386.077 107.75 386.075 107.75 386.074 107.75V108.75C386.099 108.75 386.124 108.749 386.149 108.748L386.077 107.75ZM386.074 107.75H339.928V108.75H386.074V107.75ZM339.928 107.75L339.927 107.75L339.909 108.75C339.916 108.75 339.922 108.75 339.928 108.75V107.75ZM335.257 108.75H339.918V107.75H335.257V108.75ZM324.1 104.496C327.171 107.236 331.142 108.75 335.257 108.75V107.75C331.388 107.75 327.653 106.326 324.766 103.75L324.1 104.496ZM323.403 103.873L324.1 104.496L324.766 103.75L324.068 103.127L323.403 103.873ZM318.5 92.9278C318.5 97.1082 320.283 101.09 323.403 103.873L324.068 103.127C321.162 100.534 319.5 96.8232 319.5 92.9278H318.5ZM323.403 81.9822C320.283 84.7655 318.5 88.7474 318.5 92.9278H319.5C319.5 89.0323 321.162 85.3219 324.068 82.7283L323.403 81.9822ZM324.1 81.3597L323.403 81.9822L324.068 82.7283L324.766 82.1058L324.1 81.3597ZM333.522 77.1954C330.037 77.5582 326.736 79.0072 324.1 81.3597L324.766 82.1058C327.245 79.8937 330.348 78.5312 333.626 78.19L333.522 77.1954ZM333.435 76.0633C333.284 76.5741 333.166 77.0909 333.081 77.6115L334.067 77.7739C334.146 77.2937 334.255 76.817 334.394 76.3459L333.435 76.0633ZM340.345 67.8823C336.947 69.633 334.467 72.5598 333.435 76.0633L334.394 76.3459C335.344 73.1197 337.634 70.4042 340.803 68.7712L340.345 67.8823ZM340.947 67.5724L340.345 67.8823L340.803 68.7712L341.405 68.4614L340.947 67.5724ZM352.27 66.323C348.398 65.3796 344.343 65.8226 340.947 67.5724L341.405 68.4614C344.576 66.8275 348.383 66.4052 352.033 67.2945L352.27 66.323ZM355.422 67.4264C354.42 66.9609 353.364 66.5895 352.27 66.323L352.033 67.2945C353.063 67.5456 354.057 67.8953 355 68.3333L355.422 67.4264ZM355.812 66.0311L354.791 67.6082L355.631 68.1515L356.651 66.5743L355.812 66.0311ZM369.581 56.48C363.856 57.8489 358.873 61.2989 355.812 66.0311L356.651 66.5743C359.566 62.0691 364.325 58.7649 369.814 57.4526L369.581 56.48ZM370.271 56.315L369.581 56.48L369.814 57.4526L370.504 57.2875L370.271 56.315ZM385.794 58.0612C381.141 55.6642 375.588 55.0437 370.271 56.315L370.504 57.2875C375.6 56.0691 380.907 56.6683 385.336 58.9502L385.794 58.0612ZM387.415 58.8966L385.794 58.0612L385.336 58.9502L386.957 59.7856L387.415 58.8966Z" fill="black"/>
</g>
<g filter="url(#filter4_d_236_2046)">
<path fill-rule="evenodd" clip-rule="evenodd" d="M79.1864 27.3411C83.7272 29.6805 87.0342 33.5723 88.4292 38.2181L88.6142 38.8339C89.4016 41.4565 89.545 44.2024 89.0728 46.8871C90.7036 47.5765 92.2241 48.5331 93.5669 49.7314L94.2645 50.354C97.2773 53.0424 99 56.8886 99 60.9265C99 64.9644 97.2773 68.8105 94.2645 71.499L93.5669 72.1215C90.588 74.7798 86.7351 76.2489 82.7425 76.2489H78.1133C78.1004 76.2498 78.0874 76.2503 78.0743 76.2503H31.9279C31.9247 76.2503 31.9215 76.2503 31.9184 76.2502H27.2575C23.2649 76.2502 19.412 74.7811 16.4331 72.1228L15.7355 71.5003C12.7227 68.8118 11 64.9657 11 60.9278C11 56.8899 12.7227 53.0437 15.7355 50.3553L16.4331 49.7327C18.9907 47.4504 22.1926 46.0447 25.5739 45.6927C25.6562 45.1923 25.7695 44.6955 25.9142 44.2046C26.9055 40.8397 29.2906 38.0186 32.5744 36.3267L33.1758 36.0169C36.4597 34.3251 40.3901 33.8924 44.1513 34.8088C45.2136 35.0675 46.2385 35.4281 47.211 35.8799L48.2314 34.3027C51.2197 29.684 56.0904 26.3069 61.6973 24.9663L62.3875 24.8013C67.5937 23.5564 73.0241 24.1662 77.5649 26.5057L79.1864 27.3411Z" fill="white"/>
<path d="M88.4292 38.2181L88.9081 38.0743L88.9081 38.0743L88.4292 38.2181ZM79.1864 27.3411L79.4154 26.8966L79.4154 26.8966L79.1864 27.3411ZM88.6142 38.8339L88.1353 38.9777L88.1353 38.9777L88.6142 38.8339ZM89.0728 46.8871L88.5804 46.8005L88.5114 47.1926L88.8781 47.3476L89.0728 46.8871ZM93.5669 49.7314L93.234 50.1045L93.234 50.1045L93.5669 49.7314ZM94.2645 50.354L94.5974 49.9809L94.5974 49.9809L94.2645 50.354ZM94.2645 71.499L93.9316 71.1259L93.9316 71.1259L94.2645 71.499ZM93.5669 72.1215L93.8998 72.4946L93.8998 72.4946L93.5669 72.1215ZM78.1133 76.2489V75.7489H78.0953L78.0774 75.7502L78.1133 76.2489ZM31.9184 76.2502L31.9273 75.7502H31.9184V76.2502ZM16.4331 72.1228L16.766 71.7498L16.766 71.7498L16.4331 72.1228ZM15.7355 71.5003L15.4026 71.8733L15.4026 71.8733L15.7355 71.5003ZM15.7355 50.3553L16.0684 50.7283L16.0684 50.7283L15.7355 50.3553ZM16.4331 49.7327L16.1002 49.3597L16.1002 49.3597L16.4331 49.7327ZM25.5739 45.6927L25.6257 46.19L26.0053 46.1505L26.0673 45.7739L25.5739 45.6927ZM25.9142 44.2046L25.4346 44.0633L25.4346 44.0633L25.9142 44.2046ZM32.5744 36.3267L32.3454 35.8823L32.3454 35.8823L32.5744 36.3267ZM33.1758 36.0169L33.4048 36.4614L33.4048 36.4614L33.1758 36.0169ZM44.1513 34.8088L44.033 35.2945L44.033 35.2945L44.1513 34.8088ZM47.211 35.8799L47.0004 36.3333L47.3946 36.5165L47.6308 36.1515L47.211 35.8799ZM48.2314 34.3027L47.8116 34.0311L47.8116 34.0311L48.2314 34.3027ZM61.6973 24.9663L61.5811 24.48L61.5811 24.48L61.6973 24.9663ZM62.3875 24.8013L62.5037 25.2875L62.5037 25.2875L62.3875 24.8013ZM77.5649 26.5057L77.3359 26.9502L77.3359 26.9502L77.5649 26.5057ZM88.9081 38.0743C87.4718 33.291 84.0697 29.2945 79.4154 26.8966L78.9574 27.7856C83.3847 30.0665 86.5967 33.8536 87.9504 38.3619L88.9081 38.0743ZM89.093 38.6901L88.9081 38.0743L87.9504 38.3619L88.1353 38.9777L89.093 38.6901ZM89.5653 46.9737C90.0506 44.2144 89.9035 41.3894 89.093 38.6901L88.1353 38.9777C88.8997 41.5235 89.0394 44.1905 88.5804 46.8005L89.5653 46.9737ZM93.8998 49.3584C92.5157 48.1232 90.9484 47.1371 89.2675 46.4265L88.8781 47.3476C90.4588 48.0158 91.9324 48.943 93.234 50.1045L93.8998 49.3584ZM94.5974 49.9809L93.8998 49.3584L93.234 50.1045L93.9316 50.727L94.5974 49.9809ZM99.5 60.9265C99.5 56.7461 97.7165 52.7642 94.5974 49.9809L93.9316 50.727C96.8381 53.3206 98.5 57.031 98.5 60.9265H99.5ZM94.5974 71.872C97.7165 69.0887 99.5 65.1069 99.5 60.9265H98.5C98.5 64.8219 96.8381 68.5323 93.9316 71.1259L94.5974 71.872ZM93.8998 72.4946L94.5974 71.872L93.9316 71.1259L93.234 71.7484L93.8998 72.4946ZM82.7425 76.7489C86.8578 76.7489 90.8293 75.2346 93.8998 72.4946L93.234 71.7484C90.3467 74.3249 86.6123 75.7489 82.7425 75.7489V76.7489ZM78.1133 76.7489H82.7425V75.7489H78.1133V76.7489ZM78.0774 75.7502C78.0765 75.7503 78.0755 75.7503 78.0743 75.7503V76.7503C78.0993 76.7503 78.1243 76.7494 78.1492 76.7476L78.0774 75.7502ZM78.0743 75.7503H31.9279V76.7503H78.0743V75.7503ZM31.9279 75.7503L31.9273 75.7503L31.9094 76.7501C31.9158 76.7503 31.922 76.7503 31.9279 76.7503V75.7503ZM27.2575 76.7502H31.9184V75.7502H27.2575V76.7502ZM16.1002 72.4959C19.1707 75.2359 23.1421 76.7502 27.2575 76.7502V75.7502C23.3877 75.7502 19.6533 74.3263 16.766 71.7498L16.1002 72.4959ZM15.4026 71.8733L16.1002 72.4959L16.766 71.7498L16.0684 71.1272L15.4026 71.8733ZM10.5 60.9278C10.5 65.1082 12.2835 69.09 15.4026 71.8733L16.0684 71.1272C13.1619 68.5336 11.5 64.8232 11.5 60.9278H10.5ZM15.4026 49.9822C12.2835 52.7655 10.5 56.7474 10.5 60.9278H11.5C11.5 57.0323 13.1619 53.3219 16.0684 50.7283L15.4026 49.9822ZM16.1002 49.3597L15.4026 49.9822L16.0684 50.7283L16.766 50.1058L16.1002 49.3597ZM25.5221 45.1954C22.0368 45.5582 18.7365 47.0072 16.1002 49.3597L16.766 50.1058C19.2449 47.8937 22.3483 46.5312 25.6257 46.19L25.5221 45.1954ZM25.4346 44.0633C25.2841 44.5741 25.1662 45.0909 25.0805 45.6115L26.0673 45.7739C26.1463 45.2937 26.255 44.817 26.3938 44.3459L25.4346 44.0633ZM32.3454 35.8823C28.9474 37.633 26.4667 40.5598 25.4346 44.0633L26.3938 44.3459C27.3443 41.1197 29.6338 38.4042 32.8034 36.7712L32.3454 35.8823ZM32.9468 35.5724L32.3454 35.8823L32.8034 36.7712L33.4048 36.4614L32.9468 35.5724ZM44.2697 34.323C40.3976 33.3796 36.3432 33.8226 32.9468 35.5724L33.4048 36.4614C36.5761 34.8275 40.3826 34.4052 44.033 35.2945L44.2697 34.323ZM47.4217 35.4264C46.4196 34.9609 45.3638 34.5895 44.2697 34.323L44.033 35.2945C45.0633 35.5456 46.0574 35.8953 47.0004 36.3333L47.4217 35.4264ZM47.8116 34.0311L46.7912 35.6082L47.6308 36.1515L48.6512 34.5743L47.8116 34.0311ZM61.5811 24.48C55.8557 25.8489 50.8733 29.2989 47.8116 34.0311L48.6512 34.5743C51.5661 30.0691 56.3251 26.7649 61.8136 25.4526L61.5811 24.48ZM62.2712 24.315L61.5811 24.48L61.8136 25.4526L62.5037 25.2875L62.2712 24.315ZM77.7939 26.0612C73.1413 23.6642 67.5877 23.0437 62.2712 24.315L62.5037 25.2875C67.5996 24.0691 72.9069 24.6683 77.3359 26.9502L77.7939 26.0612ZM79.4154 26.8966L77.7939 26.0612L77.3359 26.9502L78.9574 27.7856L79.4154 26.8966Z" fill="black"/>
</g>
<g filter="url(#filter5_d_236_2046)">
<path fill-rule="evenodd" clip-rule="evenodd" d="M178.186 59.3411C182.727 61.6805 186.034 65.5723 187.429 70.2181L187.614 70.8339C188.402 73.4565 188.545 76.2024 188.073 78.8871C189.704 79.5765 191.224 80.5331 192.567 81.7314L193.265 82.354C196.277 85.0424 198 88.8886 198 92.9265C198 96.9644 196.277 100.81 193.265 103.499L192.567 104.122C189.588 106.78 185.735 108.249 181.743 108.249H177.113C177.1 108.25 177.087 108.25 177.074 108.25H130.928C130.925 108.25 130.922 108.25 130.918 108.25H126.257C122.265 108.25 118.412 106.781 115.433 104.123L114.735 103.5C111.723 100.812 110 96.9657 110 92.9278C110 88.8899 111.723 85.0437 114.735 82.3553L115.433 81.7327C117.991 79.4504 121.193 78.0447 124.574 77.6927C124.656 77.1923 124.77 76.6955 124.914 76.2046C125.905 72.8397 128.291 70.0186 131.574 68.3267L132.176 68.0169C135.46 66.3251 139.39 65.8924 143.151 66.8088C144.214 67.0675 145.238 67.4281 146.211 67.8799L147.231 66.3027C150.22 61.684 155.09 58.3069 160.697 56.9663L161.387 56.8013C166.594 55.5564 172.024 56.1662 176.565 58.5057L178.186 59.3411Z" fill="white"/>
<path d="M187.429 70.2181L187.908 70.0743L187.908 70.0743L187.429 70.2181ZM178.186 59.3411L178.415 58.8966L178.415 58.8966L178.186 59.3411ZM187.614 70.8339L187.135 70.9777L187.135 70.9777L187.614 70.8339ZM188.073 78.8871L187.58 78.8005L187.511 79.1926L187.878 79.3476L188.073 78.8871ZM192.567 81.7314L192.234 82.1045L192.234 82.1045L192.567 81.7314ZM193.265 82.354L193.597 81.9809L193.597 81.9809L193.265 82.354ZM193.265 103.499L192.932 103.126L192.932 103.126L193.265 103.499ZM192.567 104.122L192.9 104.495L192.9 104.495L192.567 104.122ZM177.113 108.249V107.749H177.095L177.077 107.75L177.113 108.249ZM130.918 108.25L130.927 107.75H130.918V108.25ZM115.433 104.123L115.766 103.75L115.766 103.75L115.433 104.123ZM114.735 103.5L114.403 103.873L114.403 103.873L114.735 103.5ZM114.735 82.3553L115.068 82.7283L115.068 82.7283L114.735 82.3553ZM115.433 81.7327L115.1 81.3597L115.1 81.3597L115.433 81.7327ZM124.574 77.6927L124.626 78.19L125.005 78.1505L125.067 77.7739L124.574 77.6927ZM124.914 76.2046L124.435 76.0633L124.435 76.0633L124.914 76.2046ZM131.574 68.3267L131.345 67.8823L131.345 67.8823L131.574 68.3267ZM132.176 68.0169L132.405 68.4614L132.405 68.4614L132.176 68.0169ZM143.151 66.8088L143.033 67.2945L143.033 67.2945L143.151 66.8088ZM146.211 67.8799L146 68.3333L146.395 68.5165L146.631 68.1515L146.211 67.8799ZM147.231 66.3027L146.812 66.0311L146.812 66.0311L147.231 66.3027ZM160.697 56.9663L160.581 56.48L160.581 56.48L160.697 56.9663ZM161.387 56.8013L161.504 57.2875L161.504 57.2875L161.387 56.8013ZM176.565 58.5057L176.336 58.9502L176.336 58.9502L176.565 58.5057ZM187.908 70.0743C186.472 65.291 183.07 61.2945 178.415 58.8966L177.957 59.7856C182.385 62.0665 185.597 65.8536 186.95 70.3619L187.908 70.0743ZM188.093 70.6901L187.908 70.0743L186.95 70.3619L187.135 70.9777L188.093 70.6901ZM188.565 78.9737C189.051 76.2144 188.904 73.3894 188.093 70.6901L187.135 70.9777C187.9 73.5235 188.039 76.1905 187.58 78.8005L188.565 78.9737ZM192.9 81.3584C191.516 80.1232 189.948 79.1371 188.267 78.4265L187.878 79.3476C189.459 80.0158 190.932 80.943 192.234 82.1045L192.9 81.3584ZM193.597 81.9809L192.9 81.3584L192.234 82.1045L192.932 82.727L193.597 81.9809ZM198.5 92.9265C198.5 88.7461 196.717 84.7642 193.597 81.9809L192.932 82.727C195.838 85.3206 197.5 89.031 197.5 92.9265H198.5ZM193.597 103.872C196.717 101.089 198.5 97.1069 198.5 92.9265H197.5C197.5 96.8219 195.838 100.532 192.932 103.126L193.597 103.872ZM192.9 104.495L193.597 103.872L192.932 103.126L192.234 103.748L192.9 104.495ZM181.743 108.749C185.858 108.749 189.829 107.235 192.9 104.495L192.234 103.748C189.347 106.325 185.612 107.749 181.743 107.749V108.749ZM177.113 108.749H181.743V107.749H177.113V108.749ZM177.077 107.75C177.077 107.75 177.075 107.75 177.074 107.75V108.75C177.099 108.75 177.124 108.749 177.149 108.748L177.077 107.75ZM177.074 107.75H130.928V108.75H177.074V107.75ZM130.928 107.75L130.927 107.75L130.909 108.75C130.916 108.75 130.922 108.75 130.928 108.75V107.75ZM126.257 108.75H130.918V107.75H126.257V108.75ZM115.1 104.496C118.171 107.236 122.142 108.75 126.257 108.75V107.75C122.388 107.75 118.653 106.326 115.766 103.75L115.1 104.496ZM114.403 103.873L115.1 104.496L115.766 103.75L115.068 103.127L114.403 103.873ZM109.5 92.9278C109.5 97.1082 111.283 101.09 114.403 103.873L115.068 103.127C112.162 100.534 110.5 96.8232 110.5 92.9278H109.5ZM114.403 81.9822C111.283 84.7655 109.5 88.7474 109.5 92.9278H110.5C110.5 89.0323 112.162 85.3219 115.068 82.7283L114.403 81.9822ZM115.1 81.3597L114.403 81.9822L115.068 82.7283L115.766 82.1058L115.1 81.3597ZM124.522 77.1954C121.037 77.5582 117.736 79.0072 115.1 81.3597L115.766 82.1058C118.245 79.8937 121.348 78.5312 124.626 78.19L124.522 77.1954ZM124.435 76.0633C124.284 76.5741 124.166 77.0909 124.081 77.6115L125.067 77.7739C125.146 77.2937 125.255 76.817 125.394 76.3459L124.435 76.0633ZM131.345 67.8823C127.947 69.633 125.467 72.5598 124.435 76.0633L125.394 76.3459C126.344 73.1197 128.634 70.4042 131.803 68.7712L131.345 67.8823ZM131.947 67.5724L131.345 67.8823L131.803 68.7712L132.405 68.4614L131.947 67.5724ZM143.27 66.323C139.398 65.3796 135.343 65.8226 131.947 67.5724L132.405 68.4614C135.576 66.8275 139.383 66.4052 143.033 67.2945L143.27 66.323ZM146.422 67.4264C145.42 66.9609 144.364 66.5895 143.27 66.323L143.033 67.2945C144.063 67.5456 145.057 67.8953 146 68.3333L146.422 67.4264ZM146.812 66.0311L145.791 67.6082L146.631 68.1515L147.651 66.5743L146.812 66.0311ZM160.581 56.48C154.856 57.8489 149.873 61.2989 146.812 66.0311L147.651 66.5743C150.566 62.0691 155.325 58.7649 160.814 57.4526L160.581 56.48ZM161.271 56.315L160.581 56.48L160.814 57.4526L161.504 57.2875L161.271 56.315ZM176.794 58.0612C172.141 55.6642 166.588 55.0437 161.271 56.315L161.504 57.2875C166.6 56.0691 171.907 56.6683 176.336 58.9502L176.794 58.0612ZM178.415 58.8966L176.794 58.0612L176.336 58.9502L177.957 59.7856L178.415 58.8966Z" fill="black"/>
</g>
<g filter="url(#filter6_d_236_2046)">
<path fill-rule="evenodd" clip-rule="evenodd" d="M717.186 27.3411C721.727 29.6805 725.034 33.5723 726.429 38.2181L726.614 38.8339C727.402 41.4565 727.545 44.2024 727.073 46.8871C728.704 47.5765 730.224 48.5331 731.567 49.7314L732.265 50.354C735.277 53.0424 737 56.8886 737 60.9265C737 64.9644 735.277 68.8105 732.265 71.499L731.567 72.1215C728.588 74.7798 724.735 76.2489 720.743 76.2489H716.113C716.1 76.2498 716.087 76.2503 716.074 76.2503H669.928C669.925 76.2503 669.922 76.2503 669.918 76.2502H665.257C661.265 76.2502 657.412 74.7811 654.433 72.1228L653.735 71.5003C650.723 68.8118 649 64.9657 649 60.9278C649 56.8899 650.723 53.0437 653.735 50.3553L654.433 49.7327C656.991 47.4504 660.193 46.0447 663.574 45.6927C663.656 45.1923 663.77 44.6955 663.914 44.2046C664.905 40.8397 667.291 38.0186 670.574 36.3267L671.176 36.0169C674.46 34.3251 678.39 33.8924 682.151 34.8088C683.214 35.0675 684.238 35.4281 685.211 35.8799L686.231 34.3027C689.22 29.684 694.09 26.3069 699.697 24.9663L700.387 24.8013C705.594 23.5564 711.024 24.1662 715.565 26.5057L717.186 27.3411Z" fill="white"/>
<path d="M726.429 38.2181L726.908 38.0743L726.908 38.0743L726.429 38.2181ZM717.186 27.3411L717.415 26.8966L717.415 26.8966L717.186 27.3411ZM726.614 38.8339L726.135 38.9777L726.135 38.9777L726.614 38.8339ZM727.073 46.8871L726.58 46.8005L726.511 47.1926L726.878 47.3476L727.073 46.8871ZM731.567 49.7314L731.234 50.1045L731.234 50.1045L731.567 49.7314ZM732.265 50.354L732.597 49.9809L732.597 49.9809L732.265 50.354ZM732.265 71.499L731.932 71.1259L731.932 71.1259L732.265 71.499ZM731.567 72.1215L731.9 72.4946L731.9 72.4946L731.567 72.1215ZM716.113 76.2489V75.7489H716.095L716.077 75.7502L716.113 76.2489ZM669.918 76.2502L669.927 75.7502H669.918V76.2502ZM654.433 72.1228L654.766 71.7498L654.766 71.7498L654.433 72.1228ZM653.735 71.5003L653.403 71.8733L653.403 71.8733L653.735 71.5003ZM653.735 50.3553L654.068 50.7283L654.068 50.7283L653.735 50.3553ZM654.433 49.7327L654.1 49.3597L654.1 49.3597L654.433 49.7327ZM663.574 45.6927L663.626 46.19L664.005 46.1505L664.067 45.7739L663.574 45.6927ZM663.914 44.2046L663.435 44.0633L663.435 44.0633L663.914 44.2046ZM670.574 36.3267L670.345 35.8823L670.345 35.8823L670.574 36.3267ZM671.176 36.0169L671.405 36.4614L671.405 36.4614L671.176 36.0169ZM682.151 34.8088L682.033 35.2945L682.033 35.2945L682.151 34.8088ZM685.211 35.8799L685 36.3333L685.395 36.5165L685.631 36.1515L685.211 35.8799ZM686.231 34.3027L685.812 34.0311L685.812 34.0311L686.231 34.3027ZM699.697 24.9663L699.581 24.48L699.581 24.48L699.697 24.9663ZM700.387 24.8013L700.504 25.2875L700.504 25.2875L700.387 24.8013ZM715.565 26.5057L715.336 26.9502L715.336 26.9502L715.565 26.5057ZM726.908 38.0743C725.472 33.291 722.07 29.2945 717.415 26.8966L716.957 27.7856C721.385 30.0665 724.597 33.8536 725.95 38.3619L726.908 38.0743ZM727.093 38.6901L726.908 38.0743L725.95 38.3619L726.135 38.9777L727.093 38.6901ZM727.565 46.9737C728.051 44.2144 727.904 41.3894 727.093 38.6901L726.135 38.9777C726.9 41.5235 727.039 44.1905 726.58 46.8005L727.565 46.9737ZM731.9 49.3584C730.516 48.1232 728.948 47.1371 727.267 46.4265L726.878 47.3476C728.459 48.0158 729.932 48.943 731.234 50.1045L731.9 49.3584ZM732.597 49.9809L731.9 49.3584L731.234 50.1045L731.932 50.727L732.597 49.9809ZM737.5 60.9265C737.5 56.7461 735.717 52.7642 732.597 49.9809L731.932 50.727C734.838 53.3206 736.5 57.031 736.5 60.9265H737.5ZM732.597 71.872C735.717 69.0887 737.5 65.1069 737.5 60.9265H736.5C736.5 64.8219 734.838 68.5323 731.932 71.1259L732.597 71.872ZM731.9 72.4946L732.597 71.872L731.932 71.1259L731.234 71.7484L731.9 72.4946ZM720.743 76.7489C724.858 76.7489 728.829 75.2346 731.9 72.4946L731.234 71.7484C728.347 74.3249 724.612 75.7489 720.743 75.7489V76.7489ZM716.113 76.7489H720.743V75.7489H716.113V76.7489ZM716.077 75.7502C716.077 75.7503 716.075 75.7503 716.074 75.7503V76.7503C716.099 76.7503 716.124 76.7494 716.149 76.7476L716.077 75.7502ZM716.074 75.7503H669.928V76.7503H716.074V75.7503ZM669.928 75.7503L669.927 75.7503L669.909 76.7501C669.916 76.7503 669.922 76.7503 669.928 76.7503V75.7503ZM665.257 76.7502H669.918V75.7502H665.257V76.7502ZM654.1 72.4959C657.171 75.2359 661.142 76.7502 665.257 76.7502V75.7502C661.388 75.7502 657.653 74.3263 654.766 71.7498L654.1 72.4959ZM653.403 71.8733L654.1 72.4959L654.766 71.7498L654.068 71.1272L653.403 71.8733ZM648.5 60.9278C648.5 65.1082 650.283 69.09 653.403 71.8733L654.068 71.1272C651.162 68.5336 649.5 64.8232 649.5 60.9278H648.5ZM653.403 49.9822C650.283 52.7655 648.5 56.7474 648.5 60.9278H649.5C649.5 57.0323 651.162 53.3219 654.068 50.7283L653.403 49.9822ZM654.1 49.3597L653.403 49.9822L654.068 50.7283L654.766 50.1058L654.1 49.3597ZM663.522 45.1954C660.037 45.5582 656.736 47.0072 654.1 49.3597L654.766 50.1058C657.245 47.8937 660.348 46.5312 663.626 46.19L663.522 45.1954ZM663.435 44.0633C663.284 44.5741 663.166 45.0909 663.081 45.6115L664.067 45.7739C664.146 45.2937 664.255 44.817 664.394 44.3459L663.435 44.0633ZM670.345 35.8823C666.947 37.633 664.467 40.5598 663.435 44.0633L664.394 44.3459C665.344 41.1197 667.634 38.4042 670.803 36.7712L670.345 35.8823ZM670.947 35.5724L670.345 35.8823L670.803 36.7712L671.405 36.4614L670.947 35.5724ZM682.27 34.323C678.398 33.3796 674.343 33.8226 670.947 35.5724L671.405 36.4614C674.576 34.8275 678.383 34.4052 682.033 35.2945L682.27 34.323ZM685.422 35.4264C684.42 34.9609 683.364 34.5895 682.27 34.323L682.033 35.2945C683.063 35.5456 684.057 35.8953 685 36.3333L685.422 35.4264ZM685.812 34.0311L684.791 35.6082L685.631 36.1515L686.651 34.5743L685.812 34.0311ZM699.581 24.48C693.856 25.8489 688.873 29.2989 685.812 34.0311L686.651 34.5743C689.566 30.0691 694.325 26.7649 699.814 25.4526L699.581 24.48ZM700.271 24.315L699.581 24.48L699.814 25.4526L700.504 25.2875L700.271 24.315ZM715.794 26.0612C711.141 23.6642 705.588 23.0437 700.271 24.315L700.504 25.2875C705.6 24.0691 710.907 24.6683 715.336 26.9502L715.794 26.0612ZM717.415 26.8966L715.794 26.0612L715.336 26.9502L716.957 27.7856L717.415 26.8966Z" fill="black"/>
</g>
<g filter="url(#filter7_d_236_2046)">
<path fill-rule="evenodd" clip-rule="evenodd" d="M827.186 59.3411C831.727 61.6805 835.034 65.5723 836.429 70.2181L836.614 70.8339C837.402 73.4565 837.545 76.2024 837.073 78.8871C838.704 79.5765 840.224 80.5331 841.567 81.7314L842.265 82.354C845.277 85.0424 847 88.8886 847 92.9265C847 96.9644 845.277 100.81 842.265 103.499L841.567 104.122C838.588 106.78 834.735 108.249 830.743 108.249H826.113C826.1 108.25 826.087 108.25 826.074 108.25H779.928C779.925 108.25 779.922 108.25 779.918 108.25H775.257C771.265 108.25 767.412 106.781 764.433 104.123L763.735 103.5C760.723 100.812 759 96.9657 759 92.9278C759 88.8899 760.723 85.0437 763.735 82.3553L764.433 81.7327C766.991 79.4504 770.193 78.0447 773.574 77.6927C773.656 77.1923 773.77 76.6955 773.914 76.2046C774.905 72.8397 777.291 70.0186 780.574 68.3267L781.176 68.0169C784.46 66.3251 788.39 65.8924 792.151 66.8088C793.214 67.0675 794.238 67.4281 795.211 67.8799L796.231 66.3027C799.22 61.684 804.09 58.3069 809.697 56.9663L810.387 56.8013C815.594 55.5564 821.024 56.1662 825.565 58.5057L827.186 59.3411Z" fill="white"/>
<path d="M836.429 70.2181L836.908 70.0743L836.908 70.0743L836.429 70.2181ZM827.186 59.3411L827.415 58.8966L827.415 58.8966L827.186 59.3411ZM836.614 70.8339L836.135 70.9777L836.135 70.9777L836.614 70.8339ZM837.073 78.8871L836.58 78.8005L836.511 79.1926L836.878 79.3476L837.073 78.8871ZM841.567 81.7314L841.234 82.1045L841.234 82.1045L841.567 81.7314ZM842.265 82.354L842.597 81.9809L842.597 81.9809L842.265 82.354ZM842.265 103.499L841.932 103.126L841.932 103.126L842.265 103.499ZM841.567 104.122L841.9 104.495L841.9 104.495L841.567 104.122ZM826.113 108.249V107.749H826.095L826.077 107.75L826.113 108.249ZM779.918 108.25L779.927 107.75H779.918V108.25ZM764.433 104.123L764.766 103.75L764.766 103.75L764.433 104.123ZM763.735 103.5L763.403 103.873L763.403 103.873L763.735 103.5ZM763.735 82.3553L763.403 81.9822L763.403 81.9822L763.735 82.3553ZM764.433 81.7327L764.766 82.1058L764.766 82.1058L764.433 81.7327ZM773.574 77.6927L773.626 78.19L774.005 78.1505L774.067 77.7739L773.574 77.6927ZM773.914 76.2046L773.435 76.0633L773.435 76.0633L773.914 76.2046ZM780.574 68.3267L780.345 67.8823L780.345 67.8823L780.574 68.3267ZM781.176 68.0169L781.405 68.4614L781.405 68.4614L781.176 68.0169ZM792.151 66.8088L792.033 67.2945L792.033 67.2945L792.151 66.8088ZM795.211 67.8799L795 68.3333L795.395 68.5165L795.631 68.1515L795.211 67.8799ZM796.231 66.3027L795.812 66.0311L795.812 66.0311L796.231 66.3027ZM809.697 56.9663L809.581 56.48L809.581 56.48L809.697 56.9663ZM810.387 56.8013L810.504 57.2875L810.504 57.2875L810.387 56.8013ZM825.565 58.5057L825.336 58.9502L825.336 58.9502L825.565 58.5057ZM836.908 70.0743C835.472 65.291 832.07 61.2945 827.415 58.8966L826.957 59.7856C831.385 62.0665 834.597 65.8536 835.95 70.3619L836.908 70.0743ZM837.093 70.6901L836.908 70.0743L835.95 70.3619L836.135 70.9777L837.093 70.6901ZM837.565 78.9737C838.051 76.2144 837.904 73.3894 837.093 70.6901L836.135 70.9777C836.9 73.5235 837.039 76.1905 836.58 78.8005L837.565 78.9737ZM841.9 81.3584C840.516 80.1232 838.948 79.1371 837.267 78.4265L836.878 79.3476C838.459 80.0158 839.932 80.943 841.234 82.1045L841.9 81.3584ZM842.597 81.9809L841.9 81.3584L841.234 82.1045L841.932 82.727L842.597 81.9809ZM847.5 92.9265C847.5 88.7461 845.717 84.7642 842.597 81.9809L841.932 82.727C844.838 85.3206 846.5 89.031 846.5 92.9265H847.5ZM842.597 103.872C845.717 101.089 847.5 97.1069 847.5 92.9265H846.5C846.5 96.8219 844.838 100.532 841.932 103.126L842.597 103.872ZM841.9 104.495L842.597 103.872L841.932 103.126L841.234 103.748L841.9 104.495ZM830.743 108.749C834.858 108.749 838.829 107.235 841.9 104.495L841.234 103.748C838.347 106.325 834.612 107.749 830.743 107.749V108.749ZM826.113 108.749H830.743V107.749H826.113V108.749ZM826.077 107.75C826.077 107.75 826.075 107.75 826.074 107.75V108.75C826.099 108.75 826.124 108.749 826.149 108.748L826.077 107.75ZM826.074 107.75H779.928V108.75H826.074V107.75ZM779.928 107.75L779.927 107.75L779.909 108.75C779.916 108.75 779.922 108.75 779.928 108.75V107.75ZM775.257 108.75H779.918V107.75H775.257V108.75ZM764.1 104.496C767.171 107.236 771.142 108.75 775.257 108.75V107.75C771.388 107.75 767.653 106.326 764.766 103.75L764.1 104.496ZM763.403 103.873L764.1 104.496L764.766 103.75L764.068 103.127L763.403 103.873ZM758.5 92.9278C758.5 97.1082 760.283 101.09 763.403 103.873L764.068 103.127C761.162 100.534 759.5 96.8232 759.5 92.9278H758.5ZM763.403 81.9822C760.283 84.7655 758.5 88.7474 758.5 92.9278H759.5C759.5 89.0323 761.162 85.3219 764.068 82.7283L763.403 81.9822ZM764.1 81.3597L763.403 81.9822L764.068 82.7283L764.766 82.1058L764.1 81.3597ZM773.522 77.1954C770.037 77.5582 766.736 79.0072 764.1 81.3597L764.766 82.1058C767.245 79.8937 770.348 78.5312 773.626 78.19L773.522 77.1954ZM773.435 76.0633C773.284 76.5741 773.166 77.0909 773.081 77.6115L774.067 77.7739C774.146 77.2937 774.255 76.817 774.394 76.3459L773.435 76.0633ZM780.345 67.8823C776.947 69.633 774.467 72.5598 773.435 76.0633L774.394 76.3459C775.344 73.1197 777.634 70.4042 780.803 68.7712L780.345 67.8823ZM780.947 67.5724L780.345 67.8823L780.803 68.7712L781.405 68.4614L780.947 67.5724ZM792.27 66.323C788.398 65.3796 784.343 65.8226 780.947 67.5724L781.405 68.4614C784.576 66.8275 788.383 66.4052 792.033 67.2945L792.27 66.323ZM795.422 67.4264C794.42 66.9609 793.364 66.5895 792.27 66.323L792.033 67.2945C793.063 67.5456 794.057 67.8953 795 68.3333L795.422 67.4264ZM795.812 66.0311L794.791 67.6082L795.631 68.1515L796.651 66.5743L795.812 66.0311ZM809.581 56.48C803.856 57.8489 798.873 61.2989 795.812 66.0311L796.651 66.5743C799.566 62.0691 804.325 58.7649 809.814 57.4526L809.581 56.48ZM810.271 56.315L809.581 56.48L809.814 57.4526L810.504 57.2875L810.271 56.315ZM825.794 58.0612C821.141 55.6642 815.588 55.0437 810.271 56.315L810.504 57.2875C815.6 56.0691 820.907 56.6683 825.336 58.9502L825.794 58.0612ZM827.415 58.8966L825.794 58.0612L825.336 58.9502L826.957 59.7856L827.415 58.8966Z" fill="black"/>
</g>
<g filter="url(#filter8_d_236_2046)">
<path fill-rule="evenodd" clip-rule="evenodd" d="M926.186 27.3411C930.727 29.6805 934.034 33.5723 935.429 38.2181L935.614 38.8339C936.402 41.4565 936.545 44.2024 936.073 46.8871C937.704 47.5765 939.224 48.5331 940.567 49.7314L941.265 50.354C944.277 53.0424 946 56.8886 946 60.9265C946 64.9644 944.277 68.8105 941.265 71.499L940.567 72.1215C937.588 74.7798 933.735 76.2489 929.743 76.2489H925.113C925.1 76.2498 925.087 76.2503 925.074 76.2503H878.928C878.925 76.2503 878.922 76.2503 878.918 76.2502H874.257C870.265 76.2502 866.412 74.7811 863.433 72.1228L862.735 71.5003C859.723 68.8118 858 64.9657 858 60.9278C858 56.8899 859.723 53.0437 862.735 50.3553L863.433 49.7327C865.991 47.4504 869.193 46.0447 872.574 45.6927C872.656 45.1923 872.77 44.6955 872.914 44.2046C873.905 40.8397 876.291 38.0186 879.574 36.3267L880.176 36.0169C883.46 34.3251 887.39 33.8924 891.151 34.8088C892.214 35.0675 893.238 35.4281 894.211 35.8799L895.231 34.3027C898.22 29.684 903.09 26.3069 908.697 24.9663L909.387 24.8013C914.594 23.5564 920.024 24.1662 924.565 26.5057L926.186 27.3411Z" fill="white"/>
<path d="M935.429 38.2181L935.908 38.0743L935.908 38.0743L935.429 38.2181ZM926.186 27.3411L926.415 26.8966L926.415 26.8966L926.186 27.3411ZM935.614 38.8339L935.135 38.9777L935.135 38.9777L935.614 38.8339ZM936.073 46.8871L935.58 46.8005L935.511 47.1926L935.878 47.3476L936.073 46.8871ZM940.567 49.7314L940.234 50.1045L940.234 50.1045L940.567 49.7314ZM941.265 50.354L941.597 49.9809L941.597 49.9809L941.265 50.354ZM941.265 71.499L940.932 71.1259L940.932 71.1259L941.265 71.499ZM940.567 72.1215L940.9 72.4946L940.9 72.4946L940.567 72.1215ZM925.113 76.2489V75.7489H925.095L925.077 75.7502L925.113 76.2489ZM878.918 76.2502L878.927 75.7502H878.918V76.2502ZM863.433 72.1228L863.766 71.7498L863.766 71.7498L863.433 72.1228ZM862.735 71.5003L862.403 71.8733L862.403 71.8733L862.735 71.5003ZM862.735 50.3553L863.068 50.7283L863.068 50.7283L862.735 50.3553ZM863.433 49.7327L863.1 49.3597L863.1 49.3597L863.433 49.7327ZM872.574 45.6927L872.626 46.19L873.005 46.1505L873.067 45.7739L872.574 45.6927ZM872.914 44.2046L872.435 44.0633L872.435 44.0633L872.914 44.2046ZM879.574 36.3267L879.345 35.8823L879.345 35.8823L879.574 36.3267ZM880.176 36.0169L880.405 36.4614L880.405 36.4614L880.176 36.0169ZM891.151 34.8088L891.033 35.2945L891.033 35.2945L891.151 34.8088ZM894.211 35.8799L894 36.3333L894.395 36.5165L894.631 36.1515L894.211 35.8799ZM895.231 34.3027L894.812 34.0311L894.812 34.0311L895.231 34.3027ZM908.697 24.9663L908.581 24.48L908.581 24.48L908.697 24.9663ZM909.387 24.8013L909.504 25.2875L909.504 25.2875L909.387 24.8013ZM924.565 26.5057L924.336 26.9502L924.336 26.9502L924.565 26.5057ZM935.908 38.0743C934.472 33.291 931.07 29.2945 926.415 26.8966L925.957 27.7856C930.385 30.0665 933.597 33.8536 934.95 38.3619L935.908 38.0743ZM936.093 38.6901L935.908 38.0743L934.95 38.3619L935.135 38.9777L936.093 38.6901ZM936.565 46.9737C937.051 44.2144 936.904 41.3894 936.093 38.6901L935.135 38.9777C935.9 41.5235 936.039 44.1905 935.58 46.8005L936.565 46.9737ZM940.9 49.3584C939.516 48.1232 937.948 47.1371 936.267 46.4265L935.878 47.3476C937.459 48.0158 938.932 48.943 940.234 50.1045L940.9 49.3584ZM941.597 49.9809L940.9 49.3584L940.234 50.1045L940.932 50.727L941.597 49.9809ZM946.5 60.9265C946.5 56.7461 944.717 52.7642 941.597 49.9809L940.932 50.727C943.838 53.3206 945.5 57.031 945.5 60.9265H946.5ZM941.597 71.872C944.717 69.0887 946.5 65.1069 946.5 60.9265H945.5C945.5 64.8219 943.838 68.5323 940.932 71.1259L941.597 71.872ZM940.9 72.4946L941.597 71.872L940.932 71.1259L940.234 71.7484L940.9 72.4946ZM929.743 76.7489C933.858 76.7489 937.829 75.2346 940.9 72.4946L940.234 71.7484C937.347 74.3249 933.612 75.7489 929.743 75.7489V76.7489ZM925.113 76.7489H929.743V75.7489H925.113V76.7489ZM925.077 75.7502C925.077 75.7503 925.075 75.7503 925.074 75.7503V76.7503C925.099 76.7503 925.124 76.7494 925.149 76.7476L925.077 75.7502ZM925.074 75.7503H878.928V76.7503H925.074V75.7503ZM878.928 75.7503L878.927 75.7503L878.909 76.7501C878.916 76.7503 878.922 76.7503 878.928 76.7503V75.7503ZM874.257 76.7502H878.918V75.7502H874.257V76.7502ZM863.1 72.4959C866.171 75.2359 870.142 76.7502 874.257 76.7502V75.7502C870.388 75.7502 866.653 74.3263 863.766 71.7498L863.1 72.4959ZM862.403 71.8733L863.1 72.4959L863.766 71.7498L863.068 71.1272L862.403 71.8733ZM857.5 60.9278C857.5 65.1082 859.283 69.09 862.403 71.8733L863.068 71.1272C860.162 68.5336 858.5 64.8232 858.5 60.9278H857.5ZM862.403 49.9822C859.283 52.7655 857.5 56.7474 857.5 60.9278H858.5C858.5 57.0323 860.162 53.3219 863.068 50.7283L862.403 49.9822ZM863.1 49.3597L862.403 49.9822L863.068 50.7283L863.766 50.1058L863.1 49.3597ZM872.522 45.1954C869.037 45.5582 865.736 47.0072 863.1 49.3597L863.766 50.1058C866.245 47.8937 869.348 46.5312 872.626 46.19L872.522 45.1954ZM872.435 44.0633C872.284 44.5741 872.166 45.0909 872.081 45.6115L873.067 45.7739C873.146 45.2937 873.255 44.817 873.394 44.3459L872.435 44.0633ZM879.345 35.8823C875.947 37.633 873.467 40.5598 872.435 44.0633L873.394 44.3459C874.344 41.1197 876.634 38.4042 879.803 36.7712L879.345 35.8823ZM879.947 35.5724L879.345 35.8823L879.803 36.7712L880.405 36.4614L879.947 35.5724ZM891.27 34.323C887.398 33.3796 883.343 33.8226 879.947 35.5724L880.405 36.4614C883.576 34.8275 887.383 34.4052 891.033 35.2945L891.27 34.323ZM894.422 35.4264C893.42 34.9609 892.364 34.5895 891.27 34.323L891.033 35.2945C892.063 35.5456 893.057 35.8953 894 36.3333L894.422 35.4264ZM894.812 34.0311L893.791 35.6082L894.631 36.1515L895.651 34.5743L894.812 34.0311ZM908.581 24.48C902.856 25.8489 897.873 29.2989 894.812 34.0311L895.651 34.5743C898.566 30.0691 903.325 26.7649 908.814 25.4526L908.581 24.48ZM909.271 24.315L908.581 24.48L908.814 25.4526L909.504 25.2875L909.271 24.315ZM924.794 26.0612C920.141 23.6642 914.588 23.0437 909.271 24.315L909.504 25.2875C914.6 24.0691 919.907 24.6683 924.336 26.9502L924.794 26.0612ZM926.415 26.8966L924.794 26.0612L924.336 26.9502L925.957 27.7856L926.415 26.8966Z" fill="black"/>
</g>
<defs>
<filter id="filter0_d_236_2046" x="194" y="0" width="118" height="108" filterUnits="userSpaceOnUse" color-interpolation-filters="sRGB">
<feFlood flood-opacity="0" result="BackgroundImageFix"/>
<feColorMatrix in="SourceAlpha" type="matrix" values="0 0 0 0 0 0 0 0 0 0 0 0 0 0 0 0 0 0 127 0" result="hardAlpha"/>
<feOffset dy="4"/>
<feGaussianBlur stdDeviation="2"/>
<feComposite in2="hardAlpha" operator="out"/>
<feColorMatrix type="matrix" values="0 0 0 0 0 0 0 0 0 0 0 0 0 0 0 0 0 0 0.25 0"/>
<feBlend mode="normal" in2="BackgroundImageFix" result="effect1_dropShadow_236_2046"/>
<feBlend mode="normal" in="SourceGraphic" in2="effect1_dropShadow_236_2046" result="shape"/>
</filter>
<filter id="filter1_d_236_2046" x="524" y="32" width="118" height="108" filterUnits="userSpaceOnUse" color-interpolation-filters="sRGB">
<feFlood flood-opacity="0" result="BackgroundImageFix"/>
<feColorMatrix in="SourceAlpha" type="matrix" values="0 0 0 0 0 0 0 0 0 0 0 0 0 0 0 0 0 0 127 0" result="hardAlpha"/>
<feOffset dy="4"/>
<feGaussianBlur stdDeviation="2"/>
<feComposite in2="hardAlpha" operator="out"/>
<feColorMatrix type="matrix" values="0 0 0 0 0 0 0 0 0 0 0 0 0 0 0 0 0 0 0.25 0"/>
<feBlend mode="normal" in2="BackgroundImageFix" result="effect1_dropShadow_236_2046"/>
<feBlend mode="normal" in="SourceGraphic" in2="effect1_dropShadow_236_2046" result="shape"/>
</filter>
<filter id="filter2_d_236_2046" x="414" y="0" width="118" height="108" filterUnits="userSpaceOnUse" color-interpolation-filters="sRGB">
<feFlood flood-opacity="0" result="BackgroundImageFix"/>
<feColorMatrix in="SourceAlpha" type="matrix" values="0 0 0 0 0 0 0 0 0 0 0 0 0 0 0 0 0 0 127 0" result="hardAlpha"/>
<feOffset dy="4"/>
<feGaussianBlur stdDeviation="2"/>
<feComposite in2="hardAlpha" operator="out"/>
<feColorMatrix type="matrix" values="0 0 0 0 0 0 0 0 0 0 0 0 0 0 0 0 0 0 0.25 0"/>
<feBlend mode="normal" in2="BackgroundImageFix" result="effect1_dropShadow_236_2046"/>
<feBlend mode="normal" in="SourceGraphic" in2="effect1_dropShadow_236_2046" result="shape"/>
</filter>
<filter id="filter3_d_236_2046" x="304" y="32" width="118" height="108" filterUnits="userSpaceOnUse" color-interpolation-filters="sRGB">
<feFlood flood-opacity="0" result="BackgroundImageFix"/>
<feColorMatrix in="SourceAlpha" type="matrix" values="0 0 0 0 0 0 0 0 0 0 0 0 0 0 0 0 0 0 127 0" result="hardAlpha"/>
<feOffset dy="4"/>
<feGaussianBlur stdDeviation="2"/>
<feComposite in2="hardAlpha" operator="out"/>
<feColorMatrix type="matrix" values="0 0 0 0 0 0 0 0 0 0 0 0 0 0 0 0 0 0 0.25 0"/>
<feBlend mode="normal" in2="BackgroundImageFix" result="effect1_dropShadow_236_2046"/>
<feBlend mode="normal" in="SourceGraphic" in2="effect1_dropShadow_236_2046" result="shape"/>
</filter>
<filter id="filter4_d_236_2046" x="-4" y="0" width="118" height="108" filterUnits="userSpaceOnUse" color-interpolation-filters="sRGB">
<feFlood flood-opacity="0" result="BackgroundImageFix"/>
<feColorMatrix in="SourceAlpha" type="matrix" values="0 0 0 0 0 0 0 0 0 0 0 0 0 0 0 0 0 0 127 0" result="hardAlpha"/>
<feOffset dy="4"/>
<feGaussianBlur stdDeviation="2"/>
<feComposite in2="hardAlpha" operator="out"/>
<feColorMatrix type="matrix" values="0 0 0 0 0 0 0 0 0 0 0 0 0 0 0 0 0 0 0.25 0"/>
<feBlend mode="normal" in2="BackgroundImageFix" result="effect1_dropShadow_236_2046"/>
<feBlend mode="normal" in="SourceGraphic" in2="effect1_dropShadow_236_2046" result="shape"/>
</filter>
<filter id="filter5_d_236_2046" x="95" y="32" width="118" height="108" filterUnits="userSpaceOnUse" color-interpolation-filters="sRGB">
<feFlood flood-opacity="0" result="BackgroundImageFix"/>
<feColorMatrix in="SourceAlpha" type="matrix" values="0 0 0 0 0 0 0 0 0 0 0 0 0 0 0 0 0 0 127 0" result="hardAlpha"/>
<feOffset dy="4"/>
<feGaussianBlur stdDeviation="2"/>
<feComposite in2="hardAlpha" operator="out"/>
<feColorMatrix type="matrix" values="0 0 0 0 0 0 0 0 0 0 0 0 0 0 0 0 0 0 0.25 0"/>
<feBlend mode="normal" in2="BackgroundImageFix" result="effect1_dropShadow_236_2046"/>
<feBlend mode="normal" in="SourceGraphic" in2="effect1_dropShadow_236_2046" result="shape"/>
</filter>
<filter id="filter6_d_236_2046" x="634" y="0" width="118" height="108" filterUnits="userSpaceOnUse" color-interpolation-filters="sRGB">
<feFlood flood-opacity="0" result="BackgroundImageFix"/>
<feColorMatrix in="SourceAlpha" type="matrix" values="0 0 0 0 0 0 0 0 0 0 0 0 0 0 0 0 0 0 127 0" result="hardAlpha"/>
<feOffset dy="4"/>
<feGaussianBlur stdDeviation="2"/>
<feComposite in2="hardAlpha" operator="out"/>
<feColorMatrix type="matrix" values="0 0 0 0 0 0 0 0 0 0 0 0 0 0 0 0 0 0 0.25 0"/>
<feBlend mode="normal" in2="BackgroundImageFix" result="effect1_dropShadow_236_2046"/>
<feBlend mode="normal" in="SourceGraphic" in2="effect1_dropShadow_236_2046" result="shape"/>
</filter>
<filter id="filter7_d_236_2046" x="744" y="32" width="118" height="108" filterUnits="userSpaceOnUse" color-interpolation-filters="sRGB">
<feFlood flood-opacity="0" result="BackgroundImageFix"/>
<feColorMatrix in="SourceAlpha" type="matrix" values="0 0 0 0 0 0 0 0 0 0 0 0 0 0 0 0 0 0 127 0" result="hardAlpha"/>
<feOffset dy="4"/>
<feGaussianBlur stdDeviation="2"/>
<feComposite in2="hardAlpha" operator="out"/>
<feColorMatrix type="matrix" values="0 0 0 0 0 0 0 0 0 0 0 0 0 0 0 0 0 0 0.25 0"/>
<feBlend mode="normal" in2="BackgroundImageFix" result="effect1_dropShadow_236_2046"/>
<feBlend mode="normal" in="SourceGraphic" in2="effect1_dropShadow_236_2046" result="shape"/>
</filter>
<filter id="filter8_d_236_2046" x="843" y="0" width="118" height="108" filterUnits="userSpaceOnUse" color-interpolation-filters="sRGB">
<feFlood flood-opacity="0" result="BackgroundImageFix"/>
<feColorMatrix in="SourceAlpha" type="matrix" values="0 0 0 0 0 0 0 0 0 0 0 0 0 0 0 0 0 0 127 0" result="hardAlpha"/>
<feOffset dy="4"/>
<feGaussianBlur stdDeviation="2"/>
<feComposite in2="hardAlpha" operator="out"/>
<feColorMatrix type="matrix" values="0 0 0 0 0 0 0 0 0 0 0 0 0 0 0 0 0 0 0.25 0"/>
<feBlend mode="normal" in2="BackgroundImageFix" result="effect1_dropShadow_236_2046"/>
<feBlend mode="normal" in="SourceGraphic" in2="effect1_dropShadow_236_2046" result="shape"/>
</filter>
</defs>
</svg>
